<?xml version="1.0" standalone="no"?>
<!DOCTYPE svg PUBLIC "-//W3C//DTD SVG 20010904//EN"
 "http://www.w3.org/TR/2001/REC-SVG-20010904/DTD/svg10.dtd">
<svg version="1.0" xmlns="http://www.w3.org/2000/svg"
 width="640.000000pt" height="1280.000000pt" viewBox="0 0 640.000000 1280.000000"
 preserveAspectRatio="xMidYMid meet">
<metadata>
Created by potrace 1.15, written by Peter Selinger 2001-2017
</metadata>
<g transform="translate(0.000000,1280.000000) scale(0.100000,-0.100000)"
fill="#000000" stroke="none">
<path d="M4000 12740 l0 -59 -57 -3 -58 -3 -5 -178 -5 -178 -52 53 -52 53 -3
125 -3 125 -65 0 -65 0 -5 -53 -5 -53 -50 51 c-27 27 -56 50 -64 50 -9 0 11
-26 44 -60 l59 -60 -57 0 -57 0 0 -70 0 -70 128 0 128 0 54 -55 54 -55 -182 0
-182 0 0 -60 0 -60 -60 0 -60 0 0 -75 0 -75 60 0 60 0 0 -60 0 -60 191 0 190
0 -3 -52 -3 -53 -187 -3 -188 -2 0 -60 0 -60 -60 0 -60 0 0 -75 0 -75 60 0 60
0 0 -60 0 -60 182 0 183 0 -180 -180 -180 -180 -147 0 -148 0 0 190 0 190
-165 0 -165 0 0 -135 0 -135 70 0 70 0 0 70 c0 40 -4 70 -10 70 -6 0 -10 -27
-10 -60 l0 -60 -50 0 -50 0 0 115 0 115 145 0 145 0 0 -180 0 -180 -148 0
-147 0 -188 188 -187 187 0 243 0 242 65 0 65 0 0 60 0 60 60 0 60 0 0 65 0
65 65 0 65 0 0 195 0 196 -72 -3 -73 -3 -3 -57 -3 -57 -57 -3 -57 -3 -3 -62
-3 -62 -60 -3 -60 -3 -2 -245 -2 -245 -52 -3 -53 -3 0 250 0 251 -65 0 -65 0
0 65 0 65 -60 0 -60 0 0 60 0 60 -70 0 -70 0 0 -195 0 -195 60 0 59 0 3 -62 3
-63 63 -3 62 -3 0 -59 0 -60 60 0 60 0 0 -55 0 -55 -118 0 -117 0 -122 123
-123 122 -2 190 -3 190 -60 3 -60 3 3 119 c4 137 5 134 -94 128 l-49 -3 -3
-64 c-2 -36 2 -69 7 -74 8 -8 11 9 11 57 l0 67 53 -3 52 -3 3 -112 3 -113
-123 0 -124 0 -57 58 c-56 57 -57 59 -57 115 l0 57 55 0 55 0 0 -67 c0 -47 3
-64 11 -56 5 5 9 38 7 74 l-3 64 -70 0 -70 0 -3 -62 -3 -63 -59 0 -60 0 0 -70
0 -70 71 0 c44 0 68 4 64 10 -3 6 -31 10 -61 10 l-54 0 0 50 0 50 58 0 c59 0
59 0 115 -59 l57 -60 0 -115 0 -116 -115 0 -115 0 0 50 0 50 60 0 c33 0 60 4
60 10 0 6 -30 10 -70 10 l-70 0 0 -70 0 -70 125 0 125 0 0 -65 0 -65 193 0
192 0 118 -119 117 -118 0 -122 0 -122 -52 3 -53 3 -1 60 -1 60 -61 3 -62 3 0
59 0 59 -62 3 -61 3 -1 60 -1 60 -195 0 -195 0 0 -70 0 -70 63 -3 62 -3 0 -59
0 -60 60 0 59 0 3 -62 3 -63 248 -3 247 -2 0 -50 0 -50 -247 -2 -248 -3 -3
-62 -3 -63 -59 0 -60 0 0 -60 0 -59 -62 -3 -63 -3 -3 -67 -3 -68 201 0 200 0
0 60 0 60 60 0 59 0 3 63 3 62 57 3 57 3 3 57 3 57 245 3 245 2 183 -184 182
-184 0 -151 0 -151 -177 2 -178 3 0 145 0 145 113 3 112 3 0 -56 0 -55 -60 0
c-33 0 -60 -4 -60 -10 0 -6 30 -10 70 -10 l70 0 0 70 0 70 -130 0 -130 0 0
-165 0 -165 185 0 185 0 0 -148 0 -147 -173 -173 c-95 -94 -176 -172 -180
-172 -4 0 -7 79 -7 175 l0 175 -60 0 -59 0 -3 63 -3 62 -65 0 -65 0 -5 -60 -5
-60 -62 -3 -63 -3 0 -184 0 -185 -55 0 -56 0 2 183 1 182 -61 3 -60 3 -3 62
-3 62 -65 0 -65 0 -3 -62 -3 -63 -64 0 -65 0 0 -177 0 -177 -50 49 -49 49 -3
125 -3 126 -72 3 -73 3 0 -53 0 -52 -55 54 c-30 29 -58 51 -62 47 -4 -4 18
-32 47 -62 l54 -55 -52 0 -52 0 0 -75 0 -75 128 0 128 0 49 -50 49 -50 -177 0
-177 0 0 -65 0 -65 -65 0 -65 0 0 -70 0 -70 65 0 65 0 0 -65 0 -65 185 0 185
0 0 -50 0 -50 -185 0 -185 0 0 -65 0 -65 -65 0 -66 0 3 -67 3 -68 63 -3 62 -3
0 -59 0 -60 168 -1 c92 -1 170 -1 175 0 17 3 4 -18 -41 -62 l-48 -47 -127 0
-127 0 0 -70 0 -70 50 0 c28 0 50 -3 50 -7 0 -4 -23 -31 -52 -60 -28 -29 -49
-56 -45 -60 4 -4 32 17 62 47 l54 53 3 -49 3 -49 70 0 70 0 3 126 3 125 49 49
50 49 0 -177 0 -177 65 0 65 0 0 -60 0 -60 70 0 70 0 0 60 0 59 61 3 60 3 2
185 2 185 50 0 50 0 3 -187 2 -188 65 0 65 0 0 -60 0 -60 70 0 70 0 0 60 0 60
60 0 60 0 0 175 c0 96 4 175 8 175 4 0 29 -22 55 -48 l47 -48 0 -127 0 -127
70 0 70 0 0 57 0 57 60 -59 c33 -32 63 -56 67 -52 4 4 -20 34 -52 67 l-59 60
57 0 58 0 -3 68 -3 67 -125 3 -125 3 -47 46 c-27 26 -48 51 -48 55 0 4 79 8
175 8 l175 0 0 60 0 60 60 0 60 0 0 70 0 70 -60 0 -59 0 -3 63 -3 62 -187 3
-188 2 0 50 0 50 188 2 187 3 3 63 3 62 59 0 60 0 0 70 0 70 -60 0 -59 0 -3
63 -3 62 -177 3 -177 2 173 175 172 175 152 0 152 0 0 -185 0 -185 165 0 166
0 -3 133 -3 132 -67 3 -68 3 0 -76 c0 -48 4 -74 10 -70 6 3 10 33 10 66 l0 59
50 0 50 0 0 -115 0 -115 -145 0 -145 0 0 175 0 175 152 0 151 0 184 -185 183
-185 0 -239 0 -240 -62 -3 -63 -3 -3 -62 -3 -63 -59 0 -60 0 0 -60 0 -59 -62
-3 -63 -3 -3 -192 -2 -193 75 0 75 0 0 60 0 60 60 0 59 0 3 63 3 62 58 3 57 3
0 244 0 245 55 0 55 0 2 -246 3 -247 60 -1 60 -1 3 -62 3 -63 59 0 60 0 0 -60
0 -60 70 0 70 0 0 195 0 195 -60 0 -60 0 0 60 0 59 -62 3 -63 3 -3 63 -3 62
-59 0 -60 0 0 50 0 50 118 0 117 0 123 -123 122 -122 0 -188 0 -187 60 0 59 0
3 -122 3 -123 73 -3 72 -3 0 71 c0 40 -4 70 -10 70 -6 0 -10 -27 -10 -60 l0
-60 -55 0 -55 0 0 115 0 115 118 0 118 0 62 -63 c60 -61 62 -64 62 -115 l0
-52 -55 0 -55 0 0 60 c0 35 -4 60 -10 60 -7 0 -10 -25 -8 -67 l3 -68 70 0 70
0 3 63 3 62 59 0 60 0 0 70 0 70 -70 0 c-40 0 -70 -4 -70 -10 0 -6 27 -10 60
-10 l60 0 0 -55 0 -55 -53 0 c-51 0 -54 2 -115 63 l-62 63 0 117 0 117 115 0
115 0 0 -55 0 -54 -62 -4 -63 -3 73 -2 72 -2 0 70 0 70 -125 0 -125 0 0 60 0
60 -188 0 -187 0 -123 123 -122 122 0 118 0 117 56 0 55 0 -2 -57 -3 -58 62
-3 61 -3 3 -62 3 -62 57 -3 57 -3 3 -57 3 -57 198 -3 197 -2 0 70 0 70 -65 0
-65 0 0 65 0 65 -60 0 -60 0 0 60 0 60 -250 0 -250 0 0 55 0 55 250 0 250 0 0
60 0 60 60 0 60 0 0 65 0 65 65 0 65 0 0 70 0 70 -197 -2 -198 -3 0 -55 0 -55
-60 -5 -60 -5 -3 -62 -3 -62 -61 -3 -62 -3 3 -57 2 -58 -248 0 -248 0 -183
183 -182 182 0 148 0 147 180 0 180 0 0 -145 0 -145 -115 0 -115 0 0 55 0 55
62 0 c43 0 59 3 51 11 -5 5 -37 9 -69 7 l-59 -3 -3 -73 -3 -73 131 3 131 3 0
160 0 160 -185 3 -186 2 0 152 0 151 173 173 c94 96 175 174 180 174 4 0 7
-79 7 -175 l0 -175 60 0 60 0 0 -65 0 -65 70 0 69 0 3 63 3 62 63 3 62 3 0
185 0 185 53 -3 52 -3 2 -180 2 -180 60 -3 61 -3 0 -64 0 -65 70 0 69 0 3 63
3 62 63 3 62 3 0 177 0 176 50 -49 50 -49 0 -128 0 -128 75 0 75 0 0 52 0 52
55 -54 c30 -29 58 -51 62 -47 4 4 -18 32 -47 62 l-54 55 52 0 52 0 0 70 0 70
-123 0 -123 0 -54 55 -54 55 177 0 177 0 0 60 0 59 63 3 62 3 0 70 0 70 -62 3
-63 3 0 59 0 60 -185 0 -185 0 0 55 0 55 185 0 185 0 0 60 0 59 63 3 62 3 0
70 0 70 -62 3 -63 3 0 59 0 60 -175 0 c-96 0 -175 4 -175 9 0 4 22 29 50 55
l49 46 126 0 125 0 0 70 0 70 -50 0 c-27 0 -50 3 -50 7 0 4 23 31 52 60 29 29
48 53 42 53 -5 0 -32 -23 -59 -50 l-50 -51 -5 53 -5 53 -70 0 -70 0 -3 -130
-3 -130 -47 -48 -47 -48 -5 178 -5 178 -62 3 -63 3 0 59 0 60 -70 0 -70 0 0
-60 0 -59 -57 -3 -58 -3 -5 -185 -5 -185 -52 -3 -53 -3 -2 188 -3 188 -62 3
-63 3 0 59 0 60 -70 0 -70 0 0 -60z m130 -20 l0 -60 60 0 60 0 2 -187 3 -188
67 -3 68 -3 2 188 3 188 63 3 62 3 0 59 0 60 50 0 49 0 3 -57 3 -58 63 -3 62
-3 0 -189 0 -190 185 0 185 0 0 -60 0 -60 65 0 65 0 0 -55 0 -55 -65 0 -65 0
0 -60 0 -60 -185 0 -186 0 3 -72 3 -73 183 -3 182 -2 0 -60 0 -60 65 0 65 0 0
-55 0 -55 -65 0 -65 0 0 -60 0 -60 -185 0 -185 0 0 -190 0 -189 -62 -3 -63 -3
-3 -57 -3 -58 -49 0 -50 0 0 60 0 59 -62 3 -63 3 -3 188 -2 187 -70 0 -70 0 0
-190 0 -190 -60 0 -60 0 0 -60 0 -60 -55 0 -55 0 0 60 0 59 -62 3 -63 3 -2
185 -2 185 -185 3 -186 2 0 60 0 60 -60 0 -60 0 0 55 0 55 60 0 60 0 0 60 0
60 185 0 185 0 0 75 0 75 -185 0 -185 0 0 60 0 60 -60 0 -60 0 0 55 0 55 60 0
60 0 0 60 0 60 186 2 185 3 2 185 2 185 63 3 62 3 0 59 0 60 55 0 55 0 0 -60z
m-380 -175 l0 -115 -115 0 -115 0 0 50 0 49 63 3 62 3 3 63 3 62 49 0 50 0 0
-115z m1250 50 l0 -65 60 0 60 0 0 -50 0 -50 -115 0 -115 0 0 115 0 115 55 0
55 0 0 -65z m-2870 -125 l0 -59 63 -3 62 -3 3 -62 3 -63 59 0 60 0 0 -175 0
-175 -55 0 -55 0 0 60 0 60 -60 0 -59 0 -3 63 -3 62 -62 3 -63 3 0 174 0 175
55 0 55 0 0 -60z m750 -115 l0 -174 -62 -3 -63 -3 -3 -62 -3 -63 -59 0 -60 0
0 -60 0 -60 -55 0 -55 0 0 175 0 174 63 3 62 3 3 63 3 62 59 0 60 0 0 60 0 60
55 0 55 0 0 -175z m-1000 -125 l0 -180 -175 0 -175 0 0 180 0 180 175 0 175 0
0 -180z m-120 -380 l0 -59 58 -3 57 -3 3 -62 3 -63 65 0 65 0 -3 -52 -3 -53
-177 -3 -178 -2 0 65 0 65 -60 0 -60 0 0 60 0 60 -65 0 -65 0 0 55 0 55 180 0
180 0 0 -60z m750 -245 l0 -175 -180 0 -180 0 0 175 0 175 180 0 180 0 0 -175z
m-502 -247 l-3 -53 -62 -3 -63 -3 0 -59 0 -60 -60 0 -59 0 -3 -62 -3 -63 -177
-3 -178 -2 0 54 0 55 63 3 62 3 3 63 3 63 57 -2 57 -3 3 62 3 62 180 0 180 0
-3 -52z m3112 -123 l0 -55 -60 0 -60 0 0 -66 0 -65 -52 3 -53 3 -3 104 c-1 58
0 111 2 118 4 10 34 13 116 13 l110 0 0 -55z m-1620 -500 l0 -305 -300 0 -300
0 0 305 0 305 300 0 300 0 0 -305z m-1618 -257 l3 -63 63 -3 62 -3 0 -184 0
-185 70 0 70 0 0 185 0 185 60 0 59 0 3 63 3 62 53 3 52 3 0 -65 0 -66 65 0
66 0 -1 -182 -2 -183 186 -3 186 -2 0 -65 0 -65 60 0 60 0 0 -50 0 -50 -60 0
-60 0 0 -65 0 -65 -186 -2 -186 -3 0 -65 0 -65 185 -3 186 -2 3 -63 3 -62 58
-3 57 -3 0 -49 0 -50 -60 0 -60 0 0 -65 0 -65 -185 0 -185 0 -2 -182 -3 -183
-62 -3 -62 -3 -3 -62 -3 -62 -50 0 -50 0 -3 63 -3 62 -59 0 -60 0 0 185 0 185
-70 0 -70 0 0 -185 0 -185 -65 0 -65 0 0 -65 0 -65 -50 0 -49 0 -3 63 -3 62
-62 3 -63 3 0 184 0 185 -185 0 -184 0 -3 63 -3 62 -62 3 -63 3 0 49 0 49 63
3 62 3 3 63 3 62 184 0 185 0 0 70 0 70 -185 0 -184 0 -3 63 -3 62 -62 3 -63
3 0 49 0 49 63 3 62 3 3 63 3 62 184 0 185 0 0 185 0 184 63 3 62 3 3 63 3 62
49 0 49 0 3 -62z m-372 -183 l0 -115 -115 0 -115 0 0 55 0 55 60 0 60 0 0 60
0 60 55 0 55 0 0 -115z m3490 65 l0 -49 -62 -3 -63 -3 -3 -62 -3 -63 -59 0
-60 0 0 -60 0 -60 -180 0 -180 0 0 50 0 49 63 3 62 3 3 63 3 62 59 0 60 0 0
60 0 60 180 0 180 0 0 -50z m-750 -500 l0 -180 -177 2 -178 3 -3 165 c-1 90 0
170 2 177 4 10 47 13 181 13 l175 0 0 -180z m500 -10 l0 -60 60 0 59 0 3 -62
3 -63 63 -3 62 -3 0 -49 0 -50 -180 0 -180 0 0 60 0 60 -60 0 -59 0 -3 63 -3
62 -62 3 -63 3 0 49 0 50 180 0 180 0 0 -60z m-872 -487 l-3 -178 -62 -3 -63
-3 0 -59 0 -60 -60 0 -59 0 -3 -62 -3 -63 -52 -3 -53 -3 0 180 0 180 63 3 62
3 3 57 3 57 57 3 57 3 3 63 3 62 55 0 54 0 -2 -177z m252 112 l0 -65 60 0 60
0 0 -60 0 -59 63 -3 62 -3 0 -175 0 -175 -52 -3 -53 -3 0 65 0 66 -65 0 -65 0
0 60 0 60 -60 0 -60 0 0 180 0 180 55 0 55 0 0 -65z m740 -240 l0 -175 -175 0
-175 0 0 175 0 175 175 0 175 0 0 -175z m-3360 -310 l0 -115 -55 0 -55 0 0 60
0 60 -60 0 -60 0 0 55 0 55 115 0 115 0 0 -115z m1370 60 l0 -55 -65 0 -65 0
0 -60 0 -60 -50 0 -50 0 0 115 0 115 115 0 115 0 0 -55z"/>
<path d="M4002 11858 l3 -323 318 -3 317 -2 0 325 0 325 -320 0 -320 0 2 -322z
m620 1 c2 -165 1 -303 -1 -305 -2 -2 -139 -4 -303 -4 l-298 0 0 305 0 305 300
0 299 0 3 -301z"/>
<path d="M4130 11855 l0 -195 195 0 195 0 0 195 0 195 -195 0 -195 0 0 -195z
m370 0 l0 -175 -180 0 -180 0 0 175 0 175 180 0 180 0 0 -175z"/>
<path d="M4250 11855 l0 -75 70 0 70 0 0 75 0 75 -70 0 -70 0 0 -75z m125 0
l0 -50 -52 -3 -53 -3 0 56 0 56 53 -3 52 -3 0 -50z"/>
<path d="M1630 12230 l0 -70 75 0 75 0 0 70 0 70 -75 0 -75 0 0 -70z m130 0
l0 -50 -55 0 -55 0 0 50 0 50 55 0 55 0 0 -50z"/>
<path d="M3000 10735 l0 -195 200 0 200 0 0 195 0 195 -200 0 -200 0 0 -195z
m378 -2 l-3 -178 -175 0 -175 0 -3 178 -2 177 180 0 180 0 -2 -177z"/>
<path d="M3130 10730 l0 -70 70 0 70 0 0 70 0 70 -70 0 -70 0 0 -70z m120 5
l0 -55 -50 0 -50 0 0 55 0 55 50 0 50 0 0 -55z"/>
<path d="M1760 9610 l0 -320 320 0 320 0 0 320 0 320 -320 0 -320 0 0 -320z
m620 0 l0 -300 -300 0 -299 0 -3 300 -3 300 303 0 302 0 0 -300z"/>
<path d="M1882 9613 l3 -198 193 -3 192 -2 0 200 0 200 -195 0 -195 0 2 -197z
m373 -3 l0 -175 -177 -3 -178 -2 0 180 0 180 178 -2 177 -3 0 -175z"/>
<path d="M2010 9610 l0 -70 70 0 70 0 0 70 0 70 -70 0 -70 0 0 -70z m120 0 l0
-50 -55 0 -55 0 0 50 0 50 55 0 55 0 0 -50z"/>
<path d="M4624 9296 c-3 -7 -4 -40 -2 -72 l3 -59 70 0 70 0 3 73 3 72 -71 0
c-50 0 -72 -4 -76 -14z m126 -62 l0 -55 -52 3 -53 3 -3 53 -3 52 55 0 56 0 0
-56z"/>
<path d="M4000 8390 l0 -60 -60 0 -60 0 0 -182 0 -182 -55 54 -55 54 0 128 0
128 -70 0 -70 0 0 -57 0 -57 -58 57 c-32 32 -61 54 -65 50 -4 -4 18 -33 50
-65 l57 -58 -57 0 -57 0 0 -70 0 -70 128 0 128 0 54 -55 54 -55 -182 0 -182 0
0 -60 0 -60 -60 0 -61 0 3 -72 3 -72 58 3 57 2 0 -65 0 -66 191 0 190 0 -3
-52 -3 -53 -187 -3 -188 -2 0 -60 0 -60 -60 0 -60 0 0 -70 0 -70 60 0 59 0 3
-62 3 -63 180 -3 179 -2 -174 -175 -175 -175 -152 0 -153 0 0 185 0 185 -165
0 -165 0 0 -135 0 -135 70 0 70 0 0 70 c0 40 -4 70 -10 70 -6 0 -10 -27 -10
-60 l0 -60 -50 0 -50 0 0 115 0 115 145 0 145 0 0 -175 0 -175 -153 0 -152 0
-183 183 -182 182 0 243 0 242 65 0 65 0 0 66 0 65 58 -2 57 -3 3 62 3 62 64
0 65 0 0 195 0 195 -75 0 -75 0 0 -60 0 -60 -60 0 -60 0 0 -65 0 -64 -62 -3
-63 -3 0 -245 0 -245 -52 -3 -53 -3 0 250 0 250 -62 3 -63 3 -3 63 -3 62 -59
0 -60 0 0 60 0 60 -70 0 -70 0 0 -195 0 -195 60 0 60 0 0 -60 0 -60 50 -1 c28
-1 56 -2 63 -3 8 -1 13 -23 15 -63 l3 -63 59 0 60 0 0 -55 0 -55 -118 0 -117
0 -123 123 -122 122 0 193 0 192 -60 0 -59 0 -3 123 -3 122 -70 0 -70 0 -3
-67 c-2 -43 1 -68 8 -68 6 0 10 25 10 60 l0 60 55 0 55 0 0 -115 0 -115 -123
0 -123 0 -57 58 c-56 57 -57 59 -57 115 l0 57 55 0 55 0 0 -67 c0 -47 3 -64
11 -56 5 5 9 38 7 74 l-3 64 -70 0 -70 0 -3 -62 -3 -63 -59 0 -60 0 0 -70 0
-70 70 0 c40 0 70 4 70 10 0 6 -27 10 -60 10 l-60 0 0 50 0 50 58 0 c57 0 58
-1 115 -58 l57 -58 0 -117 0 -117 -115 0 -115 0 0 50 0 50 54 0 c30 0 58 5 61
10 4 6 -20 10 -64 10 l-71 0 0 -70 0 -70 125 0 124 0 3 -61 3 -61 184 2 183 1
124 -123 125 -123 -3 -120 -3 -120 -50 0 -50 0 -1 60 -2 60 -61 3 -61 3 0 59
0 59 -62 3 -61 3 -1 60 -1 60 -195 0 -195 0 -3 -67 -3 -67 63 -3 63 -3 3 -62
3 -63 59 0 60 0 0 -60 0 -60 250 0 250 0 0 -55 0 -55 -250 0 -250 0 0 -60 0
-59 -57 -3 -58 -3 -3 -62 -3 -63 -64 0 -65 0 0 -70 0 -70 198 2 197 3 3 58 3
57 59 0 60 0 0 65 0 64 62 3 61 3 1 55 1 55 245 3 244 2 183 -182 183 -183 0
-153 0 -152 -177 2 -178 3 0 145 0 145 113 3 112 3 0 -56 0 -55 -60 0 c-33 0
-60 -4 -60 -10 0 -6 30 -10 70 -10 l70 0 0 75 0 75 -130 0 c-80 0 -130 -4
-130 -10 0 -5 -1 -79 -1 -162 l0 -153 183 -5 183 -5 3 -150 3 -149 -173 -173
c-95 -95 -176 -173 -180 -173 -5 0 -8 79 -8 175 l0 175 -60 0 -59 0 -3 63 -3
62 -67 3 -67 3 -3 -63 -3 -63 -62 -3 -63 -3 0 -185 0 -185 -52 3 -53 3 -2 180
-2 180 -60 3 -60 3 -3 62 -3 62 -67 3 -67 3 -3 -63 -3 -63 -62 -3 -63 -3 0
-177 0 -176 -50 49 -50 49 0 128 0 128 -75 0 -75 0 0 -52 0 -52 -55 54 c-30
29 -58 51 -62 47 -4 -4 18 -32 47 -62 l54 -55 -52 0 -52 0 0 -75 0 -75 128 0
128 0 49 -50 49 -50 -176 0 -177 0 -3 -62 -3 -63 -63 -3 -63 -3 3 -67 3 -67
62 -3 63 -3 0 -59 0 -60 185 0 185 0 0 -55 0 -55 -185 0 -185 0 0 -60 0 -60
-52 0 c-75 0 -80 -6 -76 -81 l3 -64 63 -3 62 -3 0 -59 0 -60 175 0 c96 0 175
-4 175 -8 0 -4 -22 -29 -48 -55 l-48 -47 -127 0 -127 0 0 -70 0 -70 50 0 c28
0 50 -4 50 -8 0 -4 -22 -30 -50 -57 -27 -27 -50 -54 -50 -59 0 -6 27 16 59 48
l60 59 3 -54 3 -54 70 0 70 0 3 130 3 130 47 48 47 48 5 -178 5 -178 63 -3 62
-3 0 -59 0 -60 70 0 70 0 0 60 0 59 60 3 61 3 2 185 2 185 52 3 53 3 2 -188 3
-188 63 -3 62 -3 0 -59 0 -60 70 0 70 0 0 60 0 60 60 0 60 0 0 182 0 182 55
-54 55 -54 0 -128 0 -128 70 0 70 0 0 57 0 57 58 -57 c32 -32 61 -54 65 -50 4
4 -18 33 -50 65 l-57 58 57 0 57 0 0 70 0 70 -128 0 -128 0 -54 55 -54 55 182
0 182 0 0 60 0 60 60 0 61 0 -3 73 -3 72 -57 3 -57 3 -3 57 -3 57 -188 3 -188
2 3 53 3 52 188 3 187 2 0 60 0 60 60 0 60 0 0 70 0 70 -60 0 -59 0 -3 63 -3
62 -180 3 -179 2 174 175 175 175 152 0 153 0 0 -185 0 -185 165 0 165 0 0
135 0 135 -70 0 -70 0 0 -76 c0 -47 4 -73 10 -69 6 3 10 33 10 66 l0 59 50 0
50 0 0 -115 0 -115 -145 0 -145 0 0 175 0 175 153 0 153 0 182 -183 182 -183
0 -242 0 -242 -65 0 -65 0 0 -60 0 -59 -57 -3 -58 -3 -3 -62 -3 -63 -64 0 -65
0 0 -195 0 -195 75 0 75 0 0 60 0 60 60 0 60 0 0 65 0 65 60 0 60 0 2 248 3
247 53 3 52 3 0 -250 0 -250 63 -3 62 -3 3 -62 3 -63 59 0 60 0 0 -60 0 -60
70 0 70 0 0 195 0 195 -60 0 -59 0 -3 63 -3 62 -60 1 -60 1 -3 61 -3 62 -59 0
-60 0 0 55 0 55 117 0 116 0 124 -122 123 -122 0 -193 0 -193 60 0 59 0 3
-122 3 -123 70 0 70 0 3 68 c2 42 -1 67 -8 67 -6 0 -10 -25 -10 -60 l0 -60
-55 0 -55 0 0 115 0 115 122 0 122 0 58 -57 c57 -57 58 -58 58 -115 l0 -58
-55 0 -55 0 0 60 c0 35 -4 60 -10 60 -7 0 -10 -25 -8 -67 l3 -68 70 0 70 0 3
63 3 62 59 0 60 0 0 70 0 70 -70 0 c-40 0 -70 -4 -70 -10 0 -6 27 -10 60 -10
l60 0 0 -50 0 -50 -57 0 c-56 0 -58 1 -115 57 l-58 57 0 118 0 118 115 0 115
0 0 -50 0 -50 -54 0 c-30 0 -58 -4 -61 -10 -4 -6 20 -10 64 -10 l71 0 0 70 0
70 -125 0 -124 0 -3 63 -3 62 -189 2 -189 2 -119 118 -118 118 2 120 3 120 49
0 49 0 1 -60 1 -60 63 -3 62 -3 0 -59 0 -60 60 0 59 0 3 -62 3 -63 195 0 195
0 3 67 3 67 -63 3 -63 3 -3 63 -3 62 -59 0 -60 0 0 60 0 60 -250 0 -250 0 0
55 0 55 250 0 250 0 0 60 0 59 58 3 57 3 3 63 3 62 64 0 65 0 0 70 0 70 -197
-2 -198 -3 -3 -57 -3 -58 -59 0 -60 0 0 -65 0 -64 -62 -3 -63 -3 -3 -57 -3
-58 -242 0 -242 0 -183 183 -183 183 3 149 3 150 175 0 175 0 0 -145 0 -145
-112 -3 -113 -3 0 56 0 55 60 0 c33 0 60 4 60 10 0 6 -30 10 -70 10 l-70 0 0
-75 0 -75 130 0 130 0 0 165 0 165 -185 0 -185 0 0 153 0 152 173 173 c95 94
176 172 180 172 4 0 7 -79 7 -175 l0 -175 60 0 59 0 3 -62 3 -63 67 -3 67 -3
3 63 3 63 63 3 62 3 0 184 0 185 50 0 50 0 2 -182 3 -183 63 -3 62 -3 0 -64 0
-65 70 0 69 0 3 63 3 62 63 3 62 3 0 177 0 176 50 -49 50 -49 0 -128 0 -128
75 0 75 0 0 52 0 52 55 -54 c30 -29 58 -51 62 -47 4 4 -18 32 -47 62 l-54 55
52 0 53 0 -3 73 -3 72 -126 3 -125 3 -49 49 -49 50 176 0 177 0 3 63 3 62 63
3 63 3 -3 67 -3 67 -62 3 -63 3 0 59 0 60 -185 0 -185 0 0 55 0 55 185 0 184
0 3 63 3 62 63 3 63 3 -3 67 -3 67 -62 3 -63 3 0 59 0 60 -175 0 c-96 0 -175
4 -175 8 0 4 22 29 48 55 l48 47 127 0 127 0 0 70 0 70 -50 0 c-27 0 -50 4
-50 8 0 4 23 30 50 57 28 27 50 54 50 59 0 6 -27 -16 -59 -48 l-60 -59 -3 54
-3 54 -70 0 -70 0 -3 -130 -3 -130 -47 -48 -47 -48 -5 178 -5 178 -62 3 -63 3
0 59 0 60 -70 0 -70 0 0 -60 0 -59 -62 -3 -63 -3 -2 -185 -2 -185 -50 -3 -51
-3 -2 188 -3 188 -62 3 -63 3 0 59 0 60 -70 0 -70 0 0 -60z m-2230 -510 l0
-60 -65 0 -65 0 0 60 0 60 65 0 65 0 0 -60z m2860 -370 l0 -310 -310 0 -310 0
0 310 0 310 310 0 310 0 0 -310z m-1240 -1125 l0 -185 -190 0 -190 0 0 185 0
185 190 0 190 0 0 -185z m-1000 -1125 l0 -310 -310 0 -310 0 0 310 0 310 310
0 310 0 0 -310z m2370 -370 l0 -60 -65 0 -65 0 0 60 0 60 65 0 65 0 0 -60z"/>
<path d="M4133 7508 l2 -183 188 -3 187 -2 0 185 0 185 -189 0 -190 0 2 -182z
m247 -3 l0 -66 -57 3 -58 3 -3 63 -3 62 61 0 60 0 0 -65z"/>
<path d="M3140 6385 l0 -65 60 0 60 0 0 65 0 65 -60 0 -60 0 0 -65z"/>
<path d="M1892 5265 l3 -186 185 0 185 0 0 183 0 183 -188 3 -187 2 2 -185z
m248 -5 l0 -60 -60 0 -60 0 0 60 0 60 60 0 60 0 0 -60z"/>
<path d="M4000 4070 l0 -60 -60 0 -60 0 0 -175 c0 -96 -4 -175 -8 -175 -4 0
-29 22 -55 48 l-47 48 0 127 0 127 -70 0 -70 0 0 -57 0 -57 -60 59 c-33 32
-63 56 -67 52 -4 -4 17 -32 47 -62 l53 -54 -49 -3 -49 -3 0 -70 0 -70 125 -3
125 -3 48 -47 48 -47 -173 -5 -173 -5 -3 -62 -3 -63 -59 0 -60 0 0 -70 0 -70
60 0 59 0 3 -62 3 -63 188 -3 187 -2 0 -50 0 -50 -187 -2 -188 -3 -3 -62 -3
-63 -59 0 -60 0 0 -70 0 -70 60 0 59 0 3 -62 3 -63 175 -3 174 -2 -174 -175
-175 -175 -147 0 -148 0 0 185 0 185 -165 0 -166 0 3 -132 3 -133 65 0 65 0 3
73 c2 50 -1 72 -8 67 -5 -3 -10 -33 -10 -66 l0 -59 -50 0 -50 0 0 115 0 115
145 0 145 0 0 -175 0 -175 -148 0 -147 0 -188 188 -187 187 0 237 0 237 63 3
62 3 3 63 3 62 59 0 60 0 0 60 0 59 63 3 62 3 0 195 0 195 -49 3 c-89 6 -96 1
-96 -68 l0 -60 -60 0 -60 0 0 -60 0 -60 -54 0 c-34 0 -58 -5 -65 -14 -9 -11
-11 -78 -8 -250 l4 -236 -53 0 -54 0 -2 248 -3 247 -62 3 -63 3 0 59 0 60 -60
0 -59 0 -3 63 -3 62 -65 0 -65 0 -3 -197 -2 -198 60 0 60 0 0 -60 0 -59 63 -3
62 -3 3 -62 3 -63 59 0 60 0 0 -50 0 -50 -118 0 -117 0 -123 123 -122 122 0
188 0 187 -60 0 -59 0 -3 123 -3 122 -72 3 -73 3 0 -71 c0 -40 4 -70 10 -70 6
0 10 27 10 60 l0 60 55 0 55 0 0 -115 0 -115 -118 0 -118 0 -62 63 c-60 61
-62 64 -62 115 l0 52 55 0 55 0 0 -60 c0 -35 4 -60 10 -60 7 0 10 25 8 68 l-3
67 -70 0 -70 0 -3 -63 -3 -63 -57 2 -57 3 -3 -72 -3 -72 71 0 c40 0 70 4 70
10 0 6 -27 10 -60 10 l-60 0 0 55 0 55 53 0 c51 0 54 -2 115 -63 l62 -63 0
-117 0 -117 -115 0 -115 0 0 55 0 55 62 0 c43 0 59 3 51 11 -5 5 -37 9 -69 7
l-59 -3 -3 -72 -3 -73 126 0 125 0 0 -60 0 -60 188 0 187 0 123 -123 122 -122
0 -118 0 -117 -54 0 -54 0 1 58 0 57 -61 3 -61 3 -3 62 -3 62 -57 3 -57 3 -3
57 -3 57 -197 3 -198 2 0 -70 0 -70 65 0 65 0 0 -65 0 -65 60 0 60 0 0 -60 0
-60 250 0 250 0 0 -55 0 -55 -250 0 -250 0 0 -60 0 -60 -60 0 -59 0 -3 -62 -3
-63 -62 -3 -63 -3 0 -70 0 -69 198 2 197 3 0 55 0 55 60 5 60 5 3 62 3 62 61
3 61 3 0 58 -1 57 247 0 246 0 183 -183 182 -182 0 -148 0 -147 -180 0 -180 0
0 145 0 145 115 0 115 0 0 -55 0 -55 -62 -2 -63 -1 65 -6 c36 -4 68 -5 73 -3
4 2 7 35 7 73 l0 70 -131 -3 -130 -3 0 -160 0 -160 185 -3 186 -2 0 -148 0
-147 -180 -180 -180 -179 -2 179 -3 180 -57 3 -58 3 0 59 0 60 -70 0 -69 0 -3
-62 -3 -61 -60 -1 -60 -1 -3 -188 -2 -188 -53 3 -52 3 -2 178 c-1 98 -5 182
-8 187 -3 6 -31 10 -61 10 l-54 0 0 60 0 60 -70 0 -69 0 -3 -62 -3 -61 -60 -1
-60 -1 -3 -179 -2 -180 -50 49 -50 49 0 128 c0 146 2 142 -96 136 l-49 -3 -3
-54 -3 -54 -54 53 c-30 30 -58 50 -62 46 -5 -4 16 -29 45 -55 28 -25 52 -49
52 -53 0 -5 -22 -8 -50 -8 l-50 0 0 -70 0 -70 123 0 123 0 54 -55 54 -55 -177
0 -177 0 0 -60 0 -59 -63 -3 -62 -3 0 -70 0 -70 62 -3 63 -3 0 -59 0 -60 185
0 185 0 0 -55 0 -55 -185 0 -185 0 0 -60 0 -59 -62 -3 -63 -3 0 -70 0 -70 63
-3 62 -3 0 -59 0 -60 175 0 c96 0 175 -2 175 -4 0 -3 -24 -28 -52 -55 l-53
-51 -122 0 -123 0 0 -70 0 -70 50 0 c28 0 50 -2 50 -4 0 -2 -23 -26 -52 -55
-28 -28 -48 -54 -44 -58 3 -4 31 18 61 47 l55 54 0 -52 0 -52 75 0 75 0 0 128
0 128 50 49 50 49 0 -176 0 -177 63 -3 62 -3 3 -62 3 -63 69 0 69 0 3 63 3 62
58 5 58 5 2 180 2 180 53 3 52 3 0 -185 0 -186 50 -1 c28 -1 56 -2 63 -3 8 -1
13 -23 15 -63 l3 -63 69 0 69 0 3 63 3 62 58 3 57 3 0 174 c0 96 2 175 5 175
2 0 26 -23 52 -51 l48 -51 5 -125 5 -125 65 0 65 0 3 51 c2 28 5 51 7 51 2 0
25 -22 51 -50 26 -27 54 -50 63 -50 9 0 -8 24 -44 60 l-59 60 57 0 57 0 0 70
0 70 -128 0 -128 0 -54 55 -54 55 182 0 182 0 0 60 0 60 60 0 60 0 0 75 0 75
-60 0 -60 0 0 60 0 60 -187 2 -188 3 0 50 0 50 188 3 187 2 0 60 0 60 60 0 60
0 0 75 0 75 -60 0 -60 0 0 60 0 60 -182 0 -183 0 180 180 180 180 147 0 148 0
0 -190 0 -190 165 0 165 0 0 135 0 135 -70 0 -70 0 0 -70 c0 -40 4 -70 10 -70
6 0 10 27 10 60 l0 60 50 0 50 0 0 -115 0 -115 -145 0 -145 0 0 180 0 180 148
0 147 0 188 -188 187 -188 -2 -239 -3 -240 -62 -3 -63 -3 0 -59 0 -60 -60 0
-59 0 -3 -62 -3 -63 -62 -3 -63 -3 0 -195 0 -195 73 3 72 3 3 57 3 57 57 3 57
3 3 62 3 62 60 3 60 3 2 245 2 245 53 3 52 3 0 -250 0 -251 65 0 65 0 0 -65 0
-65 60 0 60 0 0 -60 0 -60 70 0 70 0 0 195 0 195 -60 0 -59 0 -3 63 -3 62 -62
3 -63 3 0 59 0 60 -60 0 -60 0 0 55 0 55 118 0 117 0 122 -122 123 -123 2
-190 3 -190 58 -3 57 -3 0 -119 0 -120 75 0 75 0 0 64 c0 36 -4 68 -10 71 -6
4 -10 -18 -10 -60 l0 -66 -52 3 -53 3 -3 113 -3 112 123 0 122 0 58 -57 c57
-57 58 -58 58 -116 l0 -58 -52 3 -53 3 -3 63 c-4 82 -22 71 -22 -14 l0 -64 75
0 75 0 0 60 0 60 60 0 60 0 0 70 0 70 -71 0 c-44 0 -68 -4 -64 -10 3 -6 31
-10 61 -10 l54 0 0 -50 0 -50 -52 0 c-51 0 -55 2 -115 61 l-63 61 0 114 0 114
115 0 115 0 0 -50 0 -50 -60 0 c-33 0 -60 -4 -60 -10 0 -6 30 -10 70 -10 l70
0 0 70 0 70 -125 0 -125 0 0 65 0 65 -187 0 -188 0 -122 121 -123 121 0 119 0
120 52 -3 51 -3 1 -60 1 -60 63 -3 62 -3 0 -59 0 -60 60 0 59 0 3 -63 3 -62
195 0 195 0 0 70 0 70 -62 3 -63 3 0 59 0 60 -60 0 -59 0 -3 62 -3 63 -247 3
-248 2 0 50 0 50 248 2 247 3 3 63 3 62 59 0 60 0 0 60 0 59 63 3 62 3 0 70 0
70 -175 3 c-96 1 -185 0 -197 -3 -21 -5 -23 -11 -23 -65 l0 -60 -60 0 -60 0 0
-60 0 -60 -52 0 c-73 0 -80 -7 -77 -71 l3 -54 -240 -3 -240 -2 -187 187 -187
188 0 148 0 147 180 0 181 0 -3 -147 -3 -148 -112 -3 -113 -3 0 56 0 55 60 0
c33 0 60 4 60 10 0 6 -30 10 -70 10 l-70 0 0 -70 0 -70 130 0 130 0 0 165 0
165 -185 0 -185 0 0 148 0 147 173 173 c95 94 176 172 180 172 4 0 7 -79 7
-175 l0 -175 60 0 60 0 0 -60 0 -60 70 0 69 0 3 58 3 57 63 3 62 3 0 184 0
185 53 0 52 0 0 -182 0 -183 63 -3 62 -3 0 -59 0 -60 70 0 70 0 0 60 0 60 65
0 65 0 0 177 0 177 50 -49 49 -49 3 -125 3 -126 73 -3 72 -3 0 53 0 52 55 -54
c30 -29 58 -51 62 -47 4 4 -17 32 -47 62 l-53 54 49 3 49 3 3 73 3 72 -128 0
-129 0 -49 50 -49 50 175 2 174 3 3 63 3 62 64 0 65 0 0 70 0 70 -65 0 -65 0
0 65 0 65 -185 0 -185 0 0 50 0 50 185 0 185 0 0 65 0 65 65 0 66 0 -3 68 -3
67 -62 3 -62 3 -3 62 -3 62 -173 0 c-94 0 -172 2 -172 5 0 3 22 27 48 53 l48
47 127 0 128 0 -3 73 -3 72 -49 3 -49 3 53 54 c30 30 51 58 47 62 -4 4 -32
-17 -62 -47 l-54 -53 -3 49 -3 49 -70 0 -70 0 -3 -126 -3 -125 -49 -49 -50
-49 0 177 0 177 -65 0 -65 0 0 60 0 60 -70 0 -70 0 0 -60 0 -59 -62 -3 -63 -3
0 -183 0 -182 -52 0 -53 0 0 185 0 184 -62 3 -63 3 -3 58 -3 57 -69 0 -70 0 0
-60z m630 -880 l0 -310 -310 0 -310 0 0 310 0 310 310 0 310 0 0 -310z m-2240
-2245 l0 -315 -310 0 -310 0 0 315 0 315 310 0 310 0 0 -315z"/>
<path d="M4134 3367 c-2 -7 -3 -91 -2 -187 l3 -175 188 -3 187 -2 0 190 0 190
-185 0 c-142 0 -187 -3 -191 -13z"/>
<path d="M1890 945 l0 -185 190 0 190 0 0 185 0 185 -190 0 -190 0 0 -185z"/>
</g>
</svg>
