<?xml version="1.0" standalone="no"?>
<!DOCTYPE svg PUBLIC "-//W3C//DTD SVG 20010904//EN"
 "http://www.w3.org/TR/2001/REC-SVG-20010904/DTD/svg10.dtd">
<svg version="1.0" xmlns="http://www.w3.org/2000/svg"
 width="670.000000pt" height="1280.000000pt" viewBox="0 0 670.000000 1280.000000"
 preserveAspectRatio="xMidYMid meet">
<metadata>
Created by potrace 1.15, written by Peter Selinger 2001-2017
</metadata>
<g transform="translate(0.000000,1280.000000) scale(0.100000,-0.100000)"
fill="#000000" stroke="none">
<path d="M0 12710 l0 -90 3350 0 3350 0 0 90 0 90 -3350 0 -3350 0 0 -90z"/>
<path d="M0 12450 l0 -90 3350 0 3350 0 0 90 0 90 -3350 0 -3350 0 0 -90z"/>
<path d="M0 12225 l0 -45 45 0 45 0 0 -46 0 -45 43 3 c42 3 42 3 45 46 l3 42
-45 0 -46 0 0 45 0 45 -45 0 -45 0 0 -45z"/>
<path d="M530 12225 l0 -45 45 0 45 0 0 -46 0 -45 43 3 c42 3 42 3 45 46 3 42
3 42 43 42 l39 0 0 -45 0 -45 -40 0 -40 0 0 -40 0 -40 40 0 40 0 0 40 0 40 45
0 45 0 0 45 0 45 45 0 45 0 0 45 0 45 -45 0 -45 0 0 -45 0 -45 -45 0 -45 0 0
45 0 45 -40 0 -40 0 0 -45 0 -45 -45 0 -45 0 0 45 0 45 -45 0 -45 0 0 -45z"/>
<path d="M1590 12225 l0 -45 -219 0 -220 0 -3 -42 c-3 -43 -3 -43 -45 -46 -43
-3 -43 -3 -43 -43 l0 -39 -45 0 -45 0 0 -45 0 -45 -45 0 -45 0 0 -45 0 -45
175 0 175 0 0 -45 0 -45 -40 0 -40 0 0 -45 0 -45 -45 0 -45 0 0 45 0 45 -45 0
-45 0 0 -45 0 -45 45 0 45 0 0 -40 0 -40 -45 0 -45 0 0 -45 0 -45 45 0 45 0 0
45 0 45 45 0 45 0 0 -45 0 -45 40 0 40 0 0 45 0 45 -40 0 -40 0 0 40 0 40 40
0 40 0 0 45 0 45 45 0 45 0 0 -175 0 -175 45 0 45 0 0 45 0 45 45 0 45 0 0 45
0 45 45 0 45 0 0 39 c0 39 1 40 40 43 22 2 40 6 40 11 0 4 0 102 0 217 l0 210
-40 0 -40 0 0 45 0 45 39 0 c40 0 40 0 43 -42 3 -43 3 -43 45 -46 l43 -3 2
-217 3 -217 43 -3 c42 -3 42 -3 42 -43 l0 -39 45 0 45 0 0 -45 0 -45 45 0 45
0 0 -46 0 -45 43 3 42 3 3 173 2 172 40 0 c39 0 39 0 42 -42 3 -43 3 -43 46
-46 42 -3 42 -3 42 -42 0 -39 0 -39 -42 -42 -43 -3 -43 -3 -46 -45 l-3 -43 45
0 46 0 0 45 0 45 45 0 45 0 0 -45 0 -45 46 0 45 0 -3 43 c-3 42 -3 42 -45 45
-43 3 -43 3 -43 42 0 39 0 39 43 42 42 3 42 3 45 46 l3 42 -45 0 -46 0 0 -45
0 -45 -45 0 -45 0 0 45 0 45 -45 0 -45 0 0 45 0 45 180 0 180 0 0 45 0 45 -45
0 -45 0 0 45 0 45 -45 0 -45 0 0 39 c0 40 0 40 -42 43 -43 3 -43 3 -46 46 l-3
42 -220 0 -219 0 0 45 0 45 -130 0 -130 0 0 -45z m260 -90 l0 -45 45 0 45 0 0
-40 0 -40 45 0 45 0 0 -44 0 -45 43 -3 c42 -3 42 -3 42 -43 0 -40 0 -40 -42
-43 l-43 -3 0 45 0 46 -45 0 -45 0 0 45 0 45 -45 0 -45 0 0 40 0 40 -45 0 -45
0 0 45 0 45 45 0 45 0 0 -45z m-260 -85 l0 -40 -45 0 -45 0 0 -45 0 -45 -45 0
-45 0 0 -45 0 -45 -45 0 -45 0 0 45 0 45 45 0 45 0 0 45 0 45 45 0 45 0 0 40
0 40 45 0 45 0 0 -40z"/>
<path d="M2470 12225 l0 -45 45 0 45 0 0 -45 0 -45 40 0 40 0 0 -40 0 -40 45
0 45 0 0 40 0 40 45 0 45 0 0 45 0 45 45 0 45 0 0 45 0 45 -45 0 -45 0 0 -45
0 -45 -45 0 -45 0 0 46 0 45 -42 -3 c-43 -3 -43 -3 -43 -43 0 -40 0 -40 43
-43 l42 -3 0 -45 0 -44 -45 0 -45 0 0 45 0 45 -40 0 -40 0 0 45 0 45 -45 0
-45 0 0 -45z"/>
<path d="M3350 12225 l0 -45 -46 0 -45 0 3 -42 c3 -43 3 -43 43 -43 40 0 40 0
43 43 l3 42 45 0 44 0 0 -45 0 -45 45 0 45 0 0 -40 0 -40 -45 0 -45 0 0 -135
0 -135 130 0 130 0 0 -130 0 -130 -129 0 -130 0 -3 43 c-3 42 -3 42 -45 45
l-43 3 0 -45 0 -46 -130 0 -130 0 0 130 0 130 130 0 130 0 0 135 0 135 -45 0
-45 0 0 40 0 40 -45 0 -45 0 0 -40 0 -40 -40 0 -40 0 0 -45 0 -45 -45 0 -45 0
0 -45 0 -45 -45 0 -45 0 0 -45 0 -45 -45 0 -45 0 0 -45 0 -45 -45 0 -45 0 0
-39 c0 -40 0 -40 -42 -43 -43 -3 -43 -3 -46 -45 -3 -43 -3 -43 -43 -43 l-39 0
0 -45 0 -45 -45 0 -45 0 0 -45 0 -45 -45 0 -45 0 0 -45 0 -45 -45 0 -45 0 0
-39 c0 -40 0 -40 -42 -43 -43 -3 -43 -3 -46 -45 -3 -43 -3 -43 -43 -43 l-39 0
0 -45 0 -45 -45 0 -45 0 0 -45 0 -45 -45 0 -45 0 0 -45 0 -45 -45 0 -45 0 0
-40 0 -40 45 0 45 0 0 -45 0 -45 -44 0 -45 0 -3 43 c-3 42 -3 42 -43 42 -40 0
-40 0 -43 -42 -3 -42 -3 -42 -45 -45 -42 -3 -42 -3 -45 -45 -3 -43 -3 -43 -43
-43 l-39 0 0 45 0 45 40 0 c39 0 40 1 40 35 0 19 0 38 0 43 0 8 -5 9 -50 11
-28 1 -30 4 -30 41 l0 40 -45 0 -45 0 0 45 0 45 -45 0 -45 0 0 45 0 45 -45 0
-45 0 0 45 0 45 -45 0 -45 0 0 45 0 45 -40 0 -40 0 0 40 0 40 -45 0 -45 0 0
45 0 45 -45 0 -45 0 0 45 0 45 -45 0 -45 0 0 45 0 45 -45 0 -45 0 0 45 0 45
-40 0 -40 0 0 40 0 40 -45 0 -45 0 0 45 0 45 -45 0 -45 0 0 45 0 45 -45 0 -45
0 0 45 0 45 -45 0 -45 0 0 45 0 45 -46 0 -46 0 4 40 4 40 -43 0 -43 0 0 -40 0
-40 -45 0 -45 0 0 -135 0 -135 -45 0 -45 0 0 -46 0 -45 43 3 c42 3 42 3 45 46
l3 42 130 0 129 0 0 -130 0 -130 -130 0 -130 0 0 -45 0 -45 -45 0 -45 0 0 -45
0 -45 45 0 45 0 0 -45 0 -45 45 0 45 0 0 -40 0 -40 40 0 40 0 0 40 0 40 45 0
45 0 0 -39 c0 -40 0 -40 -42 -43 -43 -3 -43 -3 -46 -45 l-3 -43 45 0 46 0 0
-45 0 -45 45 0 45 0 0 -45 0 -45 45 0 45 0 0 -45 0 -45 45 0 45 0 0 -40 0 -40
45 0 45 0 0 -45 0 -45 40 0 40 0 0 -45 0 -45 -40 0 -40 0 0 -45 0 -45 -45 0
-45 0 0 45 0 45 -45 0 -45 0 0 -45 0 -45 45 0 45 0 0 -45 0 -45 -45 0 -45 0 0
-46 0 -45 -43 3 -42 3 -3 178 -2 178 -43 -3 c-42 -3 -42 -3 -45 -45 -3 -42 -3
-42 -45 -45 -42 -3 -42 -3 -45 -45 -3 -43 -3 -43 -42 -43 -39 0 -39 0 -42 -42
-3 -43 -3 -43 -45 -46 l-43 -3 0 -220 0 -219 -45 0 -45 0 0 -130 0 -130 45 0
45 0 0 -219 0 -220 43 -3 c42 -3 42 -3 45 -45 3 -43 3 -43 42 -43 39 0 39 0
42 -42 3 -43 3 -43 46 -46 l42 -3 0 -45 0 -44 45 0 45 0 0 175 0 175 45 0 45
0 0 -40 0 -40 45 0 45 0 0 -45 0 -45 -45 0 -45 0 0 -45 0 -45 45 0 45 0 0 45
0 45 45 0 45 0 0 -45 0 -45 40 0 40 0 0 -45 0 -45 -40 0 -40 0 0 -45 0 -45
-45 0 -45 0 0 -40 0 -40 -45 0 -45 0 0 -45 0 -45 -45 0 -45 0 0 -45 0 -45 -45
0 -45 0 0 -45 0 -45 -45 0 -45 0 0 -45 0 -45 -40 0 -40 0 0 -40 0 -40 40 0 40
0 0 40 0 40 45 0 45 0 0 -39 c0 -40 0 -40 -42 -43 -43 -3 -43 -3 -46 -45 -3
-43 -3 -43 -42 -43 -39 0 -39 0 -42 43 -3 42 -3 42 -45 45 l-43 3 0 -45 0 -46
-45 0 -45 0 0 -45 0 -45 45 0 45 0 0 -45 0 -45 130 0 130 0 0 -130 0 -130
-130 0 -130 0 0 38 c0 21 -2 41 -4 43 -3 3 -23 3 -45 1 -40 -4 -41 -5 -41 -43
l0 -39 45 0 45 0 0 -135 0 -135 45 0 45 0 0 -45 0 -45 -45 0 -45 0 0 -40 0
-40 -45 0 -45 0 0 -45 0 -45 45 0 45 0 0 45 0 45 45 0 45 0 0 40 0 40 40 0 40
0 0 45 0 45 45 0 45 0 0 45 0 45 45 0 45 0 0 45 0 45 45 0 45 0 0 45 0 45 45
0 45 0 0 38 c0 21 -2 41 -4 43 -3 3 -23 3 -45 1 -40 -4 -41 -5 -41 -43 l0 -39
-45 0 -45 0 0 39 c0 40 0 40 43 43 42 3 42 3 45 46 l3 42 45 0 44 0 0 -46 0
-45 43 3 c42 3 42 3 45 46 3 42 3 42 43 42 l39 0 0 45 0 45 45 0 45 0 0 45 0
45 45 0 45 0 0 45 0 45 45 0 45 0 0 45 0 45 45 0 45 0 0 40 0 40 40 0 40 0 0
45 0 45 45 0 45 0 0 45 0 45 45 0 45 0 0 45 0 45 45 0 45 0 0 45 0 45 45 0 45
0 0 40 c0 40 0 40 38 40 21 0 41 2 43 4 3 3 3 23 1 45 -4 40 -5 41 -43 41
l-39 0 0 45 0 45 40 0 40 0 0 45 0 45 45 0 45 0 0 -44 0 -45 -42 -3 c-43 -3
-43 -3 -43 -43 0 -40 0 -40 42 -43 42 -3 42 -3 45 -45 3 -42 3 -42 46 -45 42
-3 42 -3 42 -43 l0 -39 45 0 45 0 0 -45 0 -45 45 0 45 0 0 -45 0 -45 45 0 45
0 0 -45 0 -45 39 0 c40 0 40 0 43 -42 3 -43 3 -43 46 -46 42 -3 42 -3 42 -43
l0 -39 45 0 45 0 0 -45 0 -45 45 0 45 0 0 -45 0 -45 45 0 45 0 0 -45 0 -45 39
0 c40 0 40 0 43 -42 3 -43 3 -43 45 -46 42 -3 42 -3 45 -45 3 -42 3 -42 46
-45 42 -3 42 -3 42 -43 l0 -39 45 0 45 0 0 -45 0 -45 45 0 45 0 0 -45 0 -45
45 0 45 0 0 -45 0 -45 39 0 c40 0 40 0 43 -42 3 -43 3 -43 46 -46 42 -3 42 -3
42 -43 l0 -39 45 0 45 0 0 -45 0 -45 45 0 45 0 0 45 0 45 45 0 45 0 0 40 0 40
40 0 40 0 0 45 0 45 45 0 45 0 0 45 0 45 45 0 45 0 0 45 0 45 45 0 45 0 0 45
0 45 45 0 45 0 0 38 c0 21 -2 41 -4 43 -3 3 -23 3 -45 1 -40 -4 -41 -5 -41
-43 l0 -39 -46 0 -45 0 3 42 c3 41 3 42 43 42 40 1 40 1 43 44 l3 42 44 0 44
0 3 -42 c3 -43 3 -43 43 -43 40 0 40 0 43 43 3 42 3 42 43 42 l39 0 0 45 0 45
45 0 45 0 0 45 0 45 45 0 45 0 0 45 0 45 45 0 45 0 0 45 0 45 45 0 45 0 0 40
0 40 40 0 40 0 0 45 0 45 45 0 45 0 0 45 0 45 45 0 45 0 0 45 0 45 45 0 45 0
0 45 0 45 45 0 45 0 0 39 c0 40 0 40 43 43 42 3 42 3 45 46 l3 42 -45 0 -46 0
0 44 0 45 43 3 c42 3 42 3 42 43 l0 40 -132 3 -133 3 0 129 0 129 133 3 132 3
0 130 0 130 -42 3 c-42 3 -42 3 -45 45 -3 42 -3 42 -45 45 l-43 3 0 -45 0 -46
-45 0 -45 0 0 -45 0 -45 -45 0 -45 0 0 -45 0 -45 -46 0 -45 0 3 -42 c3 -43 3
-43 46 -46 l42 -3 0 -45 0 -44 -45 0 -45 0 0 45 0 45 -40 0 -40 0 0 -45 0 -45
-45 0 -45 0 0 -40 0 -40 -45 0 -45 0 0 -45 0 -45 -45 0 -45 0 0 -45 0 -45 -45
0 -45 0 0 45 0 45 -40 0 -40 0 0 45 0 45 40 0 40 0 0 40 0 40 -43 0 -43 0 4
-40 4 -40 -46 0 -46 0 0 40 0 40 -45 0 -45 0 0 45 0 45 175 0 175 0 0 45 0 45
-45 0 -45 0 0 45 0 45 -39 0 c-40 0 -40 0 -43 43 -3 42 -3 42 -45 45 -42 3
-42 3 -45 45 l-3 42 -217 3 -218 2 0 40 0 40 218 2 217 3 3 42 c3 42 3 42 45
45 42 3 42 3 45 46 3 42 3 42 42 42 39 0 39 0 42 43 3 42 3 42 46 45 l42 3 0
45 0 44 -175 0 -175 0 0 39 c0 40 0 40 43 43 42 3 42 3 45 45 3 42 3 42 45 45
42 3 42 3 45 46 3 42 3 42 43 42 l39 0 0 45 0 45 45 0 45 0 0 -45 0 -45 45 0
45 0 0 -45 0 -45 45 0 45 0 0 -46 0 -45 43 3 c42 3 42 3 45 46 3 42 3 42 42
42 39 0 39 0 42 -42 3 -43 3 -43 46 -46 42 -3 42 -3 42 -42 0 -39 0 -39 -42
-42 -43 -3 -43 -3 -46 -45 l-3 -43 45 0 46 0 0 -45 0 -45 45 0 45 0 0 -45 0
-45 45 0 45 0 0 -45 0 -45 45 0 45 0 0 -40 0 -40 130 0 130 0 0 -44 0 -45 -42
-3 -43 -3 0 -130 0 -130 133 -3 132 -3 0 -129 0 -130 -135 0 -135 0 0 45 0 45
-38 0 c-21 0 -41 -2 -43 -4 -3 -3 -3 -23 -1 -45 4 -40 5 -41 43 -41 l39 0 0
-45 0 -45 45 0 45 0 0 -45 0 -45 -46 0 -45 0 3 -42 c3 -43 3 -43 46 -46 42 -3
42 -3 42 -43 l0 -39 45 0 45 0 0 -45 0 -45 45 0 45 0 0 -45 0 -45 45 0 45 0 0
-45 0 -45 39 0 c40 0 40 0 43 -42 3 -43 3 -43 46 -46 42 -3 42 -3 42 -43 l0
-39 45 0 45 0 0 -45 0 -45 45 0 45 0 0 -45 0 -45 45 0 45 0 0 -45 0 -45 39 0
c40 0 40 0 43 -42 3 -43 3 -43 45 -46 42 -3 42 -3 45 -45 3 -42 3 -42 43 -42
40 0 40 0 43 43 l3 42 45 0 44 0 0 -46 0 -46 -42 4 -43 3 -3 -43 -3 -42 45 0
46 0 0 -45 0 -45 45 0 45 0 0 -45 0 -45 45 0 45 0 0 -45 0 -45 39 0 c40 0 40
0 43 -42 3 -43 3 -43 46 -46 42 -3 42 -3 42 -43 l0 -39 45 0 45 0 0 40 0 40
-45 0 -45 0 0 45 0 45 45 0 45 0 0 135 0 135 -130 0 -130 0 0 130 0 130 130 0
130 0 0 45 0 45 -45 0 -45 0 0 45 0 45 45 0 45 0 0 45 0 45 -45 0 -45 0 0 40
0 40 -45 0 -45 0 0 45 0 45 -39 0 c-40 0 -40 0 -43 43 -3 42 -3 42 -45 45
l-43 3 0 45 0 44 -45 0 -45 0 0 45 0 45 -45 0 -45 0 0 40 0 40 -45 0 -45 0 0
45 0 45 -45 0 -45 0 0 45 0 45 45 0 45 0 0 45 0 45 45 0 45 0 0 -45 0 -45 45
0 45 0 0 45 0 45 -45 0 -45 0 0 45 0 45 45 0 45 0 0 40 0 40 45 0 45 0 0 -176
0 -175 43 3 c42 3 42 3 45 46 3 42 3 42 42 42 39 0 39 0 42 43 3 42 3 42 46
45 l42 3 0 45 0 44 45 0 45 0 0 220 0 220 -45 0 -45 0 0 45 0 45 45 0 45 0 0
40 0 40 -45 0 -45 0 0 45 0 45 45 0 45 0 0 220 0 220 -45 0 -45 0 0 45 0 45
-45 0 -45 0 0 45 0 45 -39 0 c-40 0 -40 0 -43 43 -3 42 -3 42 -45 45 l-43 3
-2 -178 -3 -178 -42 -3 -43 -3 0 45 0 46 -45 0 -45 0 0 45 0 45 45 0 45 0 0
45 0 45 -45 0 -45 0 0 -45 0 -45 -45 0 -45 0 0 45 0 45 -45 0 -45 0 0 45 0 45
45 0 45 0 0 45 0 45 45 0 45 0 0 40 0 40 45 0 45 0 0 45 0 45 45 0 45 0 0 44
0 45 43 3 c42 3 42 3 42 43 0 40 0 40 -42 43 l-43 3 0 45 0 44 45 0 45 0 0
-45 0 -45 40 0 40 0 0 45 0 45 45 0 45 0 0 40 0 40 45 0 45 0 0 45 0 45 -45 0
-45 0 0 45 0 45 45 0 45 0 0 45 0 45 -130 0 -130 0 0 130 0 130 130 0 130 0 0
135 0 135 -45 0 -45 0 0 40 0 40 45 0 45 0 0 45 0 45 -45 0 -45 0 0 -45 0 -45
-45 0 -45 0 0 -39 c0 -40 0 -40 -42 -43 l-43 -3 3 -42 4 -43 -46 0 -46 0 0
-45 0 -45 -45 0 -45 0 0 -45 0 -45 -45 0 -45 0 0 -45 0 -45 -45 0 -45 0 0 -39
c0 -40 0 -40 -42 -43 -43 -3 -43 -3 -46 -45 -3 -43 -3 -43 -43 -43 l-39 0 0
-45 0 -45 -45 0 -45 0 0 -45 0 -45 -45 0 -45 0 0 -45 0 -45 -45 0 -45 0 0 -39
c0 -40 0 -40 -42 -43 -43 -3 -43 -3 -46 -45 -3 -43 -3 -43 -43 -43 l-39 0 0
-45 0 -45 -45 0 -45 0 0 -45 0 -45 -45 0 -45 0 0 -45 0 -45 -45 0 -45 0 0 -40
c0 -37 -2 -40 -30 -41 -16 -1 -36 -2 -42 -3 -8 0 -14 -19 -16 -43 -3 -43 -3
-43 -42 -43 -39 0 -39 0 -42 43 -3 42 -3 42 -45 45 -43 3 -43 3 -43 43 l0 39
-45 0 -45 0 0 45 0 45 -45 0 -45 0 0 45 0 45 -45 0 -45 0 0 46 0 45 -42 -3
c-43 -3 -43 -3 -46 -45 -3 -43 -3 -43 -43 -43 l-39 0 0 45 0 45 40 0 40 0 0
45 0 45 -40 0 -40 0 0 40 0 40 -45 0 -45 0 0 45 0 45 -45 0 -45 0 0 45 0 45
-45 0 -45 0 0 45 0 45 -45 0 -45 0 0 45 0 45 -40 0 -40 0 0 40 0 40 -45 0 -45
0 0 45 0 45 -45 0 -45 0 0 45 0 45 -45 0 -45 0 0 45 0 45 -45 0 -45 0 0 45 0
45 -45 0 -45 0 0 40 0 40 -40 0 -40 0 0 45 0 45 -45 0 -45 0 0 45 0 45 -45 0
-45 0 0 -45z m-3090 -260 l0 -45 45 0 45 0 0 -45 0 -45 45 0 45 0 0 -45 0 -45
45 0 45 0 0 -45 0 -45 45 0 45 0 0 -40 0 -40 45 0 45 0 0 -45 0 -45 40 0 40 0
0 -45 0 -45 45 0 45 0 0 -45 0 -45 45 0 45 0 0 -45 0 -45 45 0 45 0 0 -40 0
-40 45 0 45 0 0 -45 0 -45 40 0 40 0 0 -45 0 -45 45 0 45 0 0 -45 0 -45 45 0
45 0 0 -45 0 -45 45 0 45 0 0 -40 0 -40 45 0 45 0 0 -45 0 -45 -44 0 -45 0 -3
43 c-3 42 -3 42 -43 42 l-40 0 -3 -132 -3 -133 131 0 130 0 0 45 0 45 45 0 45
0 0 45 0 45 45 0 45 0 0 -45 0 -45 -45 0 -45 0 0 -45 0 -45 135 0 136 0 -3
133 -3 132 -42 3 c-43 3 -43 3 -43 43 l0 39 45 0 45 0 0 45 0 45 45 0 45 0 0
45 0 45 40 0 40 0 0 45 0 45 45 0 45 0 0 45 0 45 45 0 45 0 0 40 0 40 45 0 45
0 0 45 0 45 45 0 45 0 0 44 0 45 42 3 43 3 -3 43 -4 42 46 0 46 0 0 45 0 45
45 0 45 0 0 40 0 40 45 0 45 0 0 45 0 45 45 0 45 0 0 45 0 45 45 0 45 0 0 45
0 45 40 0 40 0 0 45 0 45 45 0 45 0 0 -45 0 -45 -45 0 -45 0 0 -45 0 -45 -40
0 -40 0 0 -45 0 -45 -44 0 -45 0 -3 -42 c-3 -43 -3 -43 -45 -46 -43 -3 -43 -3
-43 -43 l0 -39 -45 0 -45 0 0 -45 0 -45 135 0 135 0 0 -135 0 -135 40 0 40 0
0 45 0 45 45 0 45 0 0 45 0 45 45 0 45 0 0 45 0 45 45 0 45 0 0 -45 0 -45 45
0 45 0 0 -45 0 -45 40 0 40 0 0 -45 0 -45 45 0 45 0 0 135 0 135 135 0 135 0
0 45 0 45 -45 0 -45 0 0 39 c0 40 0 40 -42 43 -43 3 -43 3 -46 46 l-3 42 -45
0 -44 0 0 44 0 45 -42 3 c-43 3 -43 3 -46 46 -3 42 -3 42 -43 42 l-39 0 0 45
0 45 40 0 40 0 0 -45 0 -45 45 0 45 0 0 -45 0 -45 45 0 45 0 0 -45 0 -45 45 0
45 0 0 -45 0 -45 45 0 45 0 0 -40 0 -40 45 0 45 0 0 -45 0 -45 40 0 40 0 0
-45 0 -45 45 0 45 0 0 -45 0 -45 45 0 45 0 0 -45 0 -45 45 0 45 0 0 -40 0 -40
45 0 45 0 0 -45 0 -45 -45 0 -45 0 0 45 0 45 -45 0 -45 0 0 40 0 40 -45 0 -45
0 0 -130 0 -130 135 0 135 0 0 -130 0 -130 130 0 130 0 0 40 0 40 -45 0 -45 0
0 44 0 45 -42 3 c-43 3 -43 3 -46 46 l-3 42 45 0 46 0 0 -45 0 -45 45 0 45 0
0 -45 0 -45 45 0 45 0 0 -40 0 -40 45 0 45 0 0 -45 0 -45 45 0 45 0 0 -45 0
-45 40 0 40 0 0 45 0 45 45 0 45 0 0 45 0 45 45 0 45 0 0 40 0 40 45 0 45 0 0
45 0 45 45 0 45 0 0 45 0 45 40 0 40 0 0 45 0 45 45 0 45 0 0 45 0 45 45 0 45
0 0 40 0 40 45 0 45 0 0 45 0 45 45 0 45 0 0 45 0 45 40 0 40 0 0 45 0 45 45
0 45 0 0 45 0 45 45 0 45 0 0 40 0 40 45 0 45 0 0 45 0 45 45 0 45 0 0 45 0
45 45 0 45 0 0 45 0 45 40 0 40 0 0 45 0 45 45 0 45 0 0 -45 0 -45 -45 0 -45
0 0 -45 0 -45 -40 0 -40 0 0 -45 0 -45 -44 0 -45 0 -3 -42 c-3 -43 -3 -43 -45
-46 -43 -3 -43 -3 -43 -43 l0 -39 -45 0 -45 0 0 -45 0 -45 135 0 135 0 0 -135
0 -135 40 0 40 0 0 45 0 45 45 0 45 0 0 -45 0 -45 -45 0 -45 0 0 -40 0 -40
-40 0 -40 0 0 40 0 40 -135 0 -135 0 0 -130 0 -130 45 0 45 0 0 45 0 45 45 0
45 0 0 -45 0 -45 -45 0 -45 0 0 -45 0 -45 -45 0 -45 0 0 -45 0 -45 -45 0 -45
0 0 -39 c0 -40 0 -40 -42 -43 -43 -3 -43 -3 -46 -45 -3 -43 -3 -43 -43 -43
l-39 0 0 -45 0 -45 39 0 c40 0 40 0 43 -42 3 -43 3 -43 46 -46 l42 -3 0 -45 0
-44 44 0 45 0 3 -42 c3 -43 3 -43 46 -46 42 -3 42 -3 42 -43 l0 -39 -175 0
-175 0 0 -45 0 -45 40 0 40 0 0 -45 0 -45 45 0 45 0 0 -45 0 -45 45 0 45 0 0
-45 0 -45 220 0 220 0 0 -40 0 -40 -217 -2 -218 -3 -3 -42 c-3 -42 -3 -42 -45
-45 -42 -3 -42 -3 -45 -45 -3 -42 -3 -42 -45 -45 -42 -3 -42 -3 -45 -45 -3
-43 -3 -43 -43 -43 l-39 0 0 -45 0 -45 175 0 175 0 0 -45 0 -45 -45 0 -45 0 0
-40 0 -40 -45 0 -45 0 0 -44 0 -45 -42 -3 c-43 -3 -43 -3 -46 -45 -3 -43 -3
-43 -43 -43 l-39 0 0 -45 0 -45 40 0 40 0 0 -45 0 -45 45 0 45 0 0 -40 0 -40
45 0 45 0 0 -45 0 -45 45 0 45 0 0 -45 0 -45 45 0 45 0 0 -45 0 -45 45 0 45 0
0 -45 0 -45 40 0 40 0 0 -40 0 -40 45 0 45 0 0 -45 0 -45 -45 0 -45 0 0 45 0
45 -40 0 -40 0 0 -135 0 -135 -135 0 -135 0 0 -45 0 -45 -45 0 -45 0 0 45 0
45 -45 0 -45 0 0 45 0 45 -40 0 -40 0 0 45 0 45 -45 0 -45 0 0 45 0 45 -45 0
-45 0 0 40 0 40 -45 0 -45 0 0 45 0 45 -45 0 -45 0 0 45 0 45 -40 0 -40 0 0
45 0 45 -45 0 -45 0 0 45 0 45 -45 0 -45 0 0 40 0 40 -45 0 -45 0 0 45 0 45
45 0 45 0 0 -45 0 -45 45 0 45 0 0 135 0 135 130 0 130 0 0 45 0 45 -45 0 -45
0 0 40 0 40 -40 0 -40 0 0 45 0 45 -45 0 -45 0 0 45 0 45 -45 0 -45 0 0 45 0
45 -45 0 -45 0 0 45 0 45 46 0 45 0 -3 43 c-3 42 -3 42 -45 45 -43 3 -43 3
-43 43 l0 39 -130 0 -130 0 0 45 0 45 -45 0 -45 0 0 45 0 45 -45 0 -45 0 0 45
0 45 -45 0 -45 0 0 45 0 45 45 0 45 0 0 130 0 130 -130 0 -130 0 0 -45 0 -45
-45 0 -45 0 0 45 0 45 -45 0 -45 0 0 45 0 45 -45 0 -45 0 0 45 0 45 -45 0 -45
0 0 -44 0 -45 -42 -3 -43 -3 3 -42 4 -43 -46 0 -46 0 0 -45 0 -45 -45 0 -45 0
0 -46 0 -45 -43 3 -42 3 -3 178 -2 178 -43 -3 c-42 -3 -42 -3 -45 -45 -3 -42
-3 -42 -45 -45 -42 -3 -42 -3 -45 -45 -3 -43 -3 -43 -42 -43 -39 0 -39 0 -42
-42 -3 -43 -3 -43 -45 -46 l-43 -3 0 -220 0 -219 45 0 45 0 0 45 0 45 39 0
c40 0 40 0 43 43 3 42 3 42 45 45 42 3 42 3 45 45 3 42 3 42 46 45 l42 3 0
-45 0 -46 -45 0 -45 0 0 -45 0 -45 -45 0 -45 0 0 -45 0 -45 -40 0 -40 0 0 -45
0 -45 -45 0 -45 0 0 45 0 45 -45 0 -45 0 0 -45 0 -45 -45 0 -45 0 0 -39 c0
-40 0 -40 43 -43 42 -3 42 -3 45 -45 l3 -43 45 0 44 0 0 45 0 45 45 0 45 0 0
-45 0 -45 40 0 40 0 0 -45 0 -45 45 0 45 0 0 -45 0 -45 45 0 45 0 0 -46 0 -45
-43 3 c-42 3 -42 3 -45 45 -3 42 -3 42 -45 45 -42 3 -42 3 -45 46 -3 42 -3 42
-43 42 l-39 0 0 45 0 45 -45 0 -45 0 0 -219 0 -220 43 -3 c42 -3 42 -3 45 -45
3 -43 3 -43 42 -43 39 0 39 0 42 -42 3 -43 3 -43 46 -46 l42 -3 0 -45 0 -44
45 0 45 0 0 175 0 175 45 0 45 0 0 -40 0 -40 45 0 45 0 0 -45 0 -45 46 0 46 0
-4 -42 -3 -43 43 -3 42 -3 0 -45 0 -44 45 0 45 0 0 45 0 45 45 0 45 0 0 45 0
45 45 0 45 0 0 45 0 45 45 0 45 0 0 40 0 40 40 0 40 0 0 -40 0 -40 -40 0 -40
0 0 -45 0 -45 130 0 130 0 0 -135 0 -135 45 0 45 0 0 45 0 45 45 0 45 0 0 -45
0 -45 -45 0 -45 0 0 -40 0 -40 -45 0 -45 0 0 -45 0 -45 -45 0 -45 0 0 -45 0
-45 -45 0 -45 0 0 -45 0 -45 -40 0 -40 0 0 -45 0 -45 -45 0 -45 0 0 -40 0 -40
-45 0 -45 0 0 -45 0 -45 -45 0 -45 0 0 -45 0 -45 -45 0 -45 0 0 -45 0 -45 -40
0 -40 0 0 -45 0 -45 -45 0 -45 0 0 45 0 45 -135 0 -135 0 0 -130 0 -130 45 0
45 0 0 -45 0 -45 -45 0 -45 0 0 -45 0 -45 -45 0 -45 0 0 -45 0 -45 -40 0 -40
0 0 -45 0 -45 -45 0 -45 0 0 -40 0 -40 -45 0 -45 0 0 40 0 40 -45 0 -45 0 0
45 0 45 -45 0 -45 0 0 45 0 45 -40 0 -40 0 0 45 0 45 -45 0 -45 0 0 45 0 45
-44 0 -45 0 -3 42 -3 43 -42 -3 -43 -4 0 46 0 46 -45 0 -45 0 0 45 0 45 -46 0
-46 0 4 43 3 42 -43 3 -42 3 0 45 0 44 -45 0 -45 0 0 45 0 45 -45 0 -45 0 0
40 0 40 -45 0 -45 0 0 45 0 45 -45 0 -45 0 0 45 0 45 -40 0 -40 0 0 45 0 45
40 0 40 0 0 -45 0 -45 45 0 45 0 0 130 0 130 -130 0 -130 0 0 -40 0 -40 -45 0
-45 0 0 40 0 40 -45 0 -45 0 0 45 0 45 -45 0 -45 0 0 45 0 45 45 0 45 0 0 -45
0 -45 45 0 45 0 0 -45 0 -45 45 0 45 0 0 135 0 135 -135 0 -135 0 0 46 0 45
-42 -3 c-43 -3 -43 -3 -46 -45 l-3 -43 -130 0 -129 0 0 -135 0 -135 45 0 45 0
0 45 0 45 45 0 45 0 0 -45 0 -45 -45 0 -45 0 0 -40 0 -40 -45 0 -45 0 0 -45 0
-45 -45 0 -45 0 0 -45 0 -45 -45 0 -45 0 0 -45 0 -45 -40 0 -40 0 0 -45 0 -45
-45 0 -45 0 0 -40 0 -40 -45 0 -45 0 0 -45 0 -45 -45 0 -45 0 0 -45 0 -45 -45
0 -45 0 0 -45 0 -45 -40 0 -40 0 0 -45 0 -45 -45 0 -45 0 0 45 0 45 -135 0
-135 0 0 135 0 135 135 0 135 0 0 130 0 130 -45 0 -45 0 0 -45 0 -45 -45 0
-45 0 0 -45 0 -45 -45 0 -45 0 0 45 0 45 45 0 45 0 0 45 0 45 45 0 45 0 0 45
0 45 45 0 45 0 0 45 0 45 45 0 45 0 0 40 0 40 40 0 40 0 0 45 0 45 45 0 45 0
0 45 0 45 -45 0 -45 0 0 45 0 45 -40 0 -40 0 0 45 0 45 -45 0 -45 0 0 40 0 40
-45 0 -45 0 0 45 0 45 175 0 175 0 0 45 0 45 -45 0 -45 0 0 45 0 45 -39 0
c-40 0 -40 0 -43 43 -3 42 -3 42 -45 45 -42 3 -42 3 -45 45 l-3 42 -217 3
-218 2 0 -44 0 -45 42 -3 43 -3 -3 -42 -4 -43 46 0 46 0 0 -45 0 -45 45 0 45
0 0 -46 0 -45 -42 3 c-43 3 -43 3 -46 45 -3 42 -3 42 -45 45 -42 3 -42 3 -45
46 -3 42 -3 42 -43 42 l-39 0 0 45 0 45 -45 0 -45 0 0 45 0 45 45 0 45 0 0 40
0 40 -45 0 -45 0 0 45 0 45 45 0 45 0 0 45 0 45 39 0 c40 0 40 0 43 43 3 42 3
42 45 45 42 3 42 3 45 45 3 42 3 42 46 45 l42 3 0 -45 0 -46 -45 0 -45 0 0
-45 0 -45 -45 0 -45 0 0 -45 0 -45 -40 0 -40 0 0 -45 0 -45 218 2 217 3 3 42
c3 42 3 42 45 45 42 3 42 3 45 46 3 42 3 42 42 42 39 0 39 0 42 43 3 42 3 42
46 45 l42 3 0 45 0 44 -175 0 -175 0 0 39 c0 40 0 40 43 43 42 3 42 3 45 46
l3 42 45 0 44 0 0 45 0 45 40 0 40 0 0 45 0 45 45 0 45 0 0 45 0 45 -45 0 -45
0 0 45 0 45 -40 0 -40 0 0 40 0 40 -45 0 -45 0 0 45 0 45 -45 0 -45 0 0 45 0
45 -45 0 -45 0 0 45 0 45 -45 0 -45 0 0 45 0 45 45 0 45 0 0 -45 0 -45 45 0
45 0 0 -45 0 -45 45 0 45 0 0 130 0 130 -135 0 -135 0 0 135 0 135 135 0 135
0 0 45 0 45 -45 0 -45 0 0 40 0 40 -45 0 -45 0 0 45 0 45 -45 0 -45 0 0 44 0
45 -42 3 c-43 3 -43 3 -46 46 -3 42 -3 42 -43 42 l-39 0 0 45 0 45 40 0 40 0
0 -45z m-80 -620 l0 -45 40 0 40 0 0 -45 0 -45 -40 0 -40 0 0 45 0 45 -45 0
-45 0 0 45 0 45 45 0 45 0 0 -45z m6258 -1232 c3 -43 3 -43 43 -43 l39 0 0
-45 0 -45 45 0 45 0 0 -46 0 -45 -42 3 c-43 3 -43 3 -46 46 -3 42 -3 42 -43
42 l-39 0 0 45 0 45 -45 0 -45 0 0 46 0 45 43 -3 c42 -3 42 -3 45 -45z m-1498
-528 l0 -45 -45 0 -45 0 0 -45 0 -45 -45 0 -45 0 0 -45 0 -45 -45 0 -45 0 0
45 0 45 45 0 45 0 0 45 0 45 45 0 45 0 0 45 0 45 45 0 45 0 0 -45z m1670 0 l0
-45 -45 0 -45 0 0 -45 0 -45 -39 0 c-40 0 -40 0 -43 -42 -3 -43 -3 -43 -45
-46 l-43 -3 0 45 0 46 45 0 45 0 0 45 0 45 40 0 c40 0 40 0 40 38 0 21 3 42 7
45 3 4 24 7 45 7 l38 0 0 -45z m-6430 -1410 l0 -45 -45 0 -45 0 0 45 0 45 45
0 45 0 0 -45z m6170 -356 l0 -39 45 0 45 0 0 -45 0 -45 40 0 40 0 0 -45 0 -45
45 0 45 0 0 -45 0 -45 -45 0 -45 0 0 45 0 45 -40 0 -40 0 0 45 0 45 -45 0 -45
0 0 45 0 45 -45 0 -45 0 0 39 c0 39 1 40 38 43 50 4 52 3 52 -43z m-5910 -84
l0 -45 -45 0 -45 0 0 -45 0 -45 -45 0 -45 0 0 -45 0 -45 -40 0 -40 0 0 45 0
45 39 0 c40 0 40 0 43 43 3 42 3 42 46 45 l42 3 0 45 0 44 45 0 45 0 0 -45z"/>
<path d="M620 11345 l0 -135 130 0 130 0 0 -130 0 -130 -130 0 -130 0 0 -45 0
-45 45 0 45 0 0 -45 0 -45 40 0 40 0 0 -40 0 -40 45 0 45 0 0 130 0 130 135 0
135 0 0 -130 0 -130 130 0 130 0 0 40 0 40 -45 0 -45 0 0 45 0 45 -45 0 -45 0
0 45 0 45 -40 0 -40 0 0 45 0 45 -45 0 -45 0 0 45 0 45 -45 0 -45 0 0 40 0 40
-45 0 -45 0 0 45 0 45 -45 0 -45 0 0 45 0 45 -40 0 -40 0 0 45 0 45 -45 0 -45
0 0 -135z"/>
<path d="M2730 11436 l0 -45 -42 -3 c-43 -3 -43 -3 -44 -43 0 -40 -1 -40 -42
-43 l-42 -3 0 -45 0 -44 -45 0 -45 0 0 -40 0 -40 -45 0 -45 0 0 -45 0 -45 -45
0 -45 0 0 -45 0 -45 -45 0 -45 0 0 -45 0 -45 -39 0 c-40 0 -40 0 -43 -42 -3
-43 -3 -43 -45 -46 -43 -3 -43 -3 -43 -43 l0 -39 130 0 130 0 0 130 0 130 135
0 135 0 0 -130 0 -130 40 0 c38 0 40 1 41 33 1 17 1 35 0 40 0 4 19 7 44 7
l45 0 0 -39 c0 -40 0 -40 -42 -43 -43 -3 -43 -3 -46 -45 -3 -43 -3 -43 -42
-43 -39 0 -39 0 -42 43 l-3 42 -130 0 -130 0 -3 -132 -3 -133 -129 0 -130 0 0
-130 0 -130 -135 0 -135 0 0 40 0 40 -45 0 -45 0 0 -40 0 -40 -130 0 -130 0 0
130 0 130 -130 0 -129 0 -3 133 -3 132 -130 0 -130 0 -3 -42 -3 -43 45 0 46 0
0 -45 0 -45 -45 0 -45 0 0 -45 0 -45 45 0 45 0 0 -45 0 -45 45 0 45 0 0 -45 0
-45 45 0 45 0 0 -40 0 -40 40 0 40 0 0 -45 0 -45 45 0 45 0 0 -45 0 -45 45 0
45 0 0 -45 0 -45 45 0 45 0 0 -45 0 -45 45 0 45 0 0 -40 0 -40 -45 0 -45 0 0
-45 0 -45 -45 0 -45 0 0 -45 0 -45 -45 0 -45 0 0 -45 0 -45 -45 0 -45 0 0 -45
0 -45 -40 0 -40 0 0 -45 0 -45 -45 0 -45 0 0 -40 0 -40 -45 0 -45 0 0 -45 0
-45 -45 0 -45 0 0 -45 0 -45 45 0 45 0 0 -45 0 -45 -45 0 -45 0 0 -45 0 -45
-45 0 -45 0 0 -40 0 -40 -40 0 -40 0 0 -45 0 -45 -45 0 -45 0 0 -45 0 -45 130
0 130 0 0 -130 0 -130 -130 0 -130 0 0 -135 0 -135 45 0 45 0 0 45 0 45 39 0
c40 0 40 0 43 43 3 42 3 42 46 45 l42 3 0 45 0 44 45 0 45 0 0 40 0 40 45 0
45 0 0 45 0 45 45 0 45 0 0 45 0 45 39 0 c40 0 40 0 43 43 3 42 3 42 45 45 42
3 42 3 45 45 3 42 3 42 46 45 42 3 42 3 42 43 l0 39 -130 0 -130 0 0 135 0
135 130 0 130 0 0 130 0 129 131 3 130 3 0 130 0 130 -40 3 -41 3 0 45 0 44
130 0 130 0 0 -44 0 -45 -42 -3 -43 -3 0 -130 0 -130 133 -3 132 -3 0 -129 0
-130 130 0 130 0 0 -135 0 -135 135 0 135 0 0 -130 0 -130 -135 0 -135 0 0
-45 0 -45 45 0 45 0 0 -45 0 -45 45 0 45 0 0 -40 0 -40 45 0 45 0 0 -44 0 -45
42 -3 c41 -3 42 -3 42 -43 1 -40 1 -40 44 -43 l42 -3 0 -45 0 -44 45 0 45 0 0
-45 0 -45 44 0 45 0 3 -42 c3 -43 3 -43 43 -44 40 0 40 -1 43 -42 l3 -42 45 0
44 0 0 -45 0 -45 40 0 40 0 0 -45 0 -45 45 0 45 0 0 -45 0 -45 45 0 45 0 0
135 0 135 45 0 45 0 0 -135 0 -135 45 0 45 0 0 45 0 45 39 0 c40 0 40 0 43 43
3 42 3 42 46 45 l42 3 0 45 0 44 -129 0 -130 0 -3 42 c-3 41 -3 41 -43 41 -40
0 -40 0 -43 -41 l-3 -42 -130 0 -129 0 0 130 0 130 130 0 130 0 0 45 0 45 45
0 45 0 0 -45 0 -45 130 0 130 0 0 135 0 135 135 0 135 0 0 -136 0 -135 43 3
c42 3 42 3 43 43 0 40 1 40 42 43 40 3 41 4 44 45 3 42 3 42 46 45 l42 3 0 45
0 44 45 0 45 0 0 40 0 40 45 0 45 0 0 45 0 45 45 0 45 0 0 45 0 45 39 0 c40 0
40 0 43 43 3 42 3 42 45 45 42 3 42 3 45 45 3 42 3 42 46 45 42 3 42 3 42 43
l0 39 -130 0 -130 0 0 135 0 135 -45 0 -45 0 0 -45 0 -45 -45 0 -45 0 0 -45 0
-45 -45 0 -45 0 0 -45 0 -45 -45 0 -45 0 0 45 0 45 -40 0 -40 0 0 -45 0 -45
-45 0 -45 0 0 -40 0 -40 -45 0 -45 0 0 -45 0 -45 -45 0 -45 0 0 -45 0 -45 -45
0 -45 0 0 -45 0 -45 -45 0 -45 0 0 -45 0 -45 -40 0 -40 0 0 -40 0 -40 -45 0
-45 0 0 -45 0 -45 -44 0 -45 0 -3 43 c-3 42 -3 42 -45 45 -43 3 -43 3 -43 43
l0 39 -45 0 -45 0 0 45 0 45 -39 0 c-40 0 -40 0 -43 43 -3 42 -3 42 -45 45
l-43 3 0 45 0 44 -45 0 -45 0 0 45 0 45 -45 0 -45 0 0 40 0 40 -45 0 -45 0 0
45 0 45 -46 0 -46 0 4 43 3 42 -43 3 -42 3 0 45 0 44 -45 0 -45 0 0 45 0 45
-45 0 -45 0 0 40 0 40 -45 0 -45 0 0 45 0 45 -45 0 -45 0 0 45 0 45 -39 0
c-40 0 -40 0 -43 43 -3 42 -3 42 -45 45 l-43 3 0 45 0 44 -44 0 -45 0 -3 43
c-3 42 -3 42 -45 45 -43 3 -43 3 -43 43 l0 39 45 0 45 0 0 45 0 45 45 0 45 0
0 45 0 45 45 0 45 0 0 45 0 45 40 0 40 0 0 45 0 45 45 0 45 0 0 40 0 40 45 0
45 0 0 45 0 45 45 0 45 0 0 45 0 45 45 0 45 0 0 44 0 45 42 3 43 3 -3 43 -4
42 46 0 46 0 0 45 0 45 45 0 45 0 0 40 0 40 45 0 45 0 0 45 0 45 45 0 45 0 0
45 0 45 45 0 45 0 0 45 0 45 40 0 40 0 0 45 0 45 45 0 45 0 0 40 0 40 45 0 45
0 0 45 0 45 45 0 45 0 0 -45 0 -45 45 0 45 0 0 -40 0 -40 40 0 40 0 0 -45 0
-45 45 0 45 0 0 -45 0 -45 45 0 45 0 0 -45 0 -45 45 0 45 0 0 -45 0 -45 45 0
45 0 0 -43 0 -42 46 4 46 3 -3 -46 -4 -46 42 0 43 0 0 45 0 45 45 0 45 0 0
130 0 130 -130 0 -130 0 0 130 0 130 130 0 130 0 0 44 0 45 -42 3 c-43 3 -43
3 -46 45 -3 41 -4 42 -44 45 -41 3 -42 3 -42 43 -1 40 -1 40 -43 43 l-43 3 0
-135 0 -136 -135 0 -135 0 0 -40 0 -40 -45 0 -45 0 0 40 0 40 -40 0 -40 0 0
45 0 45 -45 0 -45 0 0 45 0 45 -45 0 -45 0 0 -45 0 -45 -45 0 -45 0 0 -45 0
-45 -45 0 -45 0 0 -40 0 -40 -40 0 -40 0 0 40 0 40 -135 0 -135 0 0 135 0 135
-45 0 -45 0 0 -44z m90 -356 l0 -130 45 0 45 0 0 45 0 45 45 0 45 0 0 45 0 45
45 0 45 0 0 -45 0 -45 -45 0 -45 0 0 -45 0 -45 -45 0 -45 0 0 -45 0 -45 -45 0
-45 0 0 -45 0 -45 -45 0 -45 0 0 45 0 45 45 0 45 0 0 45 0 45 -130 0 -130 0 0
130 0 130 130 0 130 0 0 -130z m970 5 l0 -45 45 0 45 0 0 -45 0 -45 45 0 45 0
0 -45 0 -45 -45 0 -45 0 0 45 0 45 -45 0 -45 0 0 45 0 45 -45 0 -45 0 0 45 0
45 45 0 45 0 0 -45z m350 -355 c0 -40 0 -40 -39 -40 -38 0 -39 1 -43 40 l-4
40 43 0 43 0 0 -40z m-1580 -175 l0 -45 -45 0 -45 0 0 -45 0 -45 -45 0 -45 0
0 -45 0 -45 -45 0 -45 0 0 -45 0 -45 -45 0 -45 0 0 -40 0 -40 -40 0 -40 0 0
-45 0 -45 -45 0 -45 0 0 -45 0 -45 -45 0 -45 0 0 -45 0 -45 -45 0 -45 0 0 -45
0 -45 -130 0 -130 0 0 45 0 45 -45 0 -45 0 0 45 0 45 -45 0 -45 0 0 45 0 45
-45 0 -45 0 0 45 0 45 -45 0 -45 0 0 40 0 40 -40 0 -40 0 0 45 0 45 -45 0 -45
0 0 45 0 45 -45 0 -45 0 0 45 0 45 45 0 45 0 0 -45 0 -45 45 0 45 0 0 -45 0
-45 40 0 40 0 0 -45 0 -45 45 0 45 0 0 -40 0 -40 45 0 45 0 0 -45 0 -45 45 0
45 0 0 -45 0 -45 45 0 45 0 0 -46 0 -45 41 3 41 3 -1 133 -2 132 46 0 45 0 0
-135 0 -135 45 0 45 0 0 45 0 45 45 0 45 0 0 45 0 45 45 0 45 0 0 45 0 45 45
0 45 0 0 40 0 40 40 0 40 0 0 45 0 45 45 0 45 0 0 45 0 45 45 0 45 0 0 45 0
45 45 0 45 0 0 45 0 45 45 0 45 0 0 -45z m-970 -970 l0 -45 -45 0 -45 0 0 -45
0 -45 -45 0 -45 0 0 -45 0 -45 -45 0 -45 0 0 -45 0 -45 -45 0 -45 0 0 -40 0
-40 -40 0 -40 0 0 -45 0 -45 -45 0 -45 0 0 -45 0 -45 -45 0 -45 0 0 45 0 45
45 0 45 0 0 45 0 45 45 0 45 0 0 40 0 40 40 0 40 0 0 45 0 45 45 0 45 0 0 45
0 45 45 0 45 0 0 45 0 45 45 0 45 0 0 45 0 45 45 0 45 0 0 -45z m350 0 l0 -45
45 0 45 0 0 -45 0 -45 45 0 45 0 0 -45 0 -45 39 0 c40 0 40 0 43 -42 3 -43 3
-43 46 -46 42 -3 42 -3 42 -43 l0 -39 45 0 45 0 0 -45 0 -45 45 0 45 0 0 -45
0 -45 45 0 45 0 0 -45 0 -45 39 0 c40 0 40 0 43 -42 3 -43 3 -43 46 -46 42 -3
42 -3 42 -43 l0 -39 45 0 45 0 0 -45 0 -45 45 0 45 0 0 -45 0 -45 45 0 45 0 0
-45 0 -45 45 0 45 0 0 -45 0 -45 40 0 40 0 0 -40 0 -40 45 0 45 0 0 -45 0 -45
45 0 45 0 0 -45 0 -45 -45 0 -45 0 0 45 0 45 -45 0 -45 0 0 45 0 45 -40 0 -40
0 0 -135 0 -135 -135 0 -135 0 0 135 0 135 -130 0 -130 0 0 130 0 130 130 0
130 0 0 45 0 45 -45 0 -45 0 0 45 0 45 -45 0 c-25 0 -44 3 -44 8 1 4 1 22 0
40 -1 31 -3 32 -41 32 l-40 0 0 45 0 45 -45 0 -45 0 0 45 0 45 -45 0 -45 0 0
45 0 45 -45 0 -45 0 0 45 0 45 -45 0 -45 0 0 40 0 40 -40 0 -40 0 0 45 0 45
-45 0 -45 0 0 45 0 45 -45 0 -45 0 0 45 0 45 -45 0 -45 0 0 45 0 45 45 0 45 0
0 -45z m-790 -885 l0 -130 -135 0 -135 0 0 130 0 130 135 0 135 0 0 -130z
m2990 90 l0 -40 -40 0 -40 0 0 -45 0 -45 -45 0 -45 0 0 -45 0 -45 130 0 130 0
0 130 0 130 135 0 135 0 0 -130 0 -130 -135 0 -135 0 0 -130 0 -130 -130 0
-130 0 0 130 0 130 -45 0 -45 0 0 -45 0 -45 -45 0 -45 0 0 -45 0 -45 -45 0
-45 0 0 -39 c0 -40 0 -40 -42 -43 -43 -3 -43 -3 -46 -45 -3 -43 -3 -43 -43
-43 l-39 0 0 -45 0 -45 -45 0 -45 0 0 45 0 45 45 0 45 0 0 45 0 45 40 0 40 0
0 40 0 40 45 0 45 0 0 45 0 45 45 0 45 0 0 45 0 45 45 0 45 0 0 45 0 45 45 0
45 0 0 45 0 45 45 0 45 0 0 40 0 40 40 0 40 0 0 -40z"/>
<path d="M2647 11123 c-4 -3 -7 -24 -7 -45 l0 -38 45 0 45 0 0 45 0 45 -38 0
c-21 0 -42 -3 -45 -7z"/>
<path d="M2820 8440 l0 -130 135 0 135 0 0 40 0 40 -45 0 -45 0 0 45 0 45 -45
0 -45 0 0 45 0 45 -45 0 -45 0 0 -130z"/>
<path d="M2642 8438 c3 -43 3 -43 46 -46 l42 -3 0 45 0 46 -46 0 -45 0 3 -42z"/>
<path d="M2910 8176 l0 -46 46 0 45 0 -3 43 c-3 42 -3 42 -45 45 l-43 3 0 -45z"/>
<path d="M970 8706 l0 -46 46 0 45 0 -3 43 c-3 42 -3 42 -45 45 l-43 3 0 -45z"/>
<path d="M4320 8706 l0 -46 46 0 45 0 -3 43 c-3 42 -3 42 -45 45 l-43 3 0 -45z"/>
<path d="M4058 8439 c-2 -22 -2 -42 1 -45 2 -2 22 -4 43 -4 l38 0 0 45 0 45
-39 0 c-38 0 -39 -1 -43 -41z"/>
<path d="M6080 11435 l0 -45 -45 0 -45 0 0 -45 0 -45 -40 0 -40 0 0 -45 0 -45
-45 0 -45 0 0 -40 0 -40 -45 0 -45 0 0 -45 0 -45 -45 0 -45 0 0 -45 0 -45 -45
0 -45 0 0 -45 0 -45 -39 0 c-40 0 -40 0 -43 -42 -3 -43 -3 -43 -45 -46 -43 -3
-43 -3 -43 -43 l0 -39 130 0 130 0 0 130 0 130 135 0 135 0 0 -130 0 -129
-132 -3 -133 -3 -3 -132 -3 -133 -129 0 -129 0 -3 133 -3 132 -40 0 c-40 0
-40 0 -43 -42 l-3 -43 -45 0 -44 0 0 -45 0 -45 -45 0 -45 0 0 -45 0 -45 135 0
135 0 0 -130 0 -130 -135 0 -135 0 0 40 0 40 -40 0 -40 0 0 -40 0 -40 40 0 40
0 0 -135 0 -135 45 0 45 0 0 -45 0 -45 45 0 45 0 0 45 0 45 45 0 45 0 0 45 0
45 45 0 45 0 0 45 0 45 40 0 40 0 0 45 0 45 45 0 45 0 0 39 c0 40 0 40 43 43
42 3 42 3 45 46 l3 42 45 0 44 0 0 45 0 45 45 0 45 0 0 45 0 45 -45 0 -45 0 0
45 0 45 45 0 45 0 0 45 0 45 40 0 40 0 0 40 0 40 45 0 45 0 0 45 0 45 45 0 45
0 0 45 0 45 -130 0 -130 0 0 130 0 130 130 0 130 0 0 135 0 135 -45 0 -45 0 0
-45z m-260 -970 l0 -45 -45 0 -45 0 0 -45 0 -45 -45 0 -45 0 0 -45 0 -45 -45
0 -45 0 0 -40 0 -40 -40 0 -40 0 0 -45 0 -45 -45 0 -45 0 0 -45 0 -45 -45 0
-45 0 0 -45 0 -45 -45 0 -45 0 0 45 0 45 45 0 45 0 0 45 0 45 45 0 45 0 0 45
0 45 45 0 45 0 0 40 0 40 40 0 40 0 0 45 0 45 45 0 45 0 0 45 0 45 45 0 45 0
0 45 0 45 45 0 45 0 0 -45z"/>
<path d="M440 11345 l0 -45 45 0 45 0 0 45 0 45 -45 0 -45 0 0 -45z"/>
<path d="M2910 11345 l0 -45 45 0 45 0 0 45 0 45 -45 0 -45 0 0 -45z"/>
<path d="M3790 11345 l0 -45 45 0 45 0 0 45 0 45 -45 0 -45 0 0 -45z"/>
<path d="M6260 11345 l0 -45 45 0 45 0 0 45 0 45 -45 0 -45 0 0 -45z"/>
<path d="M710 11085 l0 -45 40 0 40 0 0 45 0 45 -40 0 -40 0 0 -45z"/>
<path d="M4059 11126 c-3 -3 -3 -23 -1 -45 4 -40 5 -41 43 -41 l39 0 0 45 0
45 -38 0 c-21 0 -41 -2 -43 -4z"/>
<path d="M5997 11123 c-4 -3 -7 -24 -7 -45 l0 -38 45 0 45 0 0 45 0 45 -38 0
c-21 0 -42 -3 -45 -7z"/>
<path d="M3350 10905 l0 -45 -45 0 -45 0 0 -45 0 -45 -45 0 -45 0 0 -38 c0
-21 2 -41 4 -43 3 -3 23 -3 45 -1 40 4 41 5 41 43 l0 39 45 0 45 0 0 -40 0
-40 45 0 45 0 0 -45 0 -45 -44 0 -45 0 -3 43 c-3 42 -3 42 -43 42 -40 0 -40 0
-43 -42 l-3 -43 45 0 46 0 0 -45 0 -45 45 0 45 0 0 45 0 45 46 0 45 0 -3 43
c-3 42 -3 42 -45 45 -43 3 -43 3 -43 43 l0 39 45 0 45 0 0 -39 c0 -38 1 -39
40 -43 l40 -4 0 43 0 43 -40 0 -40 0 0 45 0 45 -45 0 -45 0 0 45 0 45 -45 0
-45 0 0 -45z m90 -90 l0 -45 -45 0 -45 0 0 45 0 45 45 0 45 0 0 -45z"/>
<path d="M970 10815 l0 -45 45 0 45 0 0 45 0 45 -45 0 -45 0 0 -45z"/>
<path d="M2380 10815 l0 -45 45 0 45 0 0 45 0 45 -45 0 -45 0 0 -45z"/>
<path d="M4320 10815 l0 -45 45 0 45 0 0 45 0 45 -45 0 -45 0 0 -45z"/>
<path d="M5730 10815 l0 -45 45 0 45 0 0 45 0 45 -45 0 -45 0 0 -45z"/>
<path d="M4237 10684 c-4 -4 -7 -25 -7 -46 l0 -38 45 0 45 0 0 -45 0 -45 45 0
45 0 0 -45 0 -45 45 0 46 0 -3 133 -3 132 -126 3 c-69 1 -128 -1 -132 -4z"/>
<path d="M4767 10684 c-4 -4 -7 -65 -7 -136 l0 -129 133 3 132 3 3 43 3 42
-45 0 -46 0 0 45 0 45 -44 0 -45 0 -3 43 c-3 40 -4 42 -38 45 -20 2 -39 0 -43
-4z"/>
<path d="M1237 10593 c-4 -3 -7 -24 -7 -45 l0 -38 45 0 45 0 0 45 0 45 -38 0
c-21 0 -42 -3 -45 -7z"/>
<path d="M2120 10555 l0 -45 40 0 40 0 0 45 0 45 -40 0 -40 0 0 -45z"/>
<path d="M2998 10423 l-3 -178 -42 -3 -43 -3 0 45 0 46 -45 0 -45 0 0 45 0 45
45 0 45 0 0 45 0 45 -45 0 -45 0 0 -45 0 -45 -45 0 -45 0 0 46 0 45 -42 -3
c-43 -3 -43 -3 -43 -43 0 -40 0 -40 43 -43 l42 -3 0 -45 0 -44 -46 0 -45 0 3
-42 c3 -43 3 -43 46 -46 l42 -3 0 45 0 46 44 0 45 0 3 -42 c3 -43 3 -43 46
-46 42 -3 42 -3 42 -43 l0 -39 -175 0 -175 0 0 -44 0 -45 42 -3 c41 -3 42 -3
42 -43 1 -40 1 -40 44 -43 l42 -3 0 -45 0 -44 45 0 45 0 0 -45 0 -45 220 0
220 0 0 45 0 45 45 0 45 0 0 220 0 220 -45 0 -45 0 0 45 0 45 -45 0 -45 0 0
45 0 45 -39 0 c-40 0 -40 0 -43 43 -3 42 -3 42 -45 45 l-43 3 -2 -178z m90
-310 c3 -43 3 -43 43 -43 l39 0 0 -45 0 -45 45 0 45 0 0 -46 0 -45 -42 3 c-43
3 -43 3 -46 46 -3 42 -3 42 -43 42 l-39 0 0 45 0 45 -45 0 -45 0 0 46 0 45 43
-3 c42 -3 42 -3 45 -45z"/>
<path d="M4587 10593 c-4 -3 -7 -24 -7 -45 l0 -38 45 0 45 0 0 45 0 45 -38 0
c-21 0 -42 -3 -45 -7z"/>
<path d="M5470 10555 l0 -45 40 0 40 0 0 45 0 45 -40 0 -40 0 0 -45z"/>
<path d="M3880 10465 l0 -45 45 0 45 0 0 45 0 45 -45 0 -45 0 0 -45z"/>
<path d="M710 10285 l0 -45 40 0 40 0 0 45 0 45 -40 0 -40 0 0 -45z"/>
<path d="M1500 10284 l0 -45 43 3 c42 3 42 3 45 46 l3 42 -45 0 -46 0 0 -46z"/>
<path d="M1852 10288 c3 -43 3 -43 46 -46 l42 -3 0 45 0 46 -46 0 -45 0 3 -42z"/>
<path d="M4850 10284 l0 -45 43 3 c42 3 42 3 45 46 l3 42 -45 0 -46 0 0 -46z"/>
<path d="M5202 10288 c3 -43 3 -43 43 -43 40 0 40 0 43 43 l3 42 -46 0 -46 0
3 -42z"/>
<path d="M5992 10288 c3 -43 3 -43 46 -46 l42 -3 0 45 0 46 -46 0 -45 0 3 -42z"/>
<path d="M4760 10115 l0 -45 45 0 45 0 0 -45 0 -45 45 0 45 0 0 -46 0 -45 43
3 42 3 0 130 0 130 -132 3 -133 3 0 -46z"/>
<path d="M970 9935 l0 -45 -45 0 -45 0 0 -45 0 -45 -45 0 -45 0 0 -38 c0 -21
2 -41 4 -43 3 -3 23 -3 45 -1 40 4 41 5 41 43 l0 39 45 0 45 0 0 -39 c0 -40 0
-40 -42 -43 -43 -3 -43 -3 -46 -45 l-3 -43 45 0 46 0 0 -45 0 -45 45 0 45 0 0
45 0 45 45 0 45 0 0 46 0 46 40 -4 40 -4 0 43 0 43 -40 0 -40 0 0 45 0 45 -45
0 -45 0 0 45 0 45 -45 0 -45 0 0 -45z m90 -90 l0 -45 45 0 45 0 0 -40 0 -40
-45 0 -45 0 0 -45 0 -45 -45 0 -45 0 0 45 0 45 45 0 45 0 0 40 0 40 -45 0 -45
0 0 45 0 45 45 0 45 0 0 -45z"/>
<path d="M2380 9935 l0 -45 -45 0 -45 0 0 -45 0 -45 -46 0 -45 0 3 -42 3 -43
43 3 42 4 0 -46 0 -46 45 0 45 0 0 -45 0 -45 45 0 45 0 0 45 0 45 46 0 45 0
-3 43 c-3 42 -3 42 -45 45 -43 3 -43 3 -43 43 l0 39 45 0 45 0 0 -40 0 -40 43
0 42 0 0 40 0 40 -42 0 -43 0 0 45 0 45 -45 0 -45 0 0 45 0 45 -45 0 -45 0 0
-45z m90 -90 l0 -45 -45 0 -45 0 0 -40 0 -40 45 0 45 0 0 -45 0 -45 -45 0 -45
0 0 45 0 45 -45 0 -45 0 0 40 0 40 45 0 45 0 0 45 0 45 45 0 45 0 0 -45z"/>
<path d="M5730 9935 l0 -45 -45 0 -45 0 0 -45 0 -45 -45 0 -45 0 0 -38 c0 -21
2 -41 4 -43 3 -3 23 -3 45 -1 40 4 41 5 41 43 l0 39 45 0 45 0 0 -39 c0 -40 0
-40 -42 -43 -43 -3 -43 -3 -46 -45 l-3 -43 45 0 46 0 0 -45 0 -45 45 0 45 0 0
45 0 45 45 0 45 0 0 46 0 46 40 -4 40 -4 0 43 0 43 -40 0 -40 0 0 45 0 45 -45
0 -45 0 0 45 0 45 -45 0 -45 0 0 -45z m90 -90 l0 -45 45 0 45 0 0 -40 0 -40
-45 0 -45 0 0 -45 0 -45 -45 0 -45 0 0 45 0 45 45 0 45 0 0 40 0 40 -45 0 -45
0 0 45 0 45 45 0 45 0 0 -45z"/>
<path d="M2827 9713 c-4 -3 -7 -23 -7 -44 0 -37 -1 -38 -42 -41 -43 -3 -43 -3
-46 -45 -3 -42 -3 -42 -45 -45 -42 -3 -42 -3 -43 -43 0 -40 -1 -40 -42 -43
l-42 -3 0 -45 0 -44 175 0 175 0 0 -45 0 -45 -45 0 -45 0 0 -40 0 -40 -45 0
-45 0 0 40 0 40 -45 0 -45 0 0 -40 0 -40 45 0 45 0 0 -44 0 -45 -42 -3 c-43
-3 -43 -3 -43 -43 0 -40 0 -40 43 -43 l42 -3 0 45 0 46 45 0 45 0 0 -45 0 -45
45 0 45 0 0 45 0 45 -45 0 -45 0 0 45 0 45 45 0 45 0 0 40 0 40 45 0 45 0 0
-176 0 -175 43 3 c42 3 42 3 45 46 3 42 3 42 43 42 l39 0 0 45 0 45 45 0 45 0
0 45 0 45 45 0 45 0 0 220 0 220 -45 0 -45 0 0 45 0 45 -213 0 c-118 0 -217
-3 -220 -7z m433 -128 l0 -45 -45 0 -45 0 0 -45 0 -45 -39 0 c-40 0 -40 0 -43
-42 -3 -43 -3 -43 -45 -46 l-43 -3 0 45 0 46 45 0 45 0 0 45 0 45 40 0 c40 0
40 0 40 38 0 48 4 52 52 52 l38 0 0 -45z"/>
<path d="M5290 9585 l0 -45 45 0 45 0 0 -45 0 -45 45 0 45 0 0 -45 0 -45 40 0
40 0 0 -45 0 -45 45 0 45 0 0 -40 0 -40 45 0 45 0 0 -45 0 -45 -45 0 -45 0 0
-135 0 -135 -130 0 -130 0 0 -39 c0 -40 0 -40 43 -43 42 -3 42 -3 45 -45 3
-43 3 -43 43 -43 l39 0 0 -45 0 -45 45 0 45 0 0 -45 0 -45 45 0 45 0 0 -45 0
-45 45 0 45 0 0 -40 0 -40 45 0 45 0 0 -45 0 -45 40 0 40 0 0 -45 0 -45 45 0
45 0 0 -45 0 -45 45 0 45 0 0 135 0 135 135 0 135 0 0 40 0 40 -45 0 -45 0 0
45 0 45 -45 0 -45 0 0 45 0 45 -45 0 -45 0 0 45 0 45 -45 0 -45 0 0 45 0 45
-45 0 -45 0 0 40 0 40 -40 0 -40 0 0 45 0 45 -45 0 -45 0 0 45 0 45 45 0 45 0
0 45 0 45 -45 0 -45 0 0 45 0 45 -45 0 -45 0 0 40 0 40 -45 0 -45 0 0 45 0 45
-45 0 -45 0 0 45 0 45 -40 0 -40 0 0 45 0 45 -45 0 -45 0 0 45 0 45 -45 0 -45
0 0 -45z m530 -530 l0 -45 -45 0 -45 0 0 45 0 45 45 0 45 0 0 -45z m90 -355
l0 -130 130 0 130 0 0 -130 0 -130 -130 0 -130 0 0 130 0 130 -135 0 -135 0 0
130 0 130 135 0 135 0 0 -130z"/>
<path d="M5730 8706 l0 -46 46 0 45 0 -3 43 c-3 42 -3 42 -45 45 l-43 3 0 -45z"/>
<path d="M5992 8438 c3 -43 3 -43 46 -46 l42 -3 0 45 0 46 -46 0 -45 0 3 -42z"/>
<path d="M710 9230 l0 -40 40 0 40 0 0 40 0 40 -40 0 -40 0 0 -40z"/>
<path d="M1500 9230 l0 -40 45 0 45 0 0 40 0 40 -45 0 -45 0 0 -40z"/>
<path d="M1850 9230 l0 -40 45 0 45 0 0 40 0 40 -45 0 -45 0 0 -40z"/>
<path d="M5990 9230 l0 -40 45 0 45 0 0 40 0 40 -45 0 -45 0 0 -40z"/>
<path d="M3880 9055 l0 -45 45 0 45 0 0 45 0 45 -45 0 -45 0 0 -45z"/>
<path d="M1232 8968 c3 -43 3 -43 46 -46 l42 -3 0 45 0 46 -46 0 -45 0 3 -42z"/>
<path d="M2120 8965 l0 -45 40 0 40 0 0 45 0 45 -40 0 -40 0 0 -45z"/>
<path d="M3350 8965 l0 -45 -45 0 -45 0 0 -45 0 -45 -45 0 -45 0 0 -40 0 -40
45 0 45 0 0 -45 0 -45 45 0 45 0 0 -45 0 -45 45 0 45 0 0 45 0 45 45 0 45 0 0
45 0 45 40 0 40 0 0 40 0 40 -40 0 -40 0 0 45 0 45 -45 0 -45 0 0 45 0 45 -45
0 -45 0 0 -45z m90 -90 l0 -45 45 0 45 0 0 -40 0 -40 -45 0 -45 0 0 -45 0 -45
-45 0 -45 0 0 45 0 45 -45 0 -45 0 0 40 0 40 45 0 45 0 0 45 0 45 45 0 45 0 0
-45z"/>
<path d="M3350 8790 l0 -40 45 0 45 0 0 40 0 40 -45 0 -45 0 0 -40z"/>
<path d="M4582 8968 c3 -43 3 -43 46 -46 l42 -3 0 45 0 46 -46 0 -45 0 3 -42z"/>
<path d="M5470 8965 l0 -45 40 0 40 0 0 45 0 45 -40 0 -40 0 0 -45z"/>
<path d="M2380 8706 l0 -46 46 0 45 0 -3 43 c-3 42 -3 42 -45 45 l-43 3 0 -45z"/>
<path d="M710 8435 l0 -45 40 0 40 0 0 45 0 45 -40 0 -40 0 0 -45z"/>
<path d="M440 8175 l0 -45 45 0 45 0 0 45 0 45 -45 0 -45 0 0 -45z"/>
<path d="M3790 8175 l0 -45 45 0 45 0 0 45 0 45 -45 0 -45 0 0 -45z"/>
<path d="M6260 8176 l0 -46 46 0 45 0 -3 43 c-3 42 -3 42 -45 45 l-43 3 0 -45z"/>
<path d="M3172 7908 c3 -43 3 -43 46 -46 l42 -3 0 45 0 46 -46 0 -45 0 3 -42z"/>
<path d="M3530 7905 l0 -45 40 0 40 0 0 45 0 45 -40 0 -40 0 0 -45z"/>
<path d="M3880 12225 l0 -45 45 0 45 0 0 -46 0 -45 43 3 c42 3 42 3 45 46 3
42 3 42 42 42 39 0 39 0 42 -42 3 -43 3 -43 46 -46 l42 -3 0 45 0 46 45 0 45
0 0 45 0 45 -45 0 -45 0 0 -45 0 -45 -45 0 -45 0 0 45 0 45 -40 0 -40 0 0 -45
0 -45 -45 0 -45 0 0 45 0 45 -45 0 -45 0 0 -45z"/>
<path d="M4940 12225 l0 -45 -219 0 -220 0 -3 -42 c-3 -43 -3 -43 -45 -46 -43
-3 -43 -3 -43 -43 l0 -39 -45 0 -45 0 0 -45 0 -45 -45 0 -45 0 0 -45 0 -45
175 0 175 0 0 -45 0 -45 -40 0 -40 0 0 -45 0 -45 -45 0 -45 0 0 45 0 45 -45 0
-45 0 0 -45 0 -45 45 0 45 0 0 -40 0 -40 -45 0 -45 0 0 -45 0 -45 45 0 45 0 0
45 0 45 45 0 45 0 0 -45 0 -45 40 0 40 0 0 45 0 45 -40 0 -40 0 0 40 0 40 40
0 40 0 0 45 0 45 45 0 45 0 0 -175 0 -175 45 0 45 0 0 45 0 45 45 0 45 0 0 45
0 45 45 0 45 0 0 39 c0 40 0 40 43 43 l42 3 3 218 2 217 40 0 40 0 2 -217 3
-218 43 -3 c42 -3 42 -3 42 -43 l0 -39 45 0 45 0 0 -45 0 -45 45 0 45 0 0 -45
0 -45 45 0 45 0 0 175 0 175 39 0 c40 0 40 0 43 -42 3 -43 3 -43 46 -46 42 -3
42 -3 42 -42 0 -39 0 -39 -42 -42 -43 -3 -43 -3 -46 -45 l-3 -43 45 0 46 0 0
45 0 45 45 0 45 0 0 -45 0 -45 45 0 45 0 0 45 0 45 -45 0 -45 0 0 39 c0 40 0
40 43 43 42 3 42 3 45 46 l3 42 -45 0 -46 0 0 -45 0 -45 -45 0 -45 0 0 45 0
45 -45 0 -45 0 0 45 0 45 180 0 180 0 0 45 0 45 -45 0 -45 0 0 45 0 45 -45 0
-45 0 0 39 c0 40 0 40 -42 43 -43 3 -43 3 -46 46 l-3 42 -220 0 -219 0 0 45 0
45 -130 0 -130 0 0 -45z m90 -90 l0 -45 -45 0 -45 0 0 -40 0 -40 -45 0 -45 0
0 -45 0 -45 -45 0 -45 0 0 -45 0 -45 -45 0 -45 0 0 45 0 45 45 0 45 0 0 45 0
45 45 0 45 0 0 40 0 40 45 0 45 0 0 45 0 45 45 0 45 0 0 -45z m170 0 l0 -45
45 0 45 0 0 -39 c0 -40 0 -40 43 -43 42 -3 42 -3 45 -45 3 -42 3 -42 45 -45
42 -3 42 -3 42 -43 0 -40 0 -40 -42 -43 l-43 -3 0 45 0 46 -45 0 -45 0 0 45 0
45 -45 0 -45 0 0 40 0 40 -45 0 -45 0 0 45 0 45 45 0 45 0 0 -45z"/>
<path d="M5820 12225 l0 -45 45 0 45 0 0 -45 0 -45 40 0 40 0 0 -40 0 -40 45
0 45 0 0 40 0 40 -45 0 -45 0 0 45 0 45 -40 0 -40 0 0 45 0 45 -45 0 -45 0 0
-45z"/>
<path d="M5992 12228 c3 -43 3 -43 45 -46 42 -3 42 -3 45 -45 3 -42 3 -42 43
-42 40 0 40 0 43 43 l3 42 45 0 44 0 0 45 0 45 -45 0 -45 0 0 -45 0 -45 -45 0
-45 0 0 45 0 45 -46 0 -45 0 3 -42z"/>
<path d="M4058 12050 l-4 -40 43 0 43 0 0 40 c0 40 0 40 -39 40 -38 0 -39 -1
-43 -40z"/>
<path d="M180 11610 l0 -40 43 0 42 0 0 40 0 40 -42 0 -43 0 0 -40z"/>
<path d="M3170 11610 l0 -40 45 0 45 0 0 40 0 40 -45 0 -45 0 0 -40z"/>
<path d="M3530 11610 l0 -40 40 0 40 0 0 40 0 40 -40 0 -40 0 0 -40z"/>
<path d="M6520 11610 l0 -40 45 0 45 0 0 40 0 40 -45 0 -45 0 0 -40z"/>
<path d="M1674 11466 c-3 -8 -4 -27 -2 -43 3 -25 7 -28 46 -31 l42 -3 0 -45 0
-44 -45 0 -45 0 0 45 0 45 -40 0 -40 0 0 -45 0 -45 -45 0 -45 0 0 -45 0 -45
45 0 45 0 0 -40 0 -40 40 0 40 0 0 40 0 40 45 0 45 0 0 -39 c0 -40 0 -40 -42
-43 -43 -3 -43 -3 -46 -45 l-3 -43 45 0 46 0 0 45 0 45 45 0 45 0 0 40 0 40
45 0 45 0 0 45 0 45 -45 0 -45 0 0 45 0 45 -45 0 -45 0 0 45 0 45 -40 0 c-26
0 -43 -5 -46 -14z m-4 -211 l0 -45 -40 0 -40 0 0 45 0 45 40 0 40 0 0 -45z
m180 0 l0 -45 -45 0 -45 0 0 45 0 45 45 0 45 0 0 -45z"/>
<path d="M5030 11435 l0 -45 40 0 40 0 0 -45 0 -45 -40 0 -40 0 0 -45 0 -45
-45 0 -45 0 0 44 0 45 43 3 c42 3 42 3 42 43 0 40 0 40 -42 43 l-43 3 0 -45 0
-46 -45 0 -45 0 0 -45 0 -45 45 0 45 0 0 -40 0 -40 45 0 45 0 0 -45 0 -45 40
0 40 0 0 45 0 45 45 0 45 0 0 40 0 40 45 0 45 0 0 45 0 45 -45 0 -45 0 0 45 0
45 -45 0 -45 0 0 45 0 45 -40 0 -40 0 0 -45z m170 -180 l0 -45 -45 0 -45 0 0
-40 0 -40 -40 0 -40 0 0 40 0 40 40 0 40 0 0 45 0 45 45 0 45 0 0 -45z"/>
<path d="M0 10905 l0 -45 45 0 45 0 0 -45 0 -45 -45 0 -45 0 0 -40 0 -40 45 0
45 0 0 40 0 40 45 0 45 0 0 -39 c0 -38 1 -39 41 -43 22 -2 41 -3 42 -1 2 1 1
20 -1 42 -4 40 -5 41 -43 41 l-39 0 0 45 0 45 -45 0 -45 0 0 45 0 45 -45 0
-45 0 0 -45z"/>
<path d="M6610 10815 l0 -45 -45 0 -45 0 0 -38 c0 -21 2 -41 4 -43 3 -3 23 -3
45 -1 40 4 41 5 41 43 l0 39 45 0 45 0 0 45 0 45 -45 0 -45 0 0 -45z"/>
<path d="M97 10684 c-4 -4 -7 -25 -7 -46 l0 -38 -45 0 -45 0 0 -45 0 -45 45 0
45 0 0 45 0 45 46 0 45 0 -3 43 c-3 40 -4 42 -38 45 -20 2 -39 0 -43 -4z"/>
<path d="M6617 10683 c-4 -3 -7 -24 -7 -45 l0 -38 45 0 45 0 0 45 0 45 -38 0
c-21 0 -42 -3 -45 -7z"/>
<path d="M4058 10289 c-2 -22 -2 -42 1 -45 2 -2 22 -4 43 -4 l38 0 0 45 0 45
-39 0 c-38 0 -39 -1 -43 -41z"/>
<path d="M4500 10200 l0 -40 40 0 40 0 0 40 0 40 -40 0 -40 0 0 -40z"/>
<path d="M4320 9935 l0 -45 -45 0 -45 0 0 -45 0 -45 -46 0 -45 0 3 -42 3 -43
43 3 42 4 0 -46 0 -46 45 0 45 0 0 -45 0 -45 45 0 45 0 0 45 0 45 46 0 45 0
-3 43 c-3 42 -3 42 -45 45 -43 3 -43 3 -43 42 0 39 0 39 43 42 42 3 42 3 45
46 l3 42 -45 0 -46 0 0 45 0 45 -45 0 -45 0 0 -45z m90 -90 l0 -45 -45 0 -45
0 0 -40 0 -40 45 0 45 0 0 -45 0 -45 -45 0 -45 0 0 45 0 45 -45 0 -45 0 0 40
0 40 45 0 45 0 0 45 0 45 45 0 45 0 0 -45z"/>
<path d="M4500 9760 l0 -40 40 0 40 0 0 40 0 40 -40 0 -40 0 0 -40z"/>
<path d="M4850 9230 l0 -40 45 0 45 0 0 40 0 40 -45 0 -45 0 0 -40z"/>
<path d="M5200 9230 l0 -40 45 0 45 0 0 40 0 40 -45 0 -45 0 0 -40z"/>
<path d="M0 8965 l0 -45 45 0 45 0 0 -45 0 -45 -45 0 -45 0 0 -40 0 -40 45 0
45 0 0 -45 0 -45 -45 0 -45 0 0 -45 0 -45 45 0 45 0 0 45 0 45 45 0 45 0 0 45
0 45 43 0 42 0 0 40 0 40 -42 0 -43 0 0 45 0 45 -45 0 -45 0 0 45 0 45 -45 0
-45 0 0 -45z m180 -175 l0 -40 -45 0 -45 0 0 40 0 40 45 0 45 0 0 -40z"/>
<path d="M6610 8875 l0 -45 -45 0 -45 0 0 -40 0 -40 45 0 45 0 0 -45 0 -45 45
0 45 0 0 45 0 45 -45 0 -45 0 0 40 0 40 45 0 45 0 0 45 0 45 -45 0 -45 0 0
-45z"/>
<path d="M1670 8435 l0 -45 -40 0 -40 0 0 -40 0 -40 -45 0 -45 0 0 -45 0 -45
45 0 45 0 0 -45 0 -45 40 0 40 0 0 45 0 45 45 0 45 0 0 -44 0 -45 -42 -3 c-43
-3 -43 -3 -43 -43 0 -40 0 -40 43 -43 l42 -3 0 45 0 46 45 0 45 0 0 45 0 45
45 0 45 0 0 45 0 45 -45 0 -45 0 0 40 0 40 -45 0 -45 0 0 45 0 45 -45 0 -45 0
0 -45z m90 -85 l0 -40 45 0 45 0 0 -45 0 -45 -45 0 -45 0 0 46 0 45 -42 -3
c-43 -3 -43 -3 -46 -45 -3 -43 -3 -43 -43 -43 l-39 0 0 45 0 45 40 0 40 0 0
40 0 40 45 0 45 0 0 -40z"/>
<path d="M5030 8435 l0 -45 -45 0 -45 0 0 -40 0 -40 -45 0 -45 0 0 -45 0 -45
45 0 45 0 0 -45 0 -45 45 0 45 0 0 -45 0 -45 40 0 40 0 0 45 0 45 45 0 45 0 0
45 0 45 46 0 45 0 -3 43 c-3 42 -3 42 -45 45 -43 3 -43 3 -43 43 l0 39 -45 0
-45 0 0 45 0 45 -40 0 -40 0 0 -45z m80 -85 l0 -40 45 0 45 0 0 -45 0 -45 -45
0 -45 0 0 -45 0 -45 -39 0 c-40 0 -40 0 -43 43 -3 42 -3 42 -45 45 l-43 3 0
45 0 44 45 0 45 0 0 40 0 40 40 0 40 0 0 -40z"/>
<path d="M5030 8265 l0 -45 40 0 40 0 0 45 0 45 -40 0 -40 0 0 -45z"/>
<path d="M1320 7955 l0 -175 -45 0 -45 0 0 43 c0 42 0 42 -37 42 -37 0 -38 1
-41 43 l-3 42 40 0 41 0 0 45 0 45 -40 0 -40 0 0 -45 0 -45 -45 0 -45 0 0 45
0 45 -45 0 -45 0 0 -45 0 -45 45 0 45 0 0 -45 0 -45 -45 0 -45 0 0 -40 0 -40
45 0 45 0 0 40 c0 38 2 40 29 40 16 0 36 3 45 6 13 5 16 -2 16 -40 l0 -46 40
0 40 0 0 -45 0 -45 -175 0 -175 0 0 -45 0 -45 45 0 45 0 0 -45 0 -45 45 0 45
0 0 -45 0 -45 45 0 45 0 0 -40 0 -40 220 0 220 0 0 -45 0 -45 130 0 130 0 0
45 0 45 220 0 220 0 0 40 0 40 45 0 45 0 0 45 0 45 45 0 45 0 0 45 0 45 46 0
45 0 -3 43 -3 42 -177 3 -178 2 0 45 0 45 45 0 45 0 0 39 c0 38 -1 39 -41 43
-22 2 -42 2 -45 -1 -2 -2 -4 -22 -4 -43 0 -38 0 -38 -40 -38 l-40 0 -2 173 -3
172 -42 3 -43 3 0 -45 0 -46 -45 0 -45 0 0 -45 0 -45 -44 0 -45 0 -3 -42 c-3
-43 -3 -43 -43 -44 l-40 0 0 -220 0 -219 43 -3 c42 -3 42 -3 42 -43 l0 -39
-45 0 -45 0 0 40 0 40 -45 0 -46 0 1 222 1 222 -40 -3 -41 -3 0 46 0 46 -45 0
-45 0 0 45 0 45 -45 0 -45 0 0 45 0 45 -45 0 -45 0 0 -175z m90 -310 l0 -45
45 0 45 0 0 -45 0 -45 45 0 45 0 0 -45 0 -45 40 0 40 0 0 -40 0 -40 -40 0 -40
0 0 40 0 40 -45 0 -45 0 0 45 0 45 -45 0 -45 0 0 45 0 45 -45 0 -45 0 0 45 0
45 45 0 45 0 0 -45z m708 -2 l3 -43 -45 0 -46 0 0 -45 0 -45 -45 0 -45 0 0
-45 0 -45 -45 0 -45 0 0 45 0 45 45 0 45 0 0 45 0 45 45 0 45 0 0 46 0 45 43
-3 c42 -3 42 -3 45 -45z"/>
<path d="M4670 7956 l0 -175 -42 -3 c-43 -3 -43 -3 -46 -45 l-3 -43 -175 0
-174 0 0 -45 0 -45 45 0 45 0 0 -45 0 -45 45 0 45 0 0 -45 0 -45 45 0 45 0 0
-40 0 -40 220 0 220 0 0 -45 0 -45 130 0 130 0 0 45 0 45 220 0 220 0 0 40 0
40 45 0 45 0 0 45 0 45 45 0 45 0 0 45 0 45 45 0 45 0 0 45 0 45 -180 0 -180
0 0 45 0 45 45 0 45 0 0 39 c0 38 -1 39 -41 43 -22 2 -42 2 -45 -1 -2 -2 -4
-22 -4 -43 0 -38 0 -38 -40 -38 l-40 0 -2 173 -3 172 -42 3 -43 3 0 -45 0 -46
-45 0 -45 0 0 -45 0 -45 -45 0 -45 0 0 -46 0 -46 -42 4 -43 3 -3 -223 -2 -222
-40 0 c-40 0 -40 0 -40 -40 l0 -40 -45 0 -45 0 0 39 c0 40 0 40 43 43 l42 3 0
220 0 220 -42 -3 -43 -4 0 46 0 46 -45 0 -45 0 0 45 0 45 -45 0 -45 0 0 45 0
45 -45 0 -45 0 0 -174z m90 -311 l0 -45 45 0 45 0 0 -45 0 -45 45 0 45 0 0
-45 0 -45 -45 0 -45 0 0 45 0 45 -45 0 -45 0 0 45 0 45 -45 0 -45 0 0 45 0 45
45 0 45 0 0 -45z m708 -2 l3 -43 -45 0 -46 0 0 -45 0 -45 -44 0 -45 0 -3 -42
c-3 -43 -3 -43 -45 -46 -43 -3 -43 -3 -43 -43 l0 -39 -45 0 -45 0 0 40 0 40
45 0 45 0 0 45 0 45 45 0 45 0 0 45 0 45 45 0 45 0 0 46 0 45 43 -3 c42 -3 42
-3 45 -45z"/>
<path d="M2202 7998 c3 -43 3 -43 45 -46 42 -3 42 -3 45 -45 3 -42 3 -42 46
-45 42 -3 42 -3 42 -43 l0 -39 46 0 45 0 -3 42 -3 43 -42 -3 -43 -4 0 46 0 46
45 0 45 0 0 45 0 45 -45 0 -45 0 0 -45 0 -45 -45 0 -45 0 0 45 0 45 -46 0 -45
0 3 -42z"/>
<path d="M4320 7995 l0 -45 45 0 45 0 0 -46 0 -45 43 3 c42 3 42 3 45 46 3 42
3 42 43 42 l39 0 0 45 0 45 -40 0 -40 0 0 -45 0 -45 -45 0 -45 0 0 45 0 45
-45 0 -45 0 0 -45z"/>
<path d="M5552 7998 c3 -43 3 -43 45 -46 42 -3 42 -3 45 -45 3 -42 3 -42 43
-42 40 0 40 0 43 43 l3 42 45 0 44 0 0 45 0 45 -45 0 -45 0 0 -45 0 -45 -45 0
-45 0 0 45 0 45 -46 0 -45 0 3 -42z"/>
<path d="M180 7905 l0 -45 40 0 40 0 0 45 0 45 -40 0 -40 0 0 -45z"/>
<path d="M6522 7908 c3 -43 3 -43 46 -46 l42 -3 0 45 0 46 -46 0 -45 0 3 -42z"/>
<path d="M4358 7862 c-37 -3 -38 -4 -38 -43 l0 -39 45 0 45 0 0 39 c0 46 -2
47 -52 43z"/>
<path d="M4538 7863 c-37 -4 -38 -5 -38 -44 0 -39 0 -39 40 -39 l40 0 0 45 c0
25 -1 44 -2 43 -2 -1 -20 -3 -40 -5z"/>
<path d="M5768 7862 c-37 -3 -38 -4 -38 -43 l0 -39 45 0 45 0 0 39 c0 46 -2
47 -52 43z"/>
<path d="M710 7465 l0 -45 -45 0 -45 0 0 -40 0 -40 -45 0 -45 0 0 -45 0 -45
45 0 45 0 0 45 0 45 45 0 45 0 0 -45 0 -45 40 0 40 0 0 45 0 45 45 0 45 0 0
-45 0 -45 46 0 45 0 -3 43 c-3 42 -3 42 -45 45 -43 3 -43 3 -43 43 l0 39 -45
0 -45 0 0 45 0 45 -40 0 -40 0 0 -45z m80 -85 l0 -40 -40 0 -40 0 0 40 0 40
40 0 40 0 0 -40z"/>
<path d="M2642 7468 c3 -43 3 -43 46 -46 42 -3 42 -3 42 -42 0 -39 0 -39 -42
-42 -43 -3 -43 -3 -46 -45 l-3 -43 45 0 46 0 0 45 0 45 45 0 45 0 0 -45 0 -45
46 0 45 0 -3 43 c-3 42 -3 42 -45 45 -43 3 -43 3 -43 43 l0 39 -45 0 -45 0 0
45 0 45 -46 0 -45 0 3 -42z"/>
<path d="M4060 7465 l0 -45 -45 0 -45 0 0 -40 0 -40 -45 0 -45 0 0 -45 0 -45
45 0 45 0 0 45 0 45 46 0 46 0 -4 -45 -3 -45 42 0 43 0 0 45 0 45 45 0 45 0 0
-45 0 -45 45 0 45 0 0 45 0 45 -45 0 -45 0 0 40 0 40 -45 0 -45 0 0 45 0 45
-40 0 -40 0 0 -45z m80 -85 l0 -40 -40 0 -40 0 0 40 0 40 40 0 40 0 0 -40z"/>
<path d="M5992 7468 c3 -43 3 -43 46 -46 42 -3 42 -3 42 -42 0 -39 0 -39 -42
-42 -43 -3 -43 -3 -46 -45 l-3 -43 45 0 46 0 0 45 0 45 45 0 45 0 0 -45 0 -45
45 0 45 0 0 45 0 45 -45 0 -45 0 0 40 0 40 -45 0 -45 0 0 45 0 45 -46 0 -45 0
3 -42z"/>
<path d="M2560 7380 l0 -40 40 0 40 0 0 40 0 40 -40 0 -40 0 0 -40z"/>
<path d="M5910 7380 l0 -40 -45 0 -45 0 0 -45 0 -45 45 0 45 0 0 45 0 45 40 0
40 0 0 40 0 40 -40 0 -40 0 0 -40z"/>
<path d="M2470 7296 l0 -46 46 0 45 0 -3 43 c-3 42 -3 42 -45 45 l-43 3 0 -45z"/>
<path d="M0 7070 l0 -90 3350 0 3350 0 0 90 0 90 -3350 0 -3350 0 0 -90z"/>
<path d="M0 6810 l0 -90 3350 0 3350 0 0 90 0 90 -3350 0 -3350 0 0 -90z"/>
<path d="M0 5990 l0 -90 3350 0 3350 0 0 90 0 90 -3350 0 -3350 0 0 -90z"/>
<path d="M0 5730 l0 -90 3350 0 3350 0 0 90 0 90 -3350 0 -3350 0 0 -90z"/>
<path d="M0 5505 l0 -45 45 0 45 0 0 -40 0 -40 45 0 45 0 0 -45 0 -45 -45 0
-45 0 0 -135 0 -135 -45 0 -45 0 0 -39 c0 -40 0 -40 43 -43 l42 -3 3 -132 3
-133 -46 0 -45 0 0 -45 0 -45 45 0 45 0 0 -46 0 -45 43 3 c42 3 42 3 45 46 3
42 3 42 42 42 39 0 39 0 42 -42 3 -43 3 -43 46 -46 42 -3 42 -3 42 -43 l0 -39
-45 0 -45 0 0 40 0 40 -40 0 -40 0 0 -40 0 -40 40 0 40 0 0 -45 0 -45 45 0 45
0 0 -45 0 -45 45 0 45 0 0 -45 0 -45 45 0 45 0 0 -45 0 -45 45 0 45 0 0 -40 0
-40 45 0 45 0 0 -45 0 -45 40 0 40 0 0 -45 0 -45 -40 0 -40 0 0 -45 0 -45 -45
0 -45 0 0 45 0 45 -45 0 -45 0 0 -45 0 -45 45 0 45 0 0 -45 0 -45 -45 0 -45 0
0 -40 0 -40 -45 0 -45 0 0 175 0 175 -45 0 -45 0 0 -44 0 -45 -42 -3 c-43 -3
-43 -3 -46 -45 -3 -43 -3 -43 -42 -43 -39 0 -39 0 -42 -42 -3 -43 -3 -43 -45
-46 l-43 -3 0 -220 0 -219 -45 0 -45 0 0 -130 0 -130 45 0 45 0 0 -219 0 -220
43 -3 c42 -3 42 -3 45 -46 3 -42 3 -42 42 -42 39 0 39 0 42 -42 3 -43 3 -43
45 -46 42 -3 42 -3 45 -45 3 -42 3 -42 46 -45 l42 -3 0 180 0 181 45 0 45 0 0
-45 0 -45 45 0 45 0 0 -45 0 -45 -45 0 -45 0 0 -45 0 -45 45 0 45 0 0 45 0 45
45 0 45 0 0 -45 0 -45 40 0 40 0 0 -45 0 -45 -40 0 -40 0 0 -45 0 -45 -45 0
-45 0 0 -40 0 -40 -45 0 -45 0 0 -45 0 -45 -45 0 -45 0 0 -45 0 -45 -45 0 -45
0 0 -45 0 -45 -46 0 -45 0 3 -42 c3 -43 3 -43 45 -46 43 -3 43 -3 43 -43 l0
-39 -45 0 -45 0 0 40 0 40 -40 0 -40 0 0 -40 0 -40 -45 0 -45 0 0 -45 0 -45
-45 0 -45 0 0 -45 0 -45 45 0 45 0 0 -130 0 -130 -45 0 -45 0 0 -45 0 -45 45
0 45 0 0 -135 0 -135 45 0 45 0 0 -40 0 -40 43 0 43 0 -4 40 -4 40 46 0 46 0
0 45 0 45 45 0 45 0 0 45 0 45 45 0 45 0 0 45 0 45 45 0 45 0 0 45 0 45 45 0
45 0 0 40 0 40 40 0 40 0 0 45 0 45 45 0 45 0 0 45 0 45 45 0 45 0 0 45 0 45
45 0 45 0 0 45 0 45 45 0 45 0 0 40 0 40 40 0 40 0 0 45 0 45 45 0 45 0 0 45
0 45 45 0 45 0 0 45 0 45 45 0 45 0 0 45 0 45 45 0 45 0 0 40 c0 38 2 40 30
41 45 2 50 3 50 12 0 4 0 23 0 42 0 34 -1 35 -40 35 l-40 0 0 45 0 45 39 0
c40 0 40 0 43 -42 3 -43 3 -43 45 -46 42 -3 42 -3 45 -45 3 -42 3 -42 43 -42
40 0 40 0 43 43 l3 42 45 0 44 0 0 -45 0 -45 -45 0 -45 0 0 -40 0 -40 45 0 45
0 0 -45 0 -45 45 0 45 0 0 -45 0 -45 45 0 45 0 0 -45 0 -45 39 0 c40 0 40 0
43 -42 3 -43 3 -43 46 -46 42 -3 42 -3 42 -43 l0 -39 45 0 45 0 0 -45 0 -45
45 0 45 0 0 -45 0 -45 45 0 45 0 0 -45 0 -45 39 0 c40 0 40 0 43 -42 3 -43 3
-43 46 -46 42 -3 42 -3 42 -43 l0 -39 45 0 45 0 0 -45 0 -45 45 0 45 0 0 -45
0 -45 45 0 45 0 0 -45 0 -45 45 0 45 0 0 -45 0 -45 40 0 40 0 0 -40 0 -40 45
0 45 0 0 40 0 40 45 0 45 0 0 135 0 135 45 0 45 0 0 -135 0 -135 45 0 45 0 0
-40 0 -40 -45 0 -45 0 0 -45 0 -45 -44 0 -45 0 -3 43 c-3 42 -3 42 -43 42 -40
0 -40 0 -43 -42 l-3 -43 45 0 46 0 0 -45 0 -45 45 0 45 0 0 45 0 45 45 0 45 0
0 45 0 45 40 0 40 0 0 40 0 40 45 0 45 0 0 45 0 45 45 0 45 0 0 45 0 45 45 0
45 0 0 45 0 45 45 0 45 0 0 45 0 45 45 0 45 0 0 40 0 40 40 0 40 0 0 45 0 45
45 0 45 0 0 45 0 45 45 0 45 0 0 45 0 45 45 0 45 0 0 45 0 45 45 0 45 0 0 40
0 40 40 0 40 0 0 45 0 45 45 0 45 0 0 45 0 45 45 0 45 0 0 45 0 45 45 0 45 0
0 45 0 45 45 0 45 0 0 39 c0 40 0 40 43 43 42 3 42 3 45 46 l3 42 -45 0 -46 0
0 44 0 45 43 3 c42 3 42 3 45 46 3 42 3 42 43 42 l39 0 0 -45 0 -45 45 0 45 0
0 -45 0 -45 -46 0 -45 0 3 -42 c2 -25 8 -44 16 -44 6 -1 26 -2 42 -3 28 -1 30
-3 30 -41 l0 -40 45 0 45 0 0 -45 0 -45 45 0 45 0 0 -45 0 -45 45 0 45 0 0
-45 0 -45 39 0 c40 0 40 0 43 -42 3 -43 3 -43 46 -46 42 -3 42 -3 42 -43 l0
-39 45 0 45 0 0 -45 0 -45 45 0 45 0 0 -45 0 -45 45 0 45 0 0 -45 0 -45 39 0
c40 0 40 0 43 -42 3 -43 3 -43 46 -46 42 -3 42 -3 42 -43 l0 -39 45 0 45 0 0
-45 0 -45 45 0 45 0 0 -45 0 -45 45 0 45 0 0 -45 0 -45 46 0 46 0 -4 -42 -3
-43 43 -3 c42 -3 42 -3 42 -43 l0 -39 45 0 45 0 0 -45 0 -45 45 0 45 0 0 45 0
45 -45 0 -45 0 0 40 0 40 45 0 45 0 0 310 0 310 -45 0 -45 0 0 45 0 45 45 0
45 0 0 45 0 45 -45 0 -45 0 0 40 0 40 -45 0 -45 0 0 45 0 45 -40 0 -40 0 0
-45 0 -45 -45 0 -45 0 0 44 0 45 43 3 c42 3 42 3 42 43 0 40 0 40 -42 43 l-43
3 0 45 0 44 -45 0 -45 0 0 45 0 45 -45 0 -45 0 0 40 0 40 -45 0 -45 0 0 45 0
45 -45 0 -45 0 0 45 0 45 45 0 45 0 0 45 0 45 45 0 45 0 0 -45 0 -45 45 0 45
0 0 45 0 45 -45 0 -45 0 0 45 0 45 45 0 45 0 0 46 0 45 43 -3 42 -3 3 -178 2
-178 43 3 c42 3 42 3 45 46 3 42 3 42 43 42 l39 0 0 45 0 45 45 0 45 0 0 45 0
45 45 0 45 0 0 220 0 220 -45 0 -45 0 0 45 0 45 45 0 45 0 0 40 0 40 -45 0
-45 0 0 45 0 45 45 0 45 0 0 220 0 220 -45 0 -45 0 0 44 0 45 -42 3 c-43 3
-43 3 -46 46 -3 42 -3 42 -42 42 -39 0 -39 0 -42 43 -3 42 -3 42 -45 45 l-43
3 0 -175 0 -176 -45 0 -45 0 0 40 0 40 -45 0 -45 0 0 45 0 45 45 0 45 0 0 45
0 45 -45 0 -45 0 0 -45 0 -45 -45 0 -45 0 0 45 0 45 -45 0 -45 0 0 45 0 45 45
0 45 0 0 45 0 45 45 0 45 0 0 40 0 40 45 0 45 0 0 45 0 45 45 0 45 0 0 44 0
45 43 3 c42 3 42 3 45 46 3 42 3 42 43 42 l39 0 0 45 0 45 45 0 45 0 0 40 0
40 45 0 45 0 0 45 0 45 -45 0 -45 0 0 45 0 45 45 0 45 0 0 310 0 310 -45 0
-45 0 0 45 0 45 45 0 45 0 0 40 0 40 -45 0 -45 0 0 -39 c0 -40 0 -40 -42 -43
-43 -3 -43 -3 -46 -45 -3 -43 -3 -43 -43 -43 l-39 0 0 -45 0 -45 -45 0 -45 0
0 -45 0 -45 -45 0 -45 0 0 -45 0 -45 -45 0 -45 0 0 -39 c0 -40 0 -40 -42 -43
-43 -3 -43 -3 -46 -45 -3 -42 -3 -42 -45 -45 -42 -3 -42 -3 -45 -45 -3 -43 -3
-43 -43 -43 l-39 0 0 -45 0 -45 -45 0 -45 0 0 -45 0 -45 -45 0 -45 0 0 -45 0
-45 -45 0 -45 0 0 -39 c0 -40 0 -40 -42 -43 -43 -3 -43 -3 -46 -45 -3 -43 -3
-43 -43 -43 l-39 0 0 -45 0 -45 -45 0 -45 0 0 -45 0 -45 -45 0 -45 0 0 -45 0
-45 -45 0 -45 0 0 -39 c0 -40 0 -40 -42 -43 -43 -3 -43 -3 -46 -45 -3 -43 -3
-43 -42 -43 -39 0 -39 0 -42 43 -3 42 -3 42 -45 45 -43 3 -43 3 -43 43 l0 39
-45 0 -45 0 0 45 0 45 -45 0 -45 0 0 45 0 45 -45 0 -45 0 0 45 0 45 -45 0 -45
0 0 45 0 45 -40 0 -40 0 0 40 0 40 -45 0 -45 0 0 45 0 45 -45 0 -45 0 0 45 0
45 -45 0 -45 0 0 45 0 45 -45 0 -45 0 0 45 0 45 -39 0 c-40 0 -40 0 -43 43 -3
42 -3 42 -45 45 l-43 3 0 -45 0 -46 -45 0 -45 0 0 46 0 46 43 -4 42 -3 3 43 3
42 -45 0 -46 0 0 45 0 45 -45 0 -45 0 0 45 0 45 -45 0 -45 0 0 45 0 45 -45 0
-45 0 0 45 0 45 -40 0 -40 0 0 40 0 40 -45 0 -45 0 0 45 0 45 -45 0 -45 0 0
-45 0 -45 -45 0 -45 0 0 -39 c0 -40 0 -40 -42 -43 -43 -3 -43 -3 -46 -45 -3
-43 -3 -43 -43 -43 l-39 0 0 -45 0 -45 -45 0 -45 0 0 -45 0 -45 -45 0 -45 0 0
-45 0 -45 -45 0 -45 0 0 -39 c0 -40 0 -40 -42 -43 -43 -3 -43 -3 -46 -45 -3
-42 -3 -42 -45 -45 -42 -3 -42 -3 -45 -45 -3 -43 -3 -43 -43 -43 l-39 0 0 -45
0 -45 -45 0 -45 0 0 -45 0 -45 -45 0 -45 0 0 -45 0 -45 -45 0 -45 0 0 -39 c0
-40 0 -40 -42 -43 -43 -3 -43 -3 -46 -45 -3 -43 -3 -43 -43 -43 l-39 0 0 -45
0 -45 -45 0 -45 0 0 -45 0 -45 -45 0 -45 0 0 -45 0 -45 -45 0 -45 0 0 -39 c0
-40 0 -40 -42 -43 -43 -3 -43 -3 -46 -45 -3 -42 -3 -42 -45 -45 -42 -3 -42 -3
-45 -45 -3 -43 -3 -43 -43 -43 l-39 0 0 45 0 45 39 0 c38 0 39 1 43 41 2 22 2
42 -1 45 -2 2 -22 4 -43 4 -38 0 -38 0 -38 40 l0 40 -45 0 -45 0 0 45 0 45
-45 0 -45 0 0 45 0 45 -45 0 -45 0 0 45 0 45 -45 0 -45 0 0 45 0 45 -40 0 -40
0 0 40 0 40 -45 0 -45 0 0 45 0 45 -45 0 -45 0 0 45 0 45 -45 0 -45 0 0 45 0
45 -45 0 -45 0 0 45 0 45 -39 0 c-40 0 -40 0 -43 43 -3 42 -3 42 -45 45 -43 3
-43 3 -43 43 l0 39 -45 0 -45 0 0 45 0 45 -45 0 -45 0 0 45 0 45 -45 0 -45 0
0 45 0 45 -45 0 -45 0 0 45 0 45 -40 0 -40 0 0 40 0 40 -45 0 -45 0 0 45 0 45
-45 0 -45 0 0 -45z m3440 -85 l0 -40 45 0 45 0 0 -45 0 -45 40 0 40 0 0 -45 0
-45 45 0 45 0 0 -45 0 -45 45 0 45 0 0 -45 0 -45 45 0 45 0 0 -40 0 -40 -45 0
-45 0 0 40 0 40 -45 0 -45 0 0 44 0 45 -42 3 c-43 3 -43 3 -46 46 -3 42 -3 42
-43 42 l-39 0 0 45 0 45 -45 0 -45 0 0 -135 0 -135 -45 0 -45 0 0 135 0 135
-45 0 -45 0 0 -45 0 -45 -45 0 -45 0 0 -45 0 -45 -39 0 c-40 0 -40 0 -43 -42
-3 -43 -3 -43 -45 -46 -43 -3 -43 -3 -43 -43 l0 -39 -45 0 -45 0 0 -45 0 -45
-45 0 -45 0 0 -45 0 -45 -45 0 -45 0 0 -44 0 -45 -42 -3 c-43 -3 -43 -3 -44
-43 0 -40 -1 -40 -42 -43 -40 -3 -41 -4 -44 -45 -3 -42 -3 -42 -45 -45 -43 -3
-43 -3 -43 -43 l0 -39 -45 0 -45 0 0 -45 0 -45 -45 0 -45 0 0 -45 0 -45 -45 0
-45 0 0 -45 0 -45 -39 0 c-40 0 -40 0 -43 -42 -3 -43 -3 -43 -45 -46 -43 -3
-43 -3 -43 -43 l0 -39 -45 0 -45 0 0 -45 0 -45 -45 0 -45 0 0 -45 0 -45 -45 0
-45 0 0 -130 0 -130 -45 0 -45 0 0 130 0 130 45 0 45 0 0 45 0 45 45 0 45 0 0
45 0 45 45 0 45 0 0 40 0 40 45 0 45 0 0 45 0 45 45 0 45 0 0 45 0 45 40 0 40
0 0 45 0 45 45 0 45 0 0 45 0 45 45 0 45 0 0 40 0 40 45 0 45 0 0 45 0 45 45
0 45 0 0 45 0 45 40 0 40 0 0 45 0 45 45 0 45 0 0 45 0 45 45 0 45 0 0 45 0
45 45 0 45 0 0 40 0 40 45 0 45 0 0 45 0 45 45 0 45 0 0 45 0 45 40 0 40 0 0
45 0 45 45 0 45 0 0 45 0 45 45 0 45 0 0 40 0 40 45 0 45 0 0 -40z m-3180
-175 l0 -45 45 0 45 0 0 -45 0 -45 45 0 45 0 0 -45 0 -45 45 0 45 0 0 -40 0
-40 45 0 45 0 0 -45 0 -45 45 0 45 0 0 -45 0 -45 40 0 40 0 0 -45 0 -45 45 0
45 0 0 -45 0 -45 45 0 45 0 0 -45 0 -45 45 0 45 0 0 -40 0 -40 45 0 45 0 0
-45 0 -45 40 0 40 0 0 -45 0 -45 45 0 45 0 0 -45 0 -45 45 0 45 0 0 -45 0 -45
45 0 45 0 0 -40 0 -40 45 0 45 0 0 -45 0 -45 -45 0 -45 0 0 45 0 45 -45 0 -45
0 0 39 c0 40 0 40 -42 43 -43 3 -43 3 -46 45 -3 42 -3 42 -45 45 -42 3 -42 3
-45 46 -3 42 -3 42 -43 42 l-39 0 0 45 0 45 -45 0 -45 0 0 45 0 45 -45 0 -45
0 0 40 0 40 -45 0 -45 0 0 44 0 45 -42 3 c-43 3 -43 3 -46 46 -3 42 -3 42 -43
42 l-39 0 0 45 0 45 -45 0 -45 0 0 45 0 45 -44 0 -45 0 -3 43 c-3 42 -3 42
-45 45 -43 3 -43 3 -43 43 l0 39 -45 0 -45 0 0 44 0 45 -42 3 c-43 3 -43 3
-46 46 -3 42 -3 42 -43 42 l-39 0 0 45 0 45 40 0 40 0 0 -45z m6350 0 l0 -45
-45 0 -45 0 0 -45 0 -45 -39 0 c-40 0 -40 0 -43 -42 -3 -43 -3 -43 -45 -46
-41 -3 -42 -4 -45 -45 l-3 -42 -42 3 -43 4 0 -46 0 -46 -45 0 -45 0 0 -45 0
-45 -45 0 -45 0 0 -45 0 -45 -45 0 -45 0 0 -45 0 -45 -39 0 c-40 0 -40 0 -43
-42 -3 -43 -3 -43 -45 -46 -43 -3 -43 -3 -43 -43 l0 -39 -45 0 -45 0 0 -45 0
-45 -45 0 -45 0 0 -45 0 -45 -45 0 -45 0 0 -45 0 -45 -39 0 c-40 0 -40 0 -43
-42 -3 -43 -3 -43 -45 -46 -43 -3 -43 -3 -43 -43 l0 -39 -45 0 -45 0 0 -45 0
-45 -45 0 -45 0 0 -45 0 -45 -45 0 -45 0 0 -130 0 -130 -42 0 -43 0 0 127 0
128 -42 3 -43 3 0 45 0 44 -45 0 -45 0 0 45 0 45 -45 0 -45 0 0 39 c0 40 0 40
-42 43 -43 3 -43 3 -46 45 -3 42 -3 42 -45 45 -42 3 -42 3 -45 46 -3 42 -3 42
-43 42 l-39 0 0 45 0 45 -45 0 -45 0 0 45 0 45 -45 0 -45 0 0 39 c0 40 0 40
-42 43 -43 3 -43 3 -46 45 -3 42 -3 42 -45 45 -42 3 -42 3 -45 45 -3 41 -4 42
-44 45 -41 3 -42 3 -42 43 -1 40 -1 40 -43 43 l-43 3 0 45 0 44 45 0 45 0 0
-45 0 -45 40 0 40 0 0 -45 0 -45 45 0 45 0 0 -45 0 -45 45 0 45 0 0 -45 0 -45
45 0 45 0 0 -40 0 -40 45 0 45 0 0 -45 0 -45 40 0 40 0 0 -45 0 -45 45 0 45 0
0 -45 0 -45 45 0 45 0 0 -45 0 -45 45 0 45 0 0 -40 0 -40 45 0 45 0 0 -45 0
-45 45 0 45 0 0 -45 0 -45 40 0 40 0 0 45 0 45 45 0 45 0 0 45 0 45 45 0 45 0
0 40 0 40 45 0 45 0 0 45 0 45 45 0 45 0 0 45 0 45 40 0 40 0 0 45 0 45 45 0
45 0 0 45 0 45 45 0 45 0 0 40 0 40 45 0 45 0 0 45 0 45 45 0 45 0 0 45 0 45
40 0 40 0 0 45 0 45 45 0 45 0 0 45 0 45 45 0 45 0 0 45 0 45 45 0 45 0 0 40
0 40 45 0 45 0 0 45 0 45 45 0 45 0 0 45 0 45 40 0 40 0 0 45 0 45 45 0 45 0
0 -45z m-6350 -350 l0 -45 -40 0 -40 0 0 45 0 45 40 0 40 0 0 -45z m3000 0 l0
-45 -45 0 -45 0 0 38 c0 21 3 42 7 45 3 4 24 7 45 7 l38 0 0 -45z m178 -92 l3
-133 44 0 45 0 0 -45 0 -45 39 0 c40 0 40 0 43 -42 3 -43 3 -43 46 -46 42 -3
42 -3 42 -43 l0 -39 45 0 45 0 0 -45 0 -45 45 0 45 0 0 -45 0 -45 45 0 45 0 0
-45 0 -45 45 0 45 0 0 -45 0 -45 40 0 40 0 0 -40 0 -40 45 0 45 0 0 -45 0 -45
45 0 45 0 0 -45 0 -45 45 0 45 0 0 -45 0 -45 45 0 45 0 0 -45 0 -45 40 0 40 0
0 -40 0 -40 45 0 45 0 0 -45 0 -45 45 0 45 0 0 -45 0 -45 45 0 45 0 0 -45 0
-45 45 0 45 0 0 -46 0 -45 43 3 42 3 3 133 3 132 39 0 39 0 3 -132 3 -133 43
-3 42 -3 0 45 0 46 45 0 45 0 0 45 0 45 45 0 45 0 0 45 0 45 45 0 45 0 0 45 0
45 40 0 40 0 0 40 0 40 45 0 45 0 0 45 0 45 45 0 45 0 0 45 0 45 45 0 45 0 0
45 0 45 45 0 45 0 0 45 0 45 40 0 40 0 0 40 0 40 45 0 45 0 0 45 0 45 45 0 45
0 0 45 0 45 45 0 45 0 0 45 0 45 45 0 45 0 0 45 0 45 45 0 45 0 0 40 0 40 40
0 40 0 0 45 0 45 45 0 45 0 0 -45 0 -45 -45 0 -45 0 0 -40 0 -40 -40 0 -40 0
0 -45 0 -45 -45 0 -45 0 0 -45 0 -45 -45 0 -45 0 0 -45 0 -45 -45 0 -45 0 0
-45 0 -45 -45 0 -45 0 0 -40 0 -40 -45 0 -45 0 0 -45 0 -45 -40 0 -40 0 0 -45
0 -45 39 0 c40 0 40 0 43 -42 3 -43 3 -43 46 -46 l42 -3 0 -45 0 -44 45 0 45
0 0 -40 0 -40 45 0 45 0 0 -45 0 -45 -175 0 -175 0 0 -45 0 -45 39 0 c40 0 40
0 43 -42 3 -43 3 -43 45 -46 42 -3 42 -3 45 -45 3 -42 3 -42 45 -45 42 -3 42
-3 45 -45 l3 -42 218 -3 217 -2 0 -40 0 -40 -220 0 -220 0 0 -45 0 -45 -45 0
-45 0 0 -45 0 -45 -45 0 -45 0 0 -45 0 -45 -40 0 -40 0 0 -45 0 -45 175 0 175
0 0 -39 c0 -40 0 -40 -42 -43 -43 -3 -43 -3 -46 -45 l-3 -43 -45 0 -44 0 0
-44 0 -45 -42 -3 c-43 -3 -43 -3 -46 -45 -3 -43 -3 -43 -43 -43 l-39 0 0 -45
0 -45 39 0 c40 0 40 0 43 -42 3 -43 3 -43 46 -46 42 -3 42 -3 42 -43 l0 -39
45 0 45 0 0 -45 0 -45 45 0 45 0 0 -45 0 -45 45 0 45 0 0 -45 0 -45 -45 0 -45
0 0 45 0 45 -45 0 -45 0 0 45 0 45 -45 0 -45 0 0 45 0 45 -45 0 -45 0 0 40 c0
38 -1 40 -32 41 -18 1 -36 1 -40 0 -5 0 -8 19 -8 44 l0 45 -45 0 -45 0 0 45 0
45 -45 0 -45 0 0 45 0 45 -45 0 -45 0 0 45 0 45 -45 0 -45 0 0 45 0 45 -40 0
-40 0 0 40 0 40 -45 0 -45 0 0 45 0 45 -45 0 -45 0 0 45 0 45 -45 0 -45 0 0
45 0 45 -45 0 -45 0 0 -220 0 -220 -40 0 -40 0 0 88 c-1 48 -2 146 -3 217 l-2
130 -42 3 -43 3 0 -45 0 -46 -45 0 -45 0 0 -45 0 -45 -45 0 -45 0 0 -45 0 -45
-45 0 -45 0 0 -39 c0 -40 0 -40 -42 -43 -43 -3 -43 -3 -46 -45 -3 -43 -3 -43
-43 -43 l-39 0 0 -45 0 -45 -45 0 -45 0 0 -45 0 -45 -45 0 -45 0 0 -45 0 -45
-45 0 -45 0 0 -45 0 -45 -45 0 -45 0 0 -40 c0 -40 0 -40 -39 -40 -40 0 -40 0
-43 -42 -3 -43 -3 -43 -45 -46 l-43 -3 0 -45 0 -44 -45 0 -45 0 0 -45 0 -45
-45 0 -45 0 0 -45 0 -45 -45 0 -45 0 0 -40 0 -40 -45 0 -45 0 0 -45 0 -45 -40
0 -40 0 0 -45 0 -45 -45 0 -45 0 0 -130 0 -130 -45 0 -45 0 0 130 0 130 -45 0
-45 0 0 45 0 45 -45 0 -45 0 0 45 0 45 -40 0 -40 0 0 40 0 40 -45 0 -45 0 0
45 0 45 -45 0 -45 0 0 45 0 45 -45 0 -45 0 0 45 0 45 -45 0 -45 0 0 45 0 45
-45 0 -45 0 0 40 0 40 -40 0 -40 0 0 45 0 45 -45 0 -45 0 0 45 0 45 -45 0 -45
0 0 45 0 45 -45 0 -45 0 0 45 0 45 -45 0 -45 0 0 45 0 45 -40 0 -40 0 0 40 0
40 -45 0 -45 0 0 45 0 45 -45 0 -45 0 0 45 0 45 -45 0 -45 0 0 45 0 45 -45 0
-45 0 0 -220 0 -220 -45 0 -46 0 1 218 2 217 -41 3 -41 3 0 -45 0 -46 -45 0
-45 0 0 -45 0 -45 -45 0 -45 0 0 -45 0 -45 -45 0 -45 0 0 -39 c0 -40 0 -40
-42 -43 -43 -3 -43 -3 -46 -45 -3 -43 -3 -43 -43 -43 l-39 0 0 -45 0 -45 -45
0 -45 0 0 -45 0 -45 -45 0 -45 0 0 -45 0 -45 -45 0 -45 0 0 -45 0 -45 -45 0
-45 0 0 -40 0 -40 -40 0 -40 0 0 -45 0 -45 -45 0 -45 0 0 -45 0 -45 -45 0 -45
0 0 -45 0 -45 -45 0 -45 0 0 -45 0 -45 -45 0 -45 0 0 45 0 45 45 0 45 0 0 45
0 45 45 0 45 0 0 45 0 45 45 0 45 0 0 45 0 45 45 0 45 0 0 40 0 40 40 0 40 0
0 45 0 45 45 0 45 0 0 45 0 45 -45 0 -45 0 0 45 0 45 -40 0 -40 0 0 45 0 45
-44 0 -45 0 -3 43 c-3 42 -3 42 -46 45 -42 3 -42 3 -42 43 l0 39 175 0 175 0
0 45 0 45 -45 0 -45 0 0 45 0 45 -39 0 c-40 0 -40 0 -43 43 -3 42 -3 42 -45
45 -42 3 -42 3 -45 45 l-3 42 -217 3 -218 2 0 -45 0 -45 40 0 40 0 0 -45 0
-45 45 0 45 0 0 -45 0 -45 45 0 45 0 0 -46 0 -45 -42 3 c-43 3 -43 3 -46 45
-3 42 -3 42 -45 45 -42 3 -42 3 -45 46 -3 42 -3 42 -43 42 l-39 0 0 45 0 45
-45 0 -45 0 0 45 0 45 45 0 45 0 0 40 0 40 -45 0 -45 0 0 45 0 45 45 0 45 0 0
45 0 45 39 0 c40 0 40 0 43 43 3 42 3 42 45 45 42 3 42 3 45 45 3 42 3 42 46
45 l42 3 0 -45 0 -46 -45 0 -45 0 0 -45 0 -45 -45 0 -45 0 0 -45 0 -45 -40 0
-40 0 0 -45 0 -45 218 2 217 3 3 42 c3 42 3 42 45 45 42 3 42 3 45 46 3 42 3
42 43 42 l39 0 0 45 0 45 45 0 45 0 0 45 0 45 -175 0 -175 0 0 45 0 45 45 0
45 0 0 40 0 40 45 0 45 0 0 45 0 45 40 0 40 0 0 45 0 45 45 0 45 0 0 45 0 45
-45 0 -45 0 0 45 0 45 -40 0 -40 0 0 40 0 40 -45 0 -45 0 0 45 0 45 -45 0 -45
0 0 45 0 45 -45 0 -45 0 0 45 0 45 -45 0 -45 0 0 45 0 45 45 0 45 0 0 -45 0
-45 45 0 45 0 0 -45 0 -45 45 0 45 0 0 -45 0 -45 45 0 45 0 0 -45 0 -45 40 0
40 0 0 -40 0 -40 45 0 45 0 0 -45 0 -45 45 0 45 0 0 -45 0 -45 45 0 45 0 0
-45 0 -45 45 0 45 0 0 -45 0 -45 40 0 40 0 0 -40 0 -40 45 0 45 0 0 -45 0 -45
45 0 45 0 0 -45 0 -45 45 0 45 0 0 -45 0 -45 45 0 45 0 0 -46 0 -45 41 3 41 3
1 130 2 130 42 3 42 3 3 -133 3 -133 43 -3 42 -3 0 45 0 46 45 0 45 0 0 45 0
45 45 0 45 0 0 45 0 45 45 0 45 0 0 45 0 45 40 0 40 0 0 40 0 40 45 0 45 0 0
45 0 45 45 0 45 0 0 45 0 45 45 0 45 0 0 45 0 45 45 0 45 0 0 45 0 45 40 0 40
0 0 40 0 40 45 0 45 0 0 45 0 45 45 0 45 0 0 45 0 45 45 0 45 0 0 45 0 45 45
0 45 0 0 45 0 45 45 0 45 0 0 40 0 40 40 0 40 0 0 45 0 45 45 0 45 0 0 45 0
45 45 0 45 0 0 128 c0 71 3 132 7 136 4 4 23 6 43 4 l35 -3 3 -132z m172 92
l0 -45 -40 0 -40 0 0 45 0 45 40 0 40 0 0 -45z m3000 0 l0 -45 -45 0 -45 0 0
38 c0 48 4 52 52 52 l38 0 0 -45z m-6430 -270 l0 -45 -45 0 -45 0 0 45 0 45
45 0 45 0 0 -45z m350 0 l0 -45 -45 0 -45 0 0 45 0 45 45 0 45 0 0 -45z m2468
3 c-3 -43 -3 -43 -45 -46 l-43 -3 0 45 0 46 46 0 45 0 -3 -42z m882 -3 l0 -45
-45 0 -45 0 0 45 0 45 45 0 45 0 0 -45z m2468 3 c-3 -43 -3 -43 -45 -46 l-43
-3 0 45 0 46 46 0 45 0 -3 -42z m-5558 -263 l0 -45 -40 0 -40 0 0 45 0 45 40
0 40 0 0 -45z m1940 0 l0 -45 -45 0 -45 0 0 38 c0 21 3 42 7 45 3 4 24 7 45 7
l38 0 0 -45z m1410 0 l0 -45 -39 0 c-38 0 -39 1 -43 41 -2 22 -2 42 1 45 2 2
22 4 43 4 l38 0 0 -45z m1940 0 l0 -45 -45 0 -45 0 0 38 c0 48 4 52 52 52 l38
0 0 -45z m-5022 -267 c-3 -43 -3 -43 -45 -46 l-43 -3 0 45 0 46 46 0 45 0 -3
-42z m1410 0 c-3 -43 -3 -43 -45 -46 l-43 -3 0 45 0 46 46 0 45 0 -3 -42z
m1940 0 c-3 -43 -3 -43 -45 -46 l-43 -3 0 45 0 46 46 0 45 0 -3 -42z m1410 0
c-3 -43 -3 -43 -45 -46 l-43 -3 0 45 0 46 46 0 45 0 -3 -42z m-4498 -263 l0
-45 -45 0 -45 0 0 38 c0 48 4 52 52 52 l38 0 0 -45z m880 0 l0 -45 -40 0 -40
0 0 45 0 45 40 0 40 0 0 -45z m2470 -1 l0 -45 -42 3 c-39 3 -43 6 -46 31 -6
46 4 57 48 57 l40 0 0 -46z m880 1 l0 -45 -40 0 -40 0 0 45 0 45 40 0 40 0 0
-45z m-3960 -265 l0 -40 -45 0 -45 0 0 40 0 40 45 0 45 0 0 -40z m350 0 l0
-40 -45 0 -45 0 0 40 0 40 45 0 45 0 0 -40z m3000 0 l0 -40 -45 0 -45 0 0 40
0 40 45 0 45 0 0 -40z m350 0 l0 -40 -45 0 -45 0 0 40 0 40 45 0 45 0 0 -40z
m1148 -177 c3 -43 3 -43 43 -43 l39 0 0 -45 0 -45 45 0 45 0 0 -46 0 -45 -42
3 c-43 3 -43 3 -46 46 -3 42 -3 42 -43 42 l-39 0 0 45 0 45 -45 0 -45 0 0 46
0 45 43 -3 c42 -3 42 -3 45 -45z m172 -528 l0 -45 -45 0 -45 0 0 -45 0 -45
-39 0 c-40 0 -40 0 -43 -42 -3 -43 -3 -43 -45 -46 l-43 -3 0 45 0 46 45 0 45
0 0 45 0 45 40 0 c40 0 40 0 40 38 0 48 4 52 52 52 l38 0 0 -45z m-5022 -352
l3 -43 -45 0 -46 0 0 46 0 45 43 -3 c42 -3 42 -3 45 -45z m352 2 l0 -45 -45 0
-45 0 0 38 c0 21 3 42 7 45 3 4 24 7 45 7 l38 0 0 -45z m2998 -2 l3 -43 -45 0
-46 0 0 46 0 45 43 -3 c42 -3 42 -3 45 -45z m350 0 l3 -43 -45 0 -46 0 0 38
c0 48 6 54 50 50 34 -3 35 -5 38 -45z m-3528 -178 l0 -45 45 0 45 0 0 -45 0
-45 -45 0 -45 0 0 45 0 45 -45 0 -45 0 0 38 c0 21 3 42 7 45 3 4 24 7 45 7
l38 0 0 -45z m-440 -91 l0 -45 -42 3 c-43 3 -43 3 -46 46 l-3 42 45 0 46 0 0
-46z m880 1 l0 -45 -40 0 -40 0 0 45 0 45 40 0 40 0 0 -45z m2470 -1 l0 -45
-42 3 c-43 3 -43 3 -46 46 l-3 42 45 0 46 0 0 -46z m880 1 l0 -45 -40 0 -40 0
0 45 0 45 40 0 40 0 0 -45z m-3960 -90 l0 -45 -45 0 -45 0 0 -40 0 -40 -45 0
-45 0 0 -45 0 -45 -45 0 -45 0 0 -45 0 -45 -45 0 -45 0 0 -45 0 -45 -40 0 -40
0 0 -45 0 -45 -45 0 -45 0 0 -40 0 -40 -45 0 -45 0 0 -45 0 -45 -45 0 -45 0 0
-45 0 -45 -45 0 -45 0 0 -45 0 -45 -40 0 -40 0 0 -45 0 -45 -45 0 -45 0 0 -40
0 -40 -45 0 -45 0 0 -45 0 -45 -45 0 -45 0 0 -45 0 -45 -45 0 -45 0 0 -45 0
-45 -45 0 -45 0 0 -45 0 -45 -40 0 -40 0 0 45 0 45 39 0 c40 0 40 0 43 43 3
42 3 42 45 45 l43 3 0 45 0 44 45 0 45 0 0 45 0 45 45 0 45 0 0 40 0 40 45 0
45 0 0 45 0 45 45 0 45 0 0 45 0 45 40 0 40 0 0 45 0 45 45 0 45 0 0 45 0 45
45 0 45 0 0 40 0 40 45 0 45 0 0 45 0 45 45 0 45 0 0 45 0 45 40 0 40 0 0 45
0 45 45 0 45 0 0 45 0 45 45 0 45 0 0 39 c0 40 0 40 43 43 42 3 42 3 45 46 l3
42 45 0 44 0 0 -45z m3350 0 l0 -45 -45 0 -45 0 0 -40 0 -40 -45 0 -45 0 0
-45 0 -45 -45 0 -45 0 0 -45 0 -45 -45 0 -45 0 0 -45 0 -45 -40 0 -40 0 0 -45
0 -45 -45 0 -45 0 0 -40 0 -40 -45 0 -45 0 0 -45 0 -45 -45 0 -45 0 0 -45 0
-45 -45 0 -45 0 0 -45 0 -45 -40 0 -40 0 0 -45 0 -45 -45 0 -45 0 0 -40 0 -40
-45 0 -45 0 0 -45 0 -45 -45 0 -45 0 0 -45 0 -45 -45 0 -45 0 0 -45 0 -45 -45
0 -45 0 0 -45 0 -45 -40 0 -40 0 0 45 0 45 39 0 c40 0 40 0 43 43 3 42 3 42
46 45 l42 3 0 45 0 44 44 0 45 0 3 43 c3 42 3 42 46 45 42 3 42 3 42 43 l0 39
45 0 45 0 0 44 0 45 43 3 c42 3 42 3 43 43 0 40 1 40 42 43 l42 3 0 45 0 44
45 0 45 0 0 45 0 45 45 0 45 0 0 40 0 40 45 0 45 0 0 45 0 45 45 0 45 0 0 45
0 45 39 0 c40 0 40 0 43 43 3 42 3 42 46 45 l42 3 0 45 0 44 45 0 45 0 0 39
c0 40 0 40 43 43 42 3 42 3 45 46 l3 42 45 0 44 0 0 -45z m352 3 c3 -43 3 -43
46 -46 42 -3 42 -3 42 -42 0 -39 0 -39 43 -42 42 -3 42 -3 45 -45 3 -43 3 -43
43 -43 l39 0 0 -45 0 -45 45 0 45 0 0 -45 0 -45 45 0 45 0 0 -45 0 -45 45 0
45 0 0 -39 c0 -40 0 -40 43 -43 42 -3 42 -3 45 -45 3 -43 3 -43 43 -43 l39 0
0 -45 0 -45 45 0 45 0 0 -45 0 -45 45 0 45 0 0 -45 0 -45 45 0 45 0 0 -39 c0
-40 0 -40 43 -43 42 -3 42 -3 45 -45 3 -42 3 -42 45 -45 42 -3 42 -3 45 -45 3
-43 3 -43 43 -43 l39 0 0 -45 0 -45 45 0 45 0 0 -45 0 -45 -45 0 -45 0 0 45 0
45 -40 0 -40 0 0 45 0 45 -45 0 -45 0 0 45 0 45 -45 0 -45 0 0 45 0 45 -45 0
-45 0 0 40 0 40 -45 0 -45 0 0 45 0 45 -45 0 -45 0 0 45 0 45 -40 0 -40 0 0
45 0 45 -45 0 -45 0 0 45 0 45 -45 0 -45 0 0 40 0 40 -45 0 -45 0 0 45 0 45
-45 0 -45 0 0 45 0 45 -40 0 -40 0 0 45 0 45 -45 0 -45 0 0 45 0 45 -45 0 -45
0 0 40 0 40 -45 0 -45 0 0 45 0 45 44 0 45 0 3 -42z m-3262 -87 c0 -40 0 -40
43 -43 42 -3 42 -3 45 -45 3 -43 3 -43 43 -43 l39 0 0 -45 0 -45 45 0 45 0 0
-45 0 -45 45 0 45 0 0 -45 0 -45 45 0 45 0 0 -39 c0 -40 0 -40 43 -43 42 -3
42 -3 45 -45 3 -41 4 -42 44 -45 41 -3 42 -3 42 -43 1 -40 1 -40 44 -43 l42
-3 0 -45 0 -44 45 0 45 0 0 -45 0 -45 45 0 45 0 0 -39 c0 -40 0 -40 43 -43 42
-3 42 -3 45 -45 3 -42 3 -42 45 -45 42 -3 42 -3 45 -45 3 -43 3 -43 43 -43
l39 0 0 -45 0 -45 45 0 45 0 0 -45 0 -45 -45 0 -45 0 0 45 0 45 -40 0 -40 0 0
45 0 45 -45 0 -45 0 0 45 0 45 -45 0 -45 0 0 45 0 45 -45 0 -45 0 0 40 0 40
-45 0 -45 0 0 45 0 45 -45 0 -45 0 0 45 0 45 -40 0 -40 0 0 45 0 45 -45 0 -45
0 0 45 0 45 -45 0 -45 0 0 40 0 40 -45 0 -45 0 0 45 0 45 -45 0 -45 0 0 45 0
45 -40 0 -40 0 0 45 0 45 -45 0 -45 0 0 45 0 45 -45 0 -45 0 0 40 0 40 45 0
45 0 0 -39z m-970 -86 l0 -45 -45 0 -45 0 0 45 0 45 45 0 45 0 0 -45z m1410 0
l0 -45 -45 0 -45 0 0 45 0 45 45 0 45 0 0 -45z m1940 0 l0 -45 -45 0 -45 0 0
45 0 45 45 0 45 0 0 -45z m1410 0 l0 -45 -45 0 -45 0 0 45 0 45 45 0 45 0 0
-45z m-5030 -270 l0 -45 -40 0 -40 0 0 45 0 45 40 0 40 0 0 -45z m1940 -1 l0
-45 -42 3 c-43 3 -43 3 -46 46 l-3 42 45 0 46 0 0 -46z m1410 1 l0 -45 -38 0
c-21 0 -41 2 -43 4 -3 3 -3 23 -1 45 4 40 5 41 43 41 l39 0 0 -45z m1940 -1
l0 -45 -42 3 c-43 3 -43 3 -46 46 l-3 42 45 0 46 0 0 -46z m440 -84 l0 -40 45
0 45 0 0 -45 0 -45 -45 0 -45 0 0 45 0 45 -40 0 -40 0 0 40 0 40 40 0 40 0 0
-40z m-6260 -85 l0 -45 -40 0 -40 0 0 -45 0 -45 -45 0 -45 0 0 45 0 45 45 0
45 0 0 45 0 45 40 0 40 0 0 -45z m270 -90 l0 -45 -45 0 -45 0 0 45 0 45 45 0
45 0 0 -45z m2470 0 l0 -45 -45 0 -45 0 0 45 0 45 45 0 45 0 0 -45z m880 0 l0
-45 -45 0 -45 0 0 45 0 45 45 0 45 0 0 -45z m2470 0 l0 -45 -45 0 -45 0 0 45
0 45 45 0 45 0 0 -45z m-6085 -265 l0 -40 -42 0 -43 0 0 40 0 40 43 0 42 0 0
-40z m2995 0 l0 -40 -45 0 -45 0 0 40 0 40 45 0 45 0 0 -40z m350 0 l0 -40
-40 0 -40 0 0 40 0 40 40 0 40 0 0 -40z m3000 0 l0 -40 -45 0 -45 0 0 40 0 40
45 0 45 0 0 -40z"/>
<path d="M3350 4625 l0 -45 -45 0 -45 0 0 -45 0 -45 -45 0 -45 0 0 -40 0 -40
-40 0 -40 0 0 -45 0 -45 -45 0 -45 0 0 -45 0 -45 -45 0 -45 0 0 -45 0 -45 -45
0 -45 0 0 -45 0 -45 -45 0 -45 0 0 -39 c0 -40 0 -40 -42 -43 -43 -3 -43 -3
-46 -45 -3 -43 -3 -43 -43 -43 l-39 0 0 -45 0 -45 -45 0 -45 0 0 -45 0 -45
-45 0 -45 0 0 -45 0 -45 -45 0 -45 0 0 -39 c0 -40 0 -40 -42 -43 -43 -3 -43
-3 -46 -45 -3 -43 -3 -43 -43 -43 l-39 0 0 -45 0 -45 -45 0 -45 0 0 -45 0 -45
-45 0 -45 0 0 -45 0 -45 -45 0 -45 0 0 -45 0 -45 -130 0 -130 0 0 45 0 45 -45
0 -45 0 0 45 0 45 -45 0 -45 0 0 45 0 45 -45 0 -45 0 0 45 0 45 -45 0 -45 0 0
45 0 45 -40 0 -40 0 0 40 0 40 -45 0 -45 0 0 45 0 45 -45 0 -45 0 0 45 0 45
-45 0 -45 0 0 -45 0 -45 45 0 45 0 0 -45 0 -45 45 0 45 0 0 -40 0 -40 45 0 45
0 0 -45 0 -45 40 0 40 0 0 -45 0 -45 45 0 45 0 0 -45 0 -45 45 0 45 0 0 -45 0
-45 45 0 45 0 0 -45 0 -45 45 0 45 0 0 -40 0 -40 -45 0 -45 0 0 -45 0 -45 -45
0 -45 0 0 -45 0 -45 -45 0 -45 0 0 -45 0 -45 -45 0 -45 0 0 -45 0 -45 -40 0
-40 0 0 -40 0 -40 -45 0 -45 0 0 -45 0 -45 -45 0 -45 0 0 -45 0 -45 -45 0 -45
0 0 -45 0 -45 45 0 45 0 0 45 0 45 45 0 45 0 0 45 0 45 45 0 45 0 0 45 0 45
40 0 40 0 0 40 0 40 45 0 45 0 0 45 0 45 45 0 45 0 0 45 0 45 45 0 45 0 0 45
0 45 45 0 45 0 0 45 0 45 130 0 130 0 0 -45 0 -45 45 0 45 0 0 -45 0 -45 45 0
45 0 0 -45 0 -45 45 0 45 0 0 -45 0 -45 40 0 40 0 0 -40 0 -40 45 0 45 0 0
-45 0 -45 45 0 45 0 0 -45 0 -45 45 0 45 0 0 -45 0 -45 45 0 45 0 0 -45 0 -45
39 0 c40 0 40 0 43 -42 3 -43 3 -43 46 -46 42 -3 42 -3 42 -43 l0 -39 45 0 45
0 0 -45 0 -45 45 0 45 0 0 -45 0 -45 45 0 45 0 0 -45 0 -45 45 0 45 0 0 -45 0
-45 40 0 40 0 0 -40 0 -40 45 0 45 0 0 -45 0 -45 45 0 45 0 0 -45 0 -45 45 0
45 0 0 45 0 45 45 0 45 0 0 45 0 45 40 0 40 0 0 40 0 40 45 0 45 0 0 45 0 45
45 0 45 0 0 45 0 45 45 0 45 0 0 45 0 45 45 0 45 0 0 45 0 45 45 0 45 0 0 40
0 40 40 0 40 0 0 45 0 45 45 0 45 0 0 45 0 45 45 0 45 0 0 45 0 45 45 0 45 0
0 45 0 45 46 0 45 0 -3 43 c-3 42 -3 42 -45 45 l-43 3 0 -45 0 -46 -45 0 -45
0 0 -45 0 -45 -45 0 -45 0 0 -45 0 -45 -45 0 -45 0 0 45 0 45 -39 0 c-40 0
-40 0 -43 43 -3 42 -3 42 -45 45 -42 3 -42 3 -45 45 -3 42 -3 42 -45 45 -43 3
-43 3 -43 43 l0 39 175 0 175 0 0 44 0 45 -42 3 c-43 3 -43 3 -46 46 -3 42 -3
42 -42 42 -39 0 -39 0 -42 43 -3 42 -3 42 -45 45 -42 3 -42 3 -45 45 l-3 42
-217 3 -218 2 0 40 0 40 218 2 217 3 3 42 c3 42 3 42 45 45 42 3 42 3 45 46 3
42 3 42 43 42 l39 0 0 45 0 45 45 0 45 0 0 45 0 45 -175 0 -175 0 0 45 0 45
45 0 45 0 0 40 0 40 46 0 46 0 -4 -40 -4 -40 43 0 43 0 0 40 0 40 -40 0 -40 0
0 45 0 45 40 0 40 0 0 45 0 45 45 0 45 0 0 -45 0 -45 45 0 45 0 0 -45 0 -45
45 0 45 0 0 -40 0 -40 45 0 45 0 0 -45 0 -45 40 0 40 0 0 45 0 45 -40 0 -40 0
0 40 0 40 -45 0 -45 0 0 45 0 45 -45 0 -45 0 0 45 0 45 -45 0 -45 0 0 45 0 45
-45 0 -45 0 0 45 0 45 -40 0 -40 0 0 40 0 40 -45 0 -45 0 0 45 0 45 -45 0 -45
0 0 45 0 45 -45 0 -45 0 0 45 0 45 -45 0 -45 0 0 45 0 45 -45 0 -45 0 0 40 0
40 -40 0 -40 0 0 45 0 45 -45 0 -45 0 0 45 0 45 -45 0 -45 0 0 -45z m90 -90
l0 -45 45 0 45 0 0 -40 0 -40 40 0 40 0 0 -45 0 -45 45 0 45 0 0 -45 0 -45 45
0 45 0 0 -45 0 -45 45 0 45 0 0 -45 0 -45 45 0 45 0 0 -40 0 -40 45 0 45 0 0
-45 0 -45 40 0 40 0 0 -44 0 -45 -42 -3 -43 -3 3 -42 4 -43 -46 0 -46 0 0 -45
0 -45 -45 0 -45 0 0 -40 0 -40 -45 0 -45 0 0 175 0 175 -45 0 -45 0 0 -44 0
-45 -42 -3 c-43 -3 -43 -3 -46 -45 -3 -43 -3 -43 -42 -43 -39 0 -39 0 -42 -42
-3 -43 -3 -43 -45 -46 l-43 -3 0 -220 0 -219 45 0 45 0 0 45 0 45 39 0 c40 0
40 0 43 43 3 42 3 42 45 45 42 3 42 3 45 45 3 42 3 42 46 45 l42 3 0 -45 0
-46 -45 0 -45 0 0 -45 0 -45 -45 0 -45 0 0 -45 0 -45 -40 0 -40 0 0 -45 0 -45
-45 0 -45 0 0 45 0 45 -44 0 -45 0 -3 -42 c-3 -43 -3 -43 -45 -46 -43 -3 -43
-3 -43 -43 l0 -39 45 0 45 0 0 -45 0 -45 45 0 45 0 0 45 0 45 45 0 45 0 0 -45
0 -45 40 0 40 0 0 -45 0 -45 45 0 45 0 0 -45 0 -45 45 0 45 0 0 -46 0 -45 -42
3 c-43 3 -43 3 -46 45 -3 42 -3 42 -45 45 -42 3 -42 3 -45 46 -3 42 -3 42 -43
42 l-39 0 0 45 0 45 -45 0 -45 0 0 -219 0 -220 43 -3 c42 -3 42 -3 45 -45 3
-43 3 -43 42 -43 39 0 39 0 42 -42 3 -43 3 -43 45 -46 42 -3 42 -3 45 -45 3
-42 3 -42 46 -45 l42 -3 0 180 0 181 45 0 45 0 0 -45 0 -45 45 0 45 0 0 -45 0
-45 46 0 46 0 -4 -42 -3 -43 43 -3 42 -3 0 -45 0 -44 -40 0 -40 0 0 -46 0 -46
-45 4 -45 3 0 -42 0 -43 -45 0 -45 0 0 -45 0 -45 -45 0 -45 0 0 -45 0 -45 -45
0 -45 0 0 -45 0 -45 -45 0 -45 0 0 -45 0 -45 -40 0 -40 0 0 -40 0 -40 -45 0
-45 0 0 -45 0 -45 -45 0 -45 0 0 45 0 45 -45 0 -45 0 0 40 0 40 -45 0 -45 0 0
45 0 45 -40 0 -40 0 0 45 0 45 -45 0 -45 0 0 45 0 45 -45 0 -45 0 0 45 0 45
-45 0 -45 0 0 40 0 40 -45 0 -45 0 0 45 0 45 -45 0 -45 0 0 45 0 45 -40 0 -40
0 0 45 0 45 -45 0 -45 0 0 45 0 45 -45 0 -45 0 0 45 0 45 -45 0 -45 0 0 40 0
40 -45 0 -45 0 0 45 0 45 -40 0 -40 0 0 45 0 45 -45 0 -45 0 0 45 0 45 -45 0
-45 0 0 45 0 45 -45 0 -45 0 0 39 c0 40 0 40 43 43 42 3 42 3 45 46 l3 42 45
0 44 0 0 44 0 45 43 3 c42 3 42 3 45 46 3 42 3 42 43 42 l39 0 0 45 0 45 45 0
45 0 0 45 0 45 45 0 45 0 0 40 0 40 45 0 45 0 0 45 0 45 45 0 45 0 0 45 0 45
40 0 40 0 0 45 0 45 45 0 45 0 0 45 0 45 45 0 45 0 0 40 0 40 45 0 45 0 0 45
0 45 45 0 45 0 0 44 0 45 43 3 c42 3 42 3 45 46 3 42 3 42 43 42 l39 0 0 45 0
45 45 0 45 0 0 39 c0 40 0 40 43 43 42 3 42 3 45 46 l3 42 45 0 44 0 0 -45z"/>
<path d="M3350 4185 l0 -45 -45 0 -45 0 0 -45 0 -45 -45 0 -45 0 0 -40 0 -40
45 0 45 0 0 -45 0 -45 45 0 45 0 0 -45 0 -45 45 0 45 0 0 45 0 45 45 0 45 0 0
45 0 45 40 0 40 0 0 40 0 40 -40 0 -40 0 0 45 0 45 -45 0 -45 0 0 45 0 45 -45
0 -45 0 0 -45z m90 -90 l0 -45 45 0 45 0 0 -40 0 -40 -45 0 -45 0 0 -45 0 -45
-45 0 -45 0 0 45 0 45 -45 0 -45 0 0 40 0 40 45 0 45 0 0 45 0 45 45 0 45 0 0
-45z"/>
<path d="M3350 4010 l0 -40 45 0 45 0 0 40 0 40 -45 0 -45 0 0 -40z"/>
<path d="M3000 3706 l0 -176 -45 0 -45 0 0 40 0 40 -45 0 -45 0 0 45 0 45 45
0 45 0 0 45 0 45 -45 0 -45 0 0 -45 0 -45 -45 0 -45 0 0 46 0 45 -42 -3 c-43
-3 -43 -3 -43 -43 0 -40 0 -40 43 -43 l42 -3 0 -45 0 -44 -45 0 -45 0 0 -40 0
-40 45 0 45 0 0 40 0 40 45 0 45 0 0 -40 0 -40 45 0 45 0 0 -45 0 -45 -175 0
-175 0 0 -44 0 -45 42 -3 c41 -3 42 -3 42 -43 1 -40 1 -40 43 -43 42 -3 42 -3
45 -45 3 -42 3 -42 45 -45 42 -3 42 -3 45 -45 l3 -42 218 -3 217 -2 0 45 0 45
45 0 45 0 0 220 0 220 -45 0 -45 0 0 45 0 45 -45 0 -45 0 0 45 0 45 -39 0
c-40 0 -40 0 -43 43 -3 42 -3 42 -45 45 l-43 3 0 -175z m88 -313 c3 -43 3 -43
43 -43 l39 0 0 -45 0 -45 45 0 45 0 0 -46 0 -45 -42 3 c-43 3 -43 3 -46 46 -3
42 -3 42 -43 42 l-39 0 0 45 0 45 -45 0 -45 0 0 46 0 45 43 -3 c42 -3 42 -3
45 -45z"/>
<path d="M3880 3745 l0 -45 45 0 45 0 0 45 0 45 -45 0 -45 0 0 -45z"/>
<path d="M2380 3215 l0 -45 -45 0 -45 0 0 -46 0 -46 -42 4 -43 3 -3 -43 -3
-42 45 0 46 0 0 -45 0 -45 45 0 45 0 0 -45 0 -45 45 0 45 0 0 45 0 45 45 0 45
0 0 45 0 45 43 0 42 0 0 40 0 40 -42 0 -43 0 0 -40 0 -40 -45 0 -45 0 0 39 c0
40 0 40 43 43 42 3 42 3 45 46 l3 42 -45 0 -46 0 0 45 0 45 -45 0 -45 0 0 -45z
m90 -90 l0 -45 -45 0 -45 0 0 -40 0 -40 45 0 45 0 0 -45 0 -45 -45 0 -45 0 0
45 0 45 -45 0 -45 0 0 40 0 40 45 0 45 0 0 45 0 45 45 0 45 0 0 -45z"/>
<path d="M2820 2955 l0 -45 -45 0 -45 0 0 -44 0 -45 -42 -3 c-43 -3 -43 -3
-44 -43 0 -40 -1 -40 -42 -43 l-42 -3 0 -45 0 -44 175 0 175 0 0 -39 c0 -40 0
-40 -42 -43 -43 -3 -43 -3 -46 -45 l-3 -43 -45 0 -44 0 0 46 0 45 -42 -3 c-43
-3 -43 -3 -46 -45 l-3 -43 45 0 46 0 0 -44 0 -45 -42 -3 c-43 -3 -43 -3 -43
-43 0 -40 0 -40 43 -43 l42 -3 0 45 0 46 45 0 45 0 0 -45 0 -45 45 0 45 0 0
45 0 45 -45 0 -45 0 0 45 0 45 45 0 45 0 0 46 0 45 43 -3 42 -3 3 -178 2 -178
43 3 c42 3 42 3 45 46 3 42 3 42 43 42 l39 0 0 45 0 45 45 0 45 0 0 45 0 45
45 0 45 0 0 220 0 220 -45 0 -45 0 0 45 0 45 -220 0 -220 0 0 -45z m440 -90
l0 -45 -45 0 -45 0 0 -45 0 -45 -39 0 c-40 0 -40 0 -43 -42 -3 -43 -3 -43 -45
-46 l-43 -3 0 45 0 46 45 0 45 0 0 45 0 45 40 0 c40 0 40 0 40 38 0 21 3 42 7
45 3 4 24 7 45 7 l38 0 0 -45z"/>
<path d="M3880 2335 l0 -45 45 0 45 0 0 45 0 45 -45 0 -45 0 0 -45z"/>
<path d="M3350 2245 l0 -45 -46 0 -45 0 3 -42 c3 -43 3 -43 43 -43 40 0 40 0
43 43 l3 42 45 0 44 0 0 -45 0 -45 -45 0 -45 0 0 -40 0 -40 -45 0 -45 0 0 39
c0 38 -1 39 -41 43 -22 2 -42 2 -45 -1 -2 -2 -4 -22 -4 -43 l0 -38 45 0 45 0
0 -45 0 -45 45 0 45 0 0 -45 0 -45 45 0 45 0 0 45 0 45 45 0 45 0 0 45 0 45
40 0 40 0 0 43 0 43 -40 -4 c-39 -4 -40 -5 -40 -43 l0 -39 -45 0 -45 0 0 39
c0 40 0 40 43 43 42 3 42 3 45 46 l3 42 -45 0 -46 0 0 45 0 45 -45 0 -45 0 0
-45z m90 -260 l0 -45 -45 0 -45 0 0 45 0 45 45 0 45 0 0 -45z"/>
<path d="M5820 3745 l0 -45 -45 0 -45 0 0 -45 0 -45 -45 0 -45 0 0 -40 0 -40
-45 0 -45 0 0 -45 0 -45 -40 0 -40 0 0 -45 0 -45 -45 0 -45 0 0 -45 0 -45 -45
0 -45 0 0 -45 0 -45 -45 0 -45 0 0 -45 0 -45 -130 0 -130 0 0 -40 0 -40 -45 0
-45 0 0 -45 0 -45 -45 0 -45 0 0 -45 0 -45 -45 0 -45 0 0 -45 0 -45 -46 0 -45
0 3 -42 c3 -43 3 -43 46 -46 l42 -3 0 45 0 46 45 0 45 0 0 45 0 45 45 0 45 0
0 45 0 45 45 0 45 0 0 45 0 45 130 0 130 0 0 -45 0 -45 45 0 45 0 0 -45 0 -45
45 0 45 0 0 -45 0 -45 45 0 45 0 0 -45 0 -45 40 0 40 0 0 -40 0 -40 45 0 45 0
0 -45 0 -45 45 0 45 0 0 -45 0 -45 45 0 45 0 0 -45 0 -45 45 0 45 0 0 45 0 45
-45 0 -45 0 0 45 0 45 -45 0 -45 0 0 45 0 45 -45 0 -45 0 0 40 0 40 -45 0 -45
0 0 45 0 45 -40 0 -40 0 0 45 0 45 -45 0 -45 0 0 45 0 45 -45 0 -45 0 0 45 0
45 -45 0 -45 0 0 39 c0 40 0 40 43 43 42 3 42 3 45 46 l3 42 45 0 44 0 0 45 0
45 45 0 45 0 0 45 0 45 40 0 40 0 0 45 0 45 45 0 45 0 0 45 0 45 45 0 45 0 0
40 0 40 45 0 45 0 0 45 0 45 45 0 45 0 0 45 0 45 -45 0 -45 0 0 -45z"/>
<path d="M710 3570 l0 -40 40 0 40 0 0 40 0 40 -40 0 -40 0 0 -40z"/>
<path d="M5990 3570 l0 -40 45 0 45 0 0 40 0 40 -45 0 -45 0 0 -40z"/>
<path d="M4587 3433 c-4 -3 -7 -24 -7 -45 l0 -38 45 0 45 0 0 -45 0 -45 45 0
45 0 0 -45 0 -45 45 0 45 0 0 -46 0 -45 43 3 c42 3 42 3 45 46 l3 42 -45 0
-46 0 0 45 0 45 -45 0 -45 0 0 45 0 45 -45 0 -45 0 0 45 0 45 -38 0 c-21 0
-42 -3 -45 -7z"/>
<path d="M970 3215 l0 -45 -46 0 -45 0 3 -42 c3 -43 3 -43 46 -46 42 -3 42 -3
42 -43 l0 -39 -45 0 -45 0 0 39 c0 38 -1 39 -41 43 -22 2 -42 2 -45 -1 -2 -2
-4 -22 -4 -43 l0 -38 45 0 45 0 0 -45 0 -45 45 0 45 0 0 -45 0 -45 45 0 45 0
0 45 0 45 45 0 45 0 0 45 0 45 40 0 40 0 0 43 0 43 -40 -4 c-39 -4 -40 -5 -40
-43 l0 -39 -45 0 -45 0 0 39 c0 40 0 40 43 43 42 3 42 3 45 46 l3 42 -45 0
-46 0 0 45 0 45 -45 0 -45 0 0 -45z m90 -90 l0 -45 -45 0 -45 0 0 45 0 45 45
0 45 0 0 -45z m0 -170 l0 -45 -45 0 -45 0 0 45 0 45 45 0 45 0 0 -45z"/>
<path d="M4320 3215 l0 -45 -45 0 -45 0 0 -46 0 -46 -42 4 -43 3 -3 -43 -3
-42 45 0 46 0 0 -45 0 -45 45 0 45 0 0 -45 0 -45 45 0 45 0 0 45 0 45 46 0 45
0 -3 43 c-3 42 -3 42 -45 45 -43 3 -43 3 -43 42 0 39 0 39 43 42 42 3 42 3 45
46 l3 42 -45 0 -46 0 0 45 0 45 -45 0 -45 0 0 -45z m90 -90 l0 -45 -45 0 -45
0 0 -40 0 -40 45 0 45 0 0 -45 0 -45 -45 0 -45 0 0 45 0 45 -45 0 -45 0 0 40
0 40 45 0 45 0 0 45 0 45 45 0 45 0 0 -45z"/>
<path d="M5730 3215 l0 -45 -46 0 -45 0 3 -42 c3 -43 3 -43 46 -46 42 -3 42
-3 42 -43 l0 -39 -45 0 -45 0 0 39 c0 38 -1 39 -41 43 -22 2 -42 2 -45 -1 -2
-2 -4 -22 -4 -43 l0 -38 45 0 45 0 0 -45 0 -45 45 0 45 0 0 -45 0 -45 45 0 45
0 0 45 0 45 45 0 45 0 0 45 0 45 40 0 40 0 0 43 0 43 -40 -4 -40 -4 0 46 0 46
-45 0 -45 0 0 45 0 45 -45 0 -45 0 0 -45z m90 -90 l0 -45 45 0 45 0 0 -40 0
-40 -45 0 -45 0 0 -45 0 -45 -45 0 -45 0 0 45 0 45 45 0 45 0 0 40 0 40 -45 0
-45 0 0 45 0 45 45 0 45 0 0 -45z"/>
<path d="M4500 3040 l0 -40 40 0 40 0 0 40 0 40 -40 0 -40 0 0 -40z"/>
<path d="M4500 2600 l0 -40 40 0 40 0 0 40 0 40 -40 0 -40 0 0 -40z"/>
<path d="M710 2515 l0 -45 40 0 40 0 0 45 0 45 -40 0 -40 0 0 -45z"/>
<path d="M4059 2556 c-3 -3 -3 -23 -1 -45 4 -40 5 -41 43 -41 l39 0 0 45 0 45
-38 0 c-21 0 -41 -2 -43 -4z"/>
<path d="M5997 2553 c-4 -3 -7 -24 -7 -45 l0 -38 45 0 45 0 0 45 0 45 -38 0
c-21 0 -42 -3 -45 -7z"/>
<path d="M530 5505 l0 -45 45 0 45 0 0 -40 0 -40 45 0 45 0 0 -45 0 -45 40 0
40 0 0 45 0 45 45 0 45 0 0 39 c0 40 0 40 43 43 42 3 42 3 45 46 l3 42 -45 0
-46 0 0 -45 0 -45 -45 0 -45 0 0 45 0 45 -40 0 -40 0 0 -45 0 -45 -45 0 -45 0
0 45 0 45 -45 0 -45 0 0 -45z m260 -85 l0 -40 -40 0 -40 0 0 40 0 40 40 0 40
0 0 -40z"/>
<path d="M1590 5505 l0 -45 -220 0 -220 0 0 -40 0 -40 -45 0 -45 0 0 -45 0
-45 -45 0 -45 0 0 -45 0 -45 -45 0 -45 0 0 -45 0 -45 175 0 175 0 0 -45 0 -45
-40 0 -40 0 0 -43 0 -42 -45 3 -45 4 0 39 0 39 -45 0 -45 0 0 -40 0 -40 45 0
45 0 0 -45 0 -45 -45 0 -45 0 0 -45 0 -45 45 0 45 0 0 45 0 45 45 0 45 0 0
-45 0 -45 40 0 40 0 0 45 0 45 -41 0 -40 0 3 43 c3 41 4 42 41 42 37 0 37 0
37 43 l0 42 45 0 45 0 0 -175 0 -175 45 0 45 0 0 45 0 45 45 0 45 0 0 45 0 45
45 0 45 0 0 46 0 46 41 -3 40 -3 -1 222 -1 222 45 0 46 0 2 -222 3 -222 40 0
c40 -1 40 -1 43 -43 l3 -43 45 0 44 0 0 -45 0 -45 45 0 45 0 0 -46 0 -45 43 3
42 3 3 173 2 172 40 0 c39 0 39 0 42 -42 l3 -43 43 3 42 4 0 -46 0 -45 -42 -3
c-43 -3 -43 -3 -46 -45 l-3 -43 45 0 46 0 0 45 0 45 45 0 45 0 0 -45 0 -45 45
0 45 0 0 45 0 45 -45 0 -45 0 0 46 0 46 43 -4 42 -3 3 43 3 42 -45 0 -46 0 0
-40 0 -40 -45 0 -45 0 0 40 0 40 -45 0 -45 0 0 45 0 45 178 2 177 3 3 43 3 42
-45 0 -46 0 0 45 0 45 -45 0 -45 0 0 45 0 45 -45 0 -45 0 0 40 0 40 -220 0
-220 0 0 45 0 45 -130 0 -130 0 0 -45z m80 -85 l0 -40 -40 0 -40 0 0 -45 0
-45 -45 0 -45 0 0 -45 0 -45 -45 0 -45 0 0 -45 0 -45 -45 0 -45 0 0 45 0 45
45 0 45 0 0 45 0 45 45 0 45 0 0 45 0 45 45 0 45 0 0 40 0 40 40 0 40 0 0 -40z
m180 0 l0 -40 45 0 45 0 0 -45 0 -45 45 0 45 0 0 -45 0 -45 46 0 45 0 -3 -42
c-3 -43 -3 -43 -45 -46 l-43 -3 0 45 0 46 -45 0 -45 0 0 45 0 45 -45 0 -45 0
0 45 0 45 -45 0 -45 0 0 40 0 40 45 0 45 0 0 -40z"/>
<path d="M2470 5504 l0 -45 43 3 c42 3 42 3 45 46 l3 42 -45 0 -46 0 0 -46z"/>
<path d="M2642 5508 c3 -43 3 -43 46 -46 42 -3 42 -3 42 -42 0 -39 0 -39 -42
-42 -43 -3 -43 -3 -46 -45 l-3 -43 45 0 46 0 0 45 0 45 45 0 45 0 0 39 c0 40
0 40 43 43 42 3 42 3 45 46 l3 42 -45 0 -46 0 0 -45 0 -45 -45 0 -45 0 0 45 0
45 -46 0 -45 0 3 -42z"/>
<path d="M3880 5505 l0 -45 45 0 45 0 0 -40 0 -40 45 0 45 0 0 -45 0 -45 40 0
40 0 0 45 0 45 45 0 45 0 0 40 0 40 45 0 45 0 0 45 0 45 -45 0 -45 0 0 -45 0
-45 -45 0 -45 0 0 45 0 45 -40 0 -40 0 0 -45 0 -45 -45 0 -45 0 0 45 0 45 -45
0 -45 0 0 -45z m260 -85 l0 -40 -40 0 -40 0 0 40 0 40 40 0 40 0 0 -40z"/>
<path d="M4940 5505 l0 -45 -220 0 -220 0 0 -40 0 -40 -45 0 -45 0 0 -45 0
-45 -45 0 -45 0 0 -45 0 -45 -45 0 -45 0 0 -45 0 -45 174 0 175 0 3 -42 c3
-43 3 -43 46 -46 l42 -3 0 -175 0 -174 45 0 45 0 0 45 0 45 45 0 45 0 0 45 0
45 45 0 45 0 0 46 0 46 43 -4 42 -3 0 220 0 220 -42 3 c-43 3 -43 3 -43 43 l0
39 45 0 45 0 0 -40 c0 -40 0 -40 40 -40 l40 0 2 -222 3 -223 43 3 42 4 0 -46
0 -46 45 0 45 0 0 -45 0 -45 45 0 45 0 0 -46 0 -45 43 3 42 3 3 173 2 172 40
0 c40 0 40 0 40 -38 0 -21 2 -41 4 -43 3 -3 23 -3 45 -1 40 4 41 5 41 43 l0
39 -45 0 -45 0 0 45 0 45 180 0 180 0 0 45 0 45 -45 0 -45 0 0 45 0 45 -45 0
-45 0 0 45 0 45 -45 0 -45 0 0 40 0 40 -220 0 -220 0 0 45 0 45 -130 0 -130 0
0 -45z m260 -84 c0 -40 0 -40 43 -43 42 -3 42 -3 45 -45 l3 -43 45 0 44 0 0
-45 0 -45 45 0 45 0 0 -45 0 -45 -45 0 -45 0 0 45 0 45 -45 0 -45 0 0 45 0 45
-45 0 -45 0 0 45 0 45 -45 0 -45 0 0 40 0 40 45 0 45 0 0 -39z m-260 -86 l0
-45 -45 0 -45 0 0 -45 0 -45 -45 0 -45 0 0 -45 0 -45 -45 0 -45 0 0 45 0 45
45 0 45 0 0 45 0 45 45 0 45 0 0 45 0 45 45 0 45 0 0 -45z"/>
<path d="M5820 5505 l0 -45 45 0 45 0 0 -40 0 -40 40 0 40 0 0 40 0 40 -40 0
-40 0 0 45 0 45 -45 0 -45 0 0 -45z"/>
<path d="M5992 5508 c3 -43 3 -43 46 -46 42 -3 42 -3 42 -42 0 -39 0 -39 -42
-42 -43 -3 -43 -3 -46 -45 l-3 -43 45 0 46 0 0 45 0 45 45 0 45 0 0 39 c0 40
0 40 43 43 42 3 42 3 45 46 l3 42 -45 0 -46 0 0 -45 0 -45 -45 0 -45 0 0 45 0
45 -46 0 -45 0 3 -42z"/>
<path d="M2560 5420 l0 -40 40 0 40 0 0 40 0 40 -40 0 -40 0 0 -40z"/>
<path d="M4320 4980 l0 -40 45 0 45 0 0 -45 0 -45 -45 0 -45 0 0 -45 0 -45 45
0 45 0 0 45 0 45 45 0 45 0 0 -45 0 -45 40 0 40 0 0 45 0 45 -39 0 c-40 0 -40
0 -43 43 -3 42 -3 42 -45 45 -43 3 -43 3 -43 43 l0 39 -45 0 -45 0 0 -40z"/>
<path d="M4500 4980 l0 -40 40 0 40 0 0 40 0 40 -40 0 -40 0 0 -40z"/>
<path d="M5730 4981 c0 -40 0 -40 -42 -43 -43 -3 -43 -3 -46 -45 -3 -42 -3
-42 -45 -45 -42 -3 -42 -3 -45 -45 l-3 -43 45 0 46 0 0 45 0 45 45 0 45 0 0
-45 0 -45 45 0 45 0 0 45 0 45 -45 0 -45 0 0 45 0 45 45 0 45 0 0 40 0 40 -45
0 -45 0 0 -39z"/>
<path d="M1677 4753 c-4 -3 -7 -24 -7 -45 0 -38 0 -38 -40 -38 l-40 0 0 -45 0
-45 -45 0 -45 0 0 -45 0 -45 45 0 45 0 0 -40 0 -40 40 0 40 0 0 -45 0 -45 45
0 45 0 0 45 0 45 45 0 45 0 0 39 c0 40 0 40 43 43 42 3 42 3 45 46 l3 42 -45
0 -46 0 0 45 0 45 -45 0 -45 0 0 45 0 45 -38 0 c-21 0 -42 -3 -45 -7z m83
-128 l0 -45 45 0 45 0 0 -45 0 -45 -45 0 -45 0 0 -40 0 -40 -45 0 -45 0 0 40
0 40 -40 0 -40 0 0 45 0 45 40 0 40 0 0 45 0 45 45 0 45 0 0 -45z"/>
<path d="M1672 4538 c3 -43 3 -43 46 -46 l42 -3 0 45 0 46 -46 0 -45 0 3 -42z"/>
<path d="M5030 4715 l0 -45 -45 0 -45 0 0 -45 0 -45 -45 0 -45 0 0 -46 0 -45
43 3 c42 3 42 3 45 45 3 42 3 42 45 45 42 3 42 3 45 46 3 42 3 42 43 42 l39 0
0 -45 0 -45 -40 0 -40 0 0 -45 0 -45 -45 0 -45 0 0 -40 0 -40 45 0 45 0 0 -45
0 -45 40 0 40 0 0 45 0 45 45 0 45 0 0 39 c0 40 0 40 43 43 42 3 42 3 45 46
l3 42 -45 0 -46 0 0 45 0 45 -45 0 -45 0 0 45 0 45 -40 0 -40 0 0 -45z m170
-180 l0 -45 -45 0 -45 0 0 -40 0 -40 -40 0 -40 0 0 40 0 40 40 0 40 0 0 45 0
45 45 0 45 0 0 -45z"/>
<path d="M0 4185 l0 -45 45 0 45 0 0 -45 0 -45 -45 0 -45 0 0 -40 0 -40 45 0
45 0 0 -45 0 -45 -45 0 -45 0 0 -45 0 -45 45 0 45 0 0 45 0 45 45 0 45 0 0 45
0 45 43 0 42 0 0 40 0 40 -42 0 -43 0 0 45 0 45 -45 0 -45 0 0 45 0 45 -45 0
-45 0 0 -45z m180 -175 l0 -40 -45 0 -45 0 0 40 0 40 45 0 45 0 0 -40z"/>
<path d="M6610 4095 l0 -45 -45 0 -45 0 0 -40 0 -40 45 0 45 0 0 -45 0 -45 45
0 45 0 0 45 0 45 -45 0 -45 0 0 40 0 40 45 0 45 0 0 45 0 45 -45 0 -45 0 0
-45z"/>
<path d="M0 2245 l0 -45 44 0 45 0 3 -42 c3 -43 3 -43 43 -43 40 0 40 0 43 43
l3 42 -45 0 -46 0 0 45 0 45 -45 0 -45 0 0 -45z"/>
<path d="M6612 2158 c3 -43 3 -43 46 -46 l42 -3 0 45 0 46 -46 0 -45 0 3 -42z"/>
<path d="M218 2112 c-37 -3 -38 -4 -38 -43 l0 -39 -45 0 -45 0 0 40 0 40 -45
0 -45 0 0 -40 0 -40 45 0 45 0 0 -45 0 -45 -45 0 -45 0 0 -45 0 -45 45 0 45 0
0 45 0 45 45 0 45 0 0 45 0 45 39 0 c38 0 39 1 43 41 2 22 1 41 -2 42 -3 1
-22 1 -42 -1z"/>
<path d="M6524 2111 c-2 -2 -4 -22 -4 -43 l0 -38 45 0 45 0 0 -45 0 -45 45 0
45 0 0 45 0 45 -45 0 -45 0 0 39 c0 38 -1 39 -41 43 -22 2 -42 2 -45 -1z"/>
<path d="M1672 1718 c3 -43 3 -43 46 -46 42 -3 42 -3 42 -43 l0 -39 -45 0 -45
0 0 40 0 40 -40 0 -40 0 0 -40 0 -40 -45 0 -45 0 0 -45 0 -45 45 0 45 0 0 -45
0 -45 39 0 c40 0 40 0 43 -42 3 -43 3 -43 46 -46 l42 -3 0 45 0 46 45 0 45 0
0 45 0 45 45 0 45 0 0 45 0 45 -45 0 -45 0 0 40 0 40 -45 0 -45 0 0 45 0 45
-46 0 -45 0 3 -42z m-2 -173 l0 -45 45 0 45 0 0 45 0 45 45 0 45 0 0 -45 0
-45 -45 0 -45 0 0 -45 0 -45 -45 0 -45 0 0 45 0 45 -40 0 -40 0 0 45 0 45 40
0 40 0 0 -45z"/>
<path d="M5030 1715 l0 -45 -45 0 -45 0 0 -40 0 -40 -45 0 -45 0 0 -45 0 -45
45 0 45 0 0 -45 0 -45 45 0 45 0 0 -45 0 -45 40 0 40 0 0 45 0 45 45 0 45 0 0
45 0 45 45 0 45 0 0 45 0 45 -45 0 -45 0 0 40 0 40 -45 0 -45 0 0 45 0 45 -40
0 -40 0 0 -45z m80 -85 l0 -40 45 0 45 0 0 -45 0 -45 -45 0 -45 0 0 -45 0 -45
-39 0 c-40 0 -40 0 -43 43 -3 42 -3 42 -45 45 l-43 3 0 45 0 44 45 0 45 0 0
40 0 40 40 0 40 0 0 -40z"/>
<path d="M5030 1545 l0 -45 40 0 40 0 0 45 0 45 -40 0 -40 0 0 -45z"/>
<path d="M1320 1235 l0 -175 -45 0 -45 0 0 45 0 45 -40 0 -40 0 0 40 0 40 40
0 40 0 0 45 0 45 -40 0 -40 0 0 -45 0 -45 -45 0 -45 0 0 45 0 45 -45 0 -45 0
0 -45 0 -45 45 0 45 0 0 -40 0 -40 -45 0 -45 0 0 -45 0 -45 45 0 45 0 0 45 0
45 45 0 45 0 0 -45 0 -45 40 0 40 0 0 -45 0 -45 -175 0 -175 0 0 -45 0 -45 45
0 45 0 0 -45 0 -45 45 0 45 0 0 -39 c0 -40 0 -40 43 -43 42 -3 42 -3 45 -45
l3 -43 220 0 219 0 0 -45 0 -45 130 0 130 0 0 45 0 45 219 0 220 0 3 43 c3 42
3 42 46 45 42 3 42 3 42 43 l0 39 45 0 45 0 0 45 0 45 45 0 45 0 0 45 0 45
-180 0 -180 0 0 45 0 45 45 0 45 0 0 45 0 45 45 0 45 0 0 -45 0 -45 46 0 45 0
-3 43 c-3 42 -3 42 -45 45 -43 3 -43 3 -43 42 0 39 0 39 43 42 42 3 42 3 45
46 l3 42 -45 0 -46 0 0 -45 0 -45 -45 0 -45 0 0 45 0 45 -46 0 -45 0 3 -42 c3
-43 3 -43 46 -46 42 -3 42 -3 42 -42 0 -39 0 -39 -42 -42 -43 -3 -43 -3 -46
-45 -3 -43 -3 -43 -42 -43 l-40 0 -2 173 -3 172 -42 3 -43 3 0 -45 0 -46 -45
0 -45 0 0 -45 0 -45 -45 0 -45 0 0 -39 c0 -40 0 -40 -42 -43 l-43 -3 -3 -217
-2 -217 -43 -3 c-42 -3 -42 -3 -45 -45 -3 -43 -3 -43 -43 -43 l-39 0 0 45 0
45 40 0 40 0 0 210 c0 116 0 213 0 218 0 4 -18 8 -40 10 -39 3 -40 4 -40 43
l0 39 -45 0 -45 0 0 45 0 45 -45 0 -45 0 0 45 0 45 -45 0 -45 0 0 -175z m90
-310 l0 -45 45 0 45 0 0 -45 0 -45 45 0 45 0 0 -40 0 -40 -45 0 -45 0 0 40 0
40 -45 0 -45 0 0 45 0 45 -45 0 -45 0 0 45 0 45 45 0 45 0 0 -45z m708 3 c-3
-43 -3 -43 -45 -46 l-43 -3 0 -45 0 -44 -45 0 -45 0 0 -40 0 -40 -45 0 -45 0
0 -45 0 -45 -45 0 -45 0 0 45 0 45 45 0 45 0 0 40 0 40 45 0 45 0 0 45 0 45
45 0 45 0 0 45 0 45 46 0 45 0 -3 -42z"/>
<path d="M4670 1235 l0 -175 -45 0 -45 0 0 45 0 45 -40 0 -40 0 0 40 0 40 40
0 40 0 0 45 0 45 -40 0 -40 0 0 -45 0 -45 -45 0 -45 0 0 45 0 45 -45 0 -45 0
0 -45 0 -45 45 0 45 0 0 -40 0 -40 -45 0 -45 0 0 -45 0 -45 45 0 45 0 0 45 0
45 45 0 45 0 0 -45 0 -45 40 0 40 0 0 -45 0 -45 -175 0 -175 0 0 -45 0 -45 45
0 45 0 0 -45 0 -45 45 0 45 0 0 -39 c0 -40 0 -40 43 -43 42 -3 42 -3 45 -45
l3 -43 220 0 219 0 0 -45 0 -45 130 0 130 0 0 45 0 45 219 0 220 0 3 43 c3 42
3 42 46 45 42 3 42 3 42 43 l0 39 45 0 45 0 0 45 0 45 45 0 45 0 0 45 0 45
-180 0 -180 0 0 45 0 45 45 0 45 0 0 45 0 45 45 0 45 0 0 -45 0 -45 46 0 45 0
-3 43 c-3 42 -3 42 -45 45 -43 3 -43 3 -43 43 l0 39 45 0 45 0 0 45 0 45 -45
0 -45 0 0 -45 0 -45 -45 0 -45 0 0 45 0 45 -46 0 -45 0 3 -42 c3 -43 3 -43 46
-46 42 -3 42 -3 42 -42 0 -39 0 -39 -42 -42 -43 -3 -43 -3 -46 -45 -3 -43 -3
-43 -43 -43 l-39 0 0 175 0 175 -45 0 -45 0 0 -45 0 -45 -45 0 -45 0 0 -45 0
-45 -45 0 -45 0 0 -39 c0 -40 0 -40 -42 -43 l-43 -3 -3 -217 -2 -218 -40 0
-40 0 -2 218 -3 217 -42 3 c-43 3 -43 3 -43 43 l0 39 -45 0 -45 0 0 45 0 45
-45 0 -45 0 0 45 0 45 -45 0 -45 0 0 -175z m90 -310 l0 -45 45 0 45 0 0 -45 0
-45 45 0 45 0 0 -40 0 -40 45 0 45 0 0 -45 0 -45 -44 0 -45 0 -3 43 c-3 42 -3
42 -45 45 -43 3 -43 3 -43 43 l0 39 -45 0 -45 0 0 45 0 45 -45 0 -45 0 0 45 0
45 45 0 45 0 0 -45z m708 3 c-3 -43 -3 -43 -45 -46 l-43 -3 0 -45 0 -44 -45 0
-45 0 0 -40 0 -40 -45 0 -45 0 0 -45 0 -45 -45 0 -45 0 0 45 0 45 45 0 45 0 0
40 0 40 45 0 45 0 0 45 0 45 45 0 45 0 0 45 0 45 46 0 45 0 -3 -42z"/>
<path d="M710 750 l0 -40 40 0 40 0 0 -45 0 -45 -39 0 c-40 0 -40 0 -43 43 -3
42 -3 42 -45 45 l-43 3 0 -45 0 -46 -45 0 -45 0 0 -45 0 -45 45 0 45 0 0 45 0
45 45 0 45 0 0 -45 0 -45 40 0 40 0 0 45 0 45 45 0 45 0 0 -45 0 -45 45 0 45
0 0 45 0 45 -45 0 -45 0 0 45 0 45 -45 0 -45 0 0 40 0 40 -40 0 -40 0 0 -40z"/>
<path d="M2640 750 l0 -40 -40 0 -40 0 0 -45 0 -45 -45 0 -45 0 0 -45 0 -45
45 0 45 0 0 45 0 45 40 0 40 0 0 45 0 45 45 0 45 0 0 -44 0 -45 -42 -3 c-43
-3 -43 -3 -43 -43 0 -40 0 -40 43 -43 l42 -3 0 45 0 46 45 0 45 0 0 -45 0 -45
45 0 45 0 0 45 0 45 -45 0 -45 0 0 45 0 45 -45 0 -45 0 0 40 0 40 -45 0 -45 0
0 -40z"/>
<path d="M4058 750 c4 -39 5 -40 43 -40 39 0 39 0 39 40 l0 40 -43 0 -43 0 4
-40z"/>
<path d="M5990 750 l0 -40 -40 0 -40 0 0 -45 0 -45 -45 0 -45 0 0 -45 0 -45
45 0 45 0 0 45 0 45 40 0 40 0 0 45 0 45 45 0 45 0 0 40 0 40 -45 0 -45 0 0
-40z"/>
<path d="M90 666 l0 -46 -45 0 -45 0 0 -45 0 -45 45 0 45 0 0 45 0 45 46 0 45
0 -3 43 c-3 42 -3 42 -45 45 l-43 3 0 -45z"/>
<path d="M3970 666 l0 -46 -45 0 -45 0 0 -45 0 -45 45 0 45 0 0 45 0 45 45 0
45 0 0 -45 0 -45 40 0 40 0 0 45 0 45 45 0 45 0 0 -45 0 -45 45 0 45 0 0 45 0
45 -45 0 -45 0 0 46 0 45 -42 -3 c-43 -3 -43 -3 -46 -45 -3 -43 -3 -43 -42
-43 -39 0 -39 0 -42 43 -3 42 -3 42 -45 45 l-43 3 0 -45z"/>
<path d="M6087 704 c-4 -4 -7 -24 -7 -45 0 -37 -1 -38 -42 -41 -43 -3 -43 -3
-46 -45 l-3 -43 45 0 46 0 0 45 0 45 45 0 45 0 0 -45 0 -45 45 0 45 0 0 45 0
45 -44 0 -45 0 -3 43 c-3 40 -4 42 -38 45 -20 2 -39 0 -43 -4z"/>
<path d="M0 350 l0 -90 3350 0 3350 0 0 90 0 90 -3350 0 -3350 0 0 -90z"/>
<path d="M0 90 l0 -90 3350 0 3350 0 0 90 0 90 -3350 0 -3350 0 0 -90z"/>
</g>
</svg>
